<?xml version="1.0" standalone="no"?>
<!DOCTYPE svg PUBLIC "-//W3C//DTD SVG 1.1//EN" "http://www.w3.org/Graphics/SVG/1.1/DTD/svg11.dtd" >
<svg xmlns="http://www.w3.org/2000/svg" xmlns:xlink="http://www.w3.org/1999/xlink" version="1.1">
<metadata>
Created by FontForge 20190801 at Tue Jan 21 10:45:37 2020
 By Jimmy Wärting
Copyright 2021, Kris Sowersby, Klim Type Foundry.
</metadata>
<defs>
<font id="DomaineText-Regular" horiz-adv-x="640" >
  <font-face 
    font-family="Domaine Text"
    font-weight="400"
    font-stretch="normal"
    units-per-em="1000"
    panose-1="2 10 5 6 8 5 5 6 2 4"
    ascent="780"
    descent="-220"
    x-height="486"
    cap-height="700"
    bbox="-178 -254 1315 984"
    underline-thickness="36"
    underline-position="-75"
    stemh="39"
    stemv="49"
    unicode-range="U+0020-FB04"
  />
<missing-glyph horiz-adv-x="500" 
 />
    <glyph glyph-name="fi" unicode="fi" horiz-adv-x="614" 
d="M189 445v-344c0 -58 21 -70 92 -93v-8h-236v7c43 27 57 36 57 102v336h-70v27l70 20v40c0 137 85 221 222 221c101 0 163 -49 163 -104c0 -39 -33 -62 -73 -62c-15 0 -28 2 -36 5c12 13 17 31 17 52c0 39 -22 74 -84 74c-84 0 -122 -67 -122 -172v-60h333v-377
c0 -66 14 -75 57 -102v-7h-201v7c43 27 57 36 57 102v336h-246z" />
    <glyph glyph-name="fl" unicode="fl" horiz-adv-x="614" 
d="M522 749v-640c0 -66 14 -75 57 -102v-7h-201v7c43 27 57 36 57 102v481c0 64 -55 125 -132 125c-76 0 -114 -57 -114 -149v-80h139l-5 -41h-134v-344c0 -58 21 -70 92 -93v-8h-236v7c43 27 57 36 57 102v336h-70v27l70 20v64c0 128 83 197 189 197c64 0 119 -26 149 -60z
" />
    <glyph glyph-name="f_b" unicode="fb" horiz-adv-x="959" 
d="M522 261v-66c0 -106 79 -155 147 -155c92 0 154 77 154 211c0 115 -57 191 -152 191c-90 0 -149 -85 -149 -181zM435 590c0 64 -55 125 -132 125c-76 0 -114 -57 -114 -149v-80h139l-5 -41h-134v-344c0 -58 21 -70 92 -93v-8h-236v7c43 27 57 36 57 102v336h-70v27l70 20
v64c0 128 83 197 189 197c64 0 119 -26 149 -60l82 56v-383c23 72 87 130 181 130c122 0 215 -89 215 -245c0 -160 -105 -261 -230 -261c-90 0 -154 48 -178 100c-12 -44 -42 -80 -76 -100h-12c13 59 13 134 13 222v378z" />
    <glyph glyph-name="f_f_b" unicode="ffb" horiz-adv-x="1292" 
d="M189 486h246v70c0 17 1 33 4 48c-18 49 -60 98 -126 98c-81 0 -124 -65 -124 -163v-53zM855 261v-66c0 -106 79 -155 147 -155c92 0 154 77 154 211c0 115 -57 191 -152 191c-90 0 -149 -85 -149 -181zM842 90c-11 -44 -41 -80 -76 -100h-12c13 59 13 134 13 222v378
c0 64 -54 125 -131 125c-76 0 -114 -57 -114 -149v-80h138l-5 -41h-133v-344c0 -58 21 -70 91 -93v-8h-235v7c43 27 57 36 57 102v336h-246v-344c0 -58 21 -70 92 -93v-8h-236v7c43 27 57 36 57 102v336h-70v27l70 20v33c0 120 78 214 211 214c66 0 121 -24 157 -60
c33 49 89 74 154 74c64 0 119 -26 149 -60l82 56v-383c23 72 87 130 180 130c123 0 216 -89 216 -245c0 -160 -105 -261 -230 -261c-90 0 -154 48 -179 100z" />
    <glyph glyph-name="f_f_h" unicode="ffh" horiz-adv-x="1279" 
d="M189 486h246v70c0 17 1 33 4 48c-18 49 -60 98 -126 98c-81 0 -124 -65 -124 -163v-53zM281 8v-8h-236v7c43 27 57 36 57 102v336h-70v27l70 20v33c0 120 78 214 211 214c66 0 121 -24 157 -60c33 49 89 74 154 74c64 0 119 -26 149 -60l82 56v-384c29 84 92 131 175 131
c103 0 157 -67 157 -174v-213c0 -66 14 -75 57 -102v-7h-201v7c43 27 56 36 56 102v198c0 66 -26 127 -104 127c-76 0 -140 -63 -140 -178v-147c0 -66 14 -75 57 -102v-7h-201v7c43 27 56 36 56 102v481c0 64 -54 125 -131 125c-76 0 -114 -57 -114 -149v-80h138l-5 -41
h-133v-344c0 -58 21 -70 91 -93v-8h-235v7c43 27 57 36 57 102v336h-246v-344c0 -58 21 -70 92 -93z" />
    <glyph glyph-name="f_f_idieresis" unicode="ff&#xef;" horiz-adv-x="947" 
d="M189 486h246v72c0 16 1 32 4 46c-18 49 -60 98 -126 98c-81 0 -124 -65 -124 -163v-53zM906 699c34 0 60 -27 60 -59c0 -33 -26 -60 -60 -60c-32 0 -59 27 -59 60c0 32 27 59 59 59zM281 8v-8h-236v7c43 27 57 36 57 102v336h-70v27l70 20v33c0 120 78 214 211 214
c66 0 121 -24 157 -60c33 48 89 74 156 74c83 0 146 -45 146 -102c0 -42 -36 -64 -74 -64c-15 0 -27 2 -35 5c12 15 20 33 20 55c0 38 -19 71 -66 71c-59 0 -95 -50 -95 -132v-100h333v-377c0 -66 14 -75 57 -102v-7h-201v7c43 27 56 36 56 102v336h-245v-344
c0 -58 21 -70 91 -93v-8h-235v7c43 27 57 36 57 102v336h-246v-344c0 -58 21 -70 92 -93z" />
    <glyph glyph-name="f_f_j" unicode="ffj" horiz-adv-x="939" 
d="M189 486h246v46c0 23 2 44 7 64c-17 52 -60 106 -129 106c-81 0 -124 -65 -124 -163v-53zM686 -225c-76 0 -129 35 -129 88c0 39 29 57 65 57c9 0 19 -2 25 -4c-6 -13 -9 -30 -9 -46c0 -34 22 -61 56 -61c55 0 73 53 73 131v505h-245v-344c0 -58 21 -70 91 -93v-8h-235v7
c43 27 57 36 57 102v336h-246v-344c0 -58 21 -70 92 -93v-8h-236v7c43 27 57 36 57 102v336h-70v27l70 20v33c0 120 78 214 211 214c70 0 127 -27 163 -67c38 52 100 81 181 81c101 0 163 -49 163 -104c0 -39 -33 -62 -73 -62c-16 0 -28 2 -36 5c11 13 17 31 17 52
c0 39 -22 74 -84 74c-84 0 -122 -67 -122 -172v-60h333v-520c0 -120 -60 -191 -169 -191z" />
    <glyph glyph-name="f_f_k" unicode="ffk" horiz-adv-x="1251" 
d="M189 486h246v70c0 17 1 33 4 48c-18 49 -60 98 -126 98c-81 0 -124 -65 -124 -163v-53zM281 8v-8h-236v7c43 27 57 36 57 102v336h-70v27l70 20v33c0 120 78 214 211 214c66 0 121 -24 157 -60c33 49 89 74 154 74c64 0 119 -26 149 -60l82 56v-463h24c26 0 39 4 53 18
l118 110c14 13 19 20 19 30c0 13 -11 23 -30 36v6h189v-6c-51 -17 -89 -37 -137 -81l-112 -105l161 -203c34 -43 69 -62 117 -83v-8h-172c-6 26 -15 43 -37 70l-124 159c-11 16 -21 21 -38 21h-31v-141c0 -66 14 -75 57 -102v-7h-201v7c43 27 56 36 56 102v481
c0 64 -54 125 -131 125c-76 0 -114 -57 -114 -149v-80h138l-5 -41h-133v-344c0 -58 21 -70 91 -93v-8h-235v7c43 27 57 36 57 102v336h-246v-344c0 -58 21 -70 92 -93z" />
    <glyph glyph-name="f_h" unicode="fh" horiz-adv-x="946" 
d="M435 590c0 64 -55 125 -132 125c-76 0 -114 -57 -114 -149v-80h139l-5 -41h-134v-344c0 -58 21 -70 92 -93v-8h-236v7c43 27 57 36 57 102v336h-70v27l70 20v64c0 128 83 197 189 197c64 0 119 -26 149 -60l82 56v-384c29 84 92 131 176 131c102 0 156 -67 156 -174v-213
c0 -66 14 -75 57 -102v-7h-201v7c43 27 57 36 57 102v198c0 66 -26 127 -105 127c-75 0 -140 -63 -140 -178v-147c0 -66 14 -75 57 -102v-7h-201v7c43 27 57 36 57 102v481z" />
    <glyph glyph-name="f_idieresis" unicode="f&#xef;" horiz-adv-x="614" 
d="M633 640c0 -33 -26 -60 -60 -60c-32 0 -59 27 -59 60c0 32 27 59 59 59c34 0 60 -27 60 -59zM189 445v-344c0 -58 21 -70 92 -93v-8h-236v7c43 27 57 36 57 102v336h-70v27l70 20v66c0 124 81 195 191 195c83 0 146 -45 146 -102c0 -42 -36 -64 -74 -64
c-14 0 -27 2 -35 5c12 15 20 33 20 55c0 38 -18 71 -66 71c-59 0 -95 -50 -95 -132v-100h333v-377c0 -66 14 -75 57 -102v-7h-201v7c43 27 57 36 57 102v336h-246z" />
    <glyph glyph-name="f_j" unicode="fj" horiz-adv-x="607" 
d="M435 445h-246v-344c0 -58 21 -70 92 -93v-8h-236v7c43 27 57 36 57 102v336h-70v27l70 20v40c0 137 85 221 222 221c101 0 163 -49 163 -104c0 -39 -33 -62 -73 -62c-15 0 -28 2 -36 5c12 13 17 31 17 52c0 39 -22 74 -84 74c-84 0 -122 -67 -122 -172v-60h333v-520
c0 -120 -60 -191 -168 -191c-77 0 -130 35 -130 88c0 39 29 57 65 57c9 0 19 -2 25 -4c-6 -13 -9 -30 -9 -46c0 -34 22 -61 57 -61c54 0 73 53 73 131v505z" />
    <glyph glyph-name="f_k" unicode="fk" horiz-adv-x="918" 
d="M281 8v-8h-236v7c43 27 57 36 57 102v336h-70v27l70 20v64c0 128 83 197 189 197c64 0 119 -26 149 -60l82 56v-463h24c26 0 39 4 53 18l118 110c14 13 19 20 19 30c0 13 -11 23 -30 36v6h189v-6c-51 -17 -89 -37 -137 -81l-112 -105l161 -203c34 -43 70 -62 117 -83v-8
h-172c-6 26 -15 43 -36 70l-124 159c-12 16 -21 21 -38 21h-32v-141c0 -66 14 -75 57 -102v-7h-201v7c43 27 57 36 57 102v481c0 64 -55 125 -132 125c-76 0 -114 -57 -114 -149v-80h139l-5 -41h-134v-344c0 -58 21 -70 92 -93z" />
    <glyph glyph-name="ff" unicode="ff" horiz-adv-x="691" 
d="M189 486h246v74c0 16 1 31 4 45c-19 49 -61 97 -126 97c-81 0 -124 -65 -124 -163v-53zM281 8v-8h-236v7c43 27 57 36 57 102v336h-70v27l70 20v33c0 120 78 214 211 214c65 0 120 -23 156 -59c33 47 88 73 157 73c80 0 142 -39 142 -94c0 -38 -28 -57 -64 -57
c-10 0 -19 2 -27 4c8 13 11 32 11 48c0 35 -24 64 -70 64c-59 0 -96 -49 -96 -134v-98h144l-5 -41h-139v-343c0 -58 26 -70 100 -93v-9h-244v7c43 27 57 36 57 102v336h-246v-344c0 -58 21 -70 92 -93z" />
    <glyph glyph-name="ffi" unicode="ffi" horiz-adv-x="947" 
d="M189 486h246v46c0 23 2 44 7 64c-17 52 -60 106 -129 106c-81 0 -124 -65 -124 -163v-53zM281 8v-8h-236v7c43 27 57 36 57 102v336h-70v27l70 20v33c0 120 78 214 211 214c70 0 127 -27 163 -67c38 52 100 81 181 81c101 0 163 -49 163 -104c0 -39 -33 -62 -73 -62
c-16 0 -28 2 -36 5c11 13 17 31 17 52c0 39 -22 74 -84 74c-84 0 -122 -67 -122 -172v-60h333v-377c0 -66 14 -75 57 -102v-7h-201v7c43 27 56 36 56 102v336h-245v-344c0 -58 21 -70 91 -93v-8h-235v7c43 27 57 36 57 102v336h-246v-344c0 -58 21 -70 92 -93z" />
    <glyph glyph-name="ffl" unicode="ffl" horiz-adv-x="947" 
d="M189 486h246v70c0 17 1 33 4 48c-18 49 -60 98 -126 98c-81 0 -124 -65 -124 -163v-53zM281 8v-8h-236v7c43 27 57 36 57 102v336h-70v27l70 20v33c0 120 78 214 211 214c66 0 121 -24 157 -60c33 49 89 74 154 74c64 0 119 -26 149 -60l82 56v-640c0 -66 14 -75 57 -102
v-7h-201v7c43 27 56 36 56 102v481c0 64 -54 125 -131 125c-76 0 -114 -57 -114 -149v-80h138l-5 -41h-133v-344c0 -58 21 -70 91 -93v-8h-235v7c43 27 57 36 57 102v336h-246v-344c0 -58 21 -70 92 -93z" />
    <glyph glyph-name=".notdef" horiz-adv-x="500" 
 />
    <glyph glyph-name="space" unicode=" " horiz-adv-x="200" 
 />
    <glyph glyph-name="exclam" unicode="!" horiz-adv-x="269" 
d="M72 700h125l-56 -496h-13zM202 59c0 -38 -30 -68 -67 -68c-38 0 -68 30 -68 68c0 39 30 68 68 68c37 0 67 -29 67 -68z" />
    <glyph glyph-name="quotedbl" unicode="&#x22;" horiz-adv-x="412" 
d="M299 429h-12l-47 248c10 19 29 33 53 33c25 0 44 -14 53 -33zM125 429h-12l-47 248c10 19 29 33 53 33c25 0 44 -14 53 -33z" />
    <glyph glyph-name="numbersign" unicode="#" horiz-adv-x="643" 
d="M380 246l30 207h-144l-30 -207h144zM345 0l30 207h-144l-30 -207h-41l30 207h-150l7 39h148l30 207h-164l7 38h162l30 209h41l-30 -209h144l30 209h40l-30 -209h149l-8 -38h-146l-30 -207h163l-7 -39h-161l-30 -207h-40z" />
    <glyph glyph-name="dollar" unicode="$" horiz-adv-x="593" 
d="M145 548c0 -76 46 -105 134 -131v252c-79 -6 -134 -51 -134 -121zM344 304l-25 7v-280c86 9 145 57 145 146c0 65 -35 102 -120 127zM319 -122h-40v112c-140 2 -235 64 -235 141c0 49 36 71 70 71c14 0 24 -3 31 -7c-8 -13 -13 -26 -13 -45c0 -70 56 -119 147 -121v294
l-21 6c-112 33 -190 81 -190 192c0 108 86 182 211 189v108h40v-109c118 -5 201 -55 201 -125c0 -48 -34 -66 -70 -66c-10 0 -20 2 -26 5c8 13 13 24 13 47c0 51 -41 93 -118 99v-264l41 -12c107 -32 182 -82 182 -198c0 -120 -104 -192 -223 -203v-114z" />
    <glyph glyph-name="percent" unicode="%" horiz-adv-x="928" 
d="M363 639c28 -27 44 -69 44 -111c0 -111 -83 -182 -184 -182c-100 0 -183 71 -183 182s83 182 183 182c82 0 123 -57 241 -57c68 0 140 17 183 66l22 -9l-375 -710h-36l349 660c-24 -21 -100 -33 -143 -33c-33 0 -73 6 -101 12zM328 528c0 99 -46 148 -105 148
c-58 0 -104 -49 -104 -148c0 -98 46 -148 104 -148c59 0 105 50 105 148zM705 -10c-100 0 -183 71 -183 182s83 182 183 182s183 -71 183 -182s-83 -182 -183 -182zM705 24c58 0 105 49 105 148c0 98 -47 148 -105 148s-104 -49 -104 -148c0 -98 46 -148 104 -148z" />
    <glyph glyph-name="ampersand" unicode="&#x26;" horiz-adv-x="734" 
d="M256 453l56 -58c65 32 108 87 108 164c0 65 -44 114 -112 114c-72 0 -113 -44 -113 -105c0 -43 25 -78 61 -115zM306 39c65 0 126 23 173 63l-235 239c-73 -41 -102 -96 -102 -161c0 -83 70 -141 164 -141zM580 0l-73 74c-58 -52 -134 -84 -227 -84
c-127 0 -231 62 -231 182c0 81 62 146 177 186l-42 43c-42 43 -71 88 -71 144c0 110 91 165 195 165c124 0 192 -67 192 -153c0 -90 -80 -151 -169 -180l204 -209c20 34 33 72 37 115c5 50 -11 56 -74 91v7h193v-7c-59 -35 -63 -43 -73 -91c-11 -52 -29 -100 -56 -142
l56 -57c39 -41 68 -56 114 -76v-8h-152z" />
    <glyph glyph-name="quoteright" unicode="&#x2019;" horiz-adv-x="255" 
d="M158 616c-10 -8 -23 -13 -41 -13c-31 0 -55 25 -55 56c0 36 26 61 63 61c50 0 84 -36 84 -97c0 -89 -63 -158 -170 -165v26c76 14 123 64 119 132z" />
    <glyph glyph-name="parenleft" unicode="(" horiz-adv-x="353" 
d="M66 297c0 207 91 363 225 452h26c-106 -93 -167 -262 -167 -452s61 -358 167 -452h-26c-134 90 -225 245 -225 452z" />
    <glyph glyph-name="parenright" unicode=")" horiz-adv-x="353" 
d="M62 749c134 -89 225 -245 225 -452s-91 -362 -225 -452h-26c106 94 167 262 167 452s-61 359 -167 452h26z" />
    <glyph glyph-name="asterisk" unicode="*" horiz-adv-x="480" 
d="M240 507l-104 -119l-21 16l80 135l-145 63l9 25l153 -35l15 157h26l15 -157l153 35l9 -25l-145 -63l81 -135l-21 -16z" />
    <glyph glyph-name="plus" unicode="+" horiz-adv-x="598" 
d="M527 316h-205v-204h-46v204h-205v48h205v204h46v-204h205v-48z" />
    <glyph glyph-name="comma" unicode="," horiz-adv-x="255" 
d="M152 13c-10 -7 -22 -10 -38 -10c-31 0 -55 25 -55 56c0 36 26 61 63 61c50 0 82 -38 82 -102c0 -89 -60 -163 -164 -167v29c76 14 117 61 112 133z" />
    <glyph glyph-name="hyphen" unicode="-" horiz-adv-x="349" 
d="M50 249v51h249v-51h-249z" />
    <glyph glyph-name="period" unicode="." horiz-adv-x="256" 
d="M196 59c0 -38 -31 -68 -68 -68c-38 0 -68 30 -68 68c0 39 30 68 68 68c37 0 68 -29 68 -68z" />
    <glyph glyph-name="slash" unicode="/" horiz-adv-x="394" 
d="M10 -153l300 902h46l-300 -902h-46z" />
    <glyph glyph-name="zero" unicode="0" horiz-adv-x="650" 
d="M600 350c0 -209 -107 -360 -275 -360c-169 0 -275 151 -275 360s106 360 275 360c168 0 275 -151 275 -360zM498 350c0 185 -54 316 -173 316c-120 0 -174 -131 -174 -316s54 -316 174 -316c119 0 173 131 173 316z" />
    <glyph glyph-name="one" unicode="1" horiz-adv-x="374" 
d="M339 0h-299v12c82 27 105 31 105 82v509c0 50 -24 53 -114 86v11h203v-606c0 -51 26 -55 105 -82v-12z" />
    <glyph glyph-name="two" unicode="2" horiz-adv-x="571" 
d="M122 77l211 1c101 1 127 7 180 95h10l-22 -173h-482v6l130 139c106 111 243 244 243 377c0 90 -47 148 -133 148c-82 0 -121 -58 -121 -128c0 -43 11 -74 31 -94c-7 -3 -20 -5 -31 -5c-50 0 -88 38 -88 99c0 89 82 168 209 168c138 0 230 -78 230 -196
c0 -142 -118 -229 -367 -437z" />
    <glyph glyph-name="three" unicode="3" horiz-adv-x="586" 
d="M282 -10c-134 0 -234 67 -234 159c0 58 36 94 88 94c15 0 26 -3 35 -7c-18 -22 -28 -43 -28 -78c0 -81 54 -129 139 -129c91 0 155 53 155 163c0 106 -63 171 -188 171v29c121 3 167 62 167 144c0 81 -47 134 -128 134c-80 0 -121 -49 -121 -117c0 -42 10 -67 30 -86
c-7 -3 -18 -4 -28 -4c-51 0 -89 33 -89 93c0 79 77 154 208 154c124 0 220 -58 220 -174c0 -94 -85 -150 -172 -156v-2c128 -7 200 -91 200 -186c0 -136 -113 -202 -254 -202z" />
    <glyph glyph-name="four" unicode="4" horiz-adv-x="638" 
d="M362 233v386l-271 -386h271zM496 192h-47v-83c0 -66 14 -75 57 -102v-7h-201v7c43 27 57 36 57 102v83h-348v5l360 503h75v-467h47c65 0 71 10 98 53h7v-147h-7c-27 43 -33 53 -98 53z" />
    <glyph glyph-name="five" unicode="5" horiz-adv-x="566" 
d="M256 30c101 0 161 77 161 190c0 109 -49 176 -151 176c-67 0 -121 -30 -159 -66h-4l44 371c72 -11 139 -18 198 -18c69 0 112 5 152 44h4c0 -88 -35 -138 -140 -138c-68 0 -144 15 -184 24l-26 -213c30 23 84 43 142 43c115 0 224 -68 224 -219
c0 -147 -125 -234 -261 -234c-135 0 -224 67 -224 158c0 59 36 94 86 94c16 0 29 -3 37 -7c-17 -20 -28 -42 -28 -79c0 -81 50 -126 129 -126z" />
    <glyph glyph-name="six" unicode="6" horiz-adv-x="589" 
d="M336 671c-135 0 -196 -147 -196 -355c20 67 88 123 179 123c125 0 221 -79 221 -221c0 -134 -102 -228 -237 -228c-171 0 -253 147 -253 335c0 213 98 385 286 385c116 0 192 -56 192 -133c0 -52 -36 -76 -77 -76c-10 0 -20 3 -27 7c13 14 20 38 21 63
c2 55 -37 100 -109 100zM159 213c0 -111 54 -183 143 -183c90 0 144 72 144 183c0 110 -54 182 -144 182c-89 0 -143 -72 -143 -182z" />
    <glyph glyph-name="seven" unicode="7" horiz-adv-x="535" 
d="M40 523v177h490v-4l-87 -130c-108 -159 -160 -348 -166 -558l-103 -18c26 235 110 408 235 585l30 43h-259c-73 0 -103 -27 -130 -95h-10z" />
    <glyph glyph-name="eight" unicode="8" horiz-adv-x="596" 
d="M364 385c124 -46 182 -102 182 -201c0 -113 -99 -194 -243 -194c-143 0 -253 67 -253 186c0 87 75 151 164 176c-68 31 -124 85 -124 175c0 110 91 183 210 183c116 0 206 -65 206 -164s-78 -142 -142 -161zM173 548c0 -68 41 -103 106 -129l65 -27c45 29 83 76 83 152
c0 75 -51 126 -127 126s-127 -48 -127 -122zM337 302l-104 41c-55 -32 -98 -84 -98 -160c0 -96 71 -153 168 -153c84 0 157 49 157 133c0 68 -50 110 -123 139z" />
    <glyph glyph-name="nine" unicode="9" horiz-adv-x="589" 
d="M430 487c0 111 -54 183 -143 183c-90 0 -144 -72 -144 -183c0 -110 54 -182 144 -182c89 0 143 72 143 182zM253 29c135 0 196 147 196 355c-20 -67 -88 -123 -179 -123c-125 0 -221 79 -221 221c0 134 102 228 237 228c171 0 253 -147 253 -335
c0 -213 -98 -385 -286 -385c-116 0 -192 56 -192 133c0 52 36 76 77 76c10 0 20 -3 27 -7c-13 -14 -20 -38 -21 -63c-2 -55 37 -100 109 -100z" />
    <glyph glyph-name="colon" unicode=":" horiz-adv-x="256" 
d="M196 375c0 -38 -31 -68 -68 -68c-38 0 -68 30 -68 68c0 39 30 68 68 68c37 0 68 -29 68 -68zM196 59c0 -38 -31 -68 -68 -68c-38 0 -68 30 -68 68c0 39 30 68 68 68c37 0 68 -29 68 -68z" />
    <glyph glyph-name="semicolon" unicode=";" horiz-adv-x="255" 
d="M196 375c0 -38 -31 -68 -68 -68c-38 0 -68 30 -68 68c0 39 30 68 68 68c37 0 68 -29 68 -68zM152 13c-10 -7 -22 -10 -38 -10c-31 0 -55 25 -55 56c0 36 26 61 63 61c50 0 82 -38 82 -102c0 -89 -60 -163 -164 -167v29c76 14 117 61 112 133z" />
    <glyph glyph-name="less" unicode="&#x3c;" horiz-adv-x="473" 
d="M67 311v56l347 194v-56l-301 -167l301 -165v-57z" />
    <glyph glyph-name="equal" unicode="=" horiz-adv-x="624" 
d="M84 382v47h456v-47h-456zM84 249v47h456v-47h-456z" />
    <glyph glyph-name="greater" unicode="&#x3e;" horiz-adv-x="473" 
d="M406 367v-56l-348 -195v57l302 165l-302 167v56z" />
    <glyph glyph-name="question" unicode="?" horiz-adv-x="499" 
d="M247 671c-78 0 -120 -50 -120 -114c0 -27 11 -53 25 -68c-7 -4 -20 -8 -31 -8c-46 0 -78 28 -78 84c0 74 81 145 205 145c130 0 207 -82 207 -182c0 -117 -92 -191 -206 -224v-103h-38v181c93 19 166 71 166 163c0 69 -44 126 -130 126zM298 59c0 -38 -30 -68 -67 -68
c-38 0 -68 30 -68 68c0 39 30 68 68 68c37 0 67 -29 67 -68z" />
    <glyph glyph-name="at" unicode="@" horiz-adv-x="968" 
d="M710 433l-68 -277c-15 -62 12 -90 60 -90c68 0 154 67 154 236c0 200 -158 306 -345 306c-203 0 -378 -168 -378 -400c0 -219 156 -363 372 -363c125 0 223 26 316 101l13 -22c-81 -84 -203 -118 -329 -118c-251 0 -437 155 -437 403c0 257 201 439 443 439
c208 0 393 -125 393 -346c0 -200 -119 -281 -214 -281c-71 0 -125 36 -125 105c-28 -59 -82 -105 -149 -105c-78 0 -136 56 -136 149c0 140 101 263 228 263c65 0 104 -36 113 -78c18 30 60 67 80 78h9zM572 213l12 51c21 87 -14 126 -66 126c-81 0 -151 -106 -151 -220
c0 -63 30 -100 73 -100c62 0 111 58 132 143z" />
    <glyph glyph-name="A" unicode="A" horiz-adv-x="760" 
d="M355 565l-134 -293h270zM196 8v-8h-188v8c44 31 61 46 89 106l280 598h5l280 -598c29 -60 41 -75 85 -106v-8h-218v8c42 18 55 30 55 51c0 13 -4 23 -14 43l-60 129h-308l-58 -128c-9 -19 -12 -30 -12 -42c0 -21 20 -32 64 -53z" />
    <glyph glyph-name="B" unicode="B" horiz-adv-x="661" 
d="M364 0h-316v8c47 26 62 38 62 104v476c0 66 -15 78 -62 104v8h292c144 0 251 -48 251 -177c0 -93 -81 -156 -177 -161v-2c113 -4 206 -58 206 -171c0 -132 -104 -189 -256 -189zM201 661v-283h125c94 0 170 34 170 143c0 97 -66 140 -168 140h-127zM335 340h-134v-301
h148c104 0 176 44 176 151c0 106 -73 150 -190 150z" />
    <glyph glyph-name="C" unicode="C" horiz-adv-x="714" 
d="M405 666c-151 0 -255 -127 -255 -311c0 -195 122 -305 264 -305c105 0 182 44 236 159l17 -7c-32 -128 -131 -212 -276 -212c-203 0 -344 148 -344 360c0 210 152 360 353 360c79 0 138 -25 178 -55l51 55h8v-211h-9c-54 94 -117 167 -223 167z" />
    <glyph glyph-name="D" unicode="D" horiz-adv-x="757" 
d="M47 0v8c47 26 63 38 63 104v476c0 66 -16 78 -63 104v8h273c243 0 390 -135 390 -349c0 -218 -149 -351 -385 -351h-278zM609 351c0 188 -103 309 -296 309h-112v-620h115c190 0 293 117 293 311z" />
    <glyph glyph-name="E" unicode="E" horiz-adv-x="658" 
d="M483 475v-231h-9c-34 88 -48 96 -129 96h-144v-301h198c110 0 148 35 213 132h8l-32 -171h-541v8c47 26 63 38 63 104v476c0 66 -16 78 -63 104v8h449c30 0 45 3 60 6l34 -159h-8c-65 76 -92 114 -206 114h-175v-282h144c81 0 95 9 129 96h9z" />
    <glyph glyph-name="F" unicode="F" horiz-adv-x="621" 
d="M289 0h-242v8c47 26 63 38 63 104v476c0 66 -16 78 -63 104v8h449c30 0 45 3 60 6l34 -159h-8c-65 76 -92 114 -206 114h-175v-295h144c81 0 95 8 129 96h9v-231h-9c-34 87 -48 96 -129 96h-144v-215c0 -65 27 -78 88 -104v-8z" />
    <glyph glyph-name="G" unicode="G" horiz-adv-x="779" 
d="M600 128v94c0 66 -17 77 -64 104v8h219v-8c-48 -27 -65 -38 -65 -104v-231h-23l-53 100c-39 -59 -119 -101 -217 -101c-202 0 -350 145 -350 356c0 213 154 364 365 364c81 0 144 -25 185 -55l54 55h7v-209h-8c-57 94 -123 166 -233 166c-158 0 -266 -129 -266 -318
c0 -186 109 -306 270 -306c73 0 135 25 179 85z" />
    <glyph glyph-name="H" unicode="H" horiz-adv-x="822" 
d="M47 0v8c47 26 63 38 63 104v476c0 66 -16 78 -63 104v8h218v-8c-47 -26 -64 -38 -64 -104v-208h419v208c0 66 -16 78 -63 104v8h218v-8c-47 -26 -64 -38 -64 -104v-476c0 -66 17 -78 64 -104v-8h-218v8c47 26 63 38 63 104v227h-419v-227c0 -66 17 -78 64 -104v-8h-218z
" />
    <glyph glyph-name="I" unicode="I" horiz-adv-x="312" 
d="M110 588c0 66 -16 78 -63 104v8h218v-8c-47 -26 -64 -38 -64 -104v-476c0 -66 17 -78 64 -104v-8h-218v8c47 26 63 38 63 104v476z" />
    <glyph glyph-name="J" unicode="J" horiz-adv-x="576" 
d="M388 216v372c0 66 -17 78 -64 104v8h218v-8c-47 -26 -63 -38 -63 -104v-377c0 -140 -98 -221 -230 -221c-129 0 -221 77 -221 176c0 60 42 99 94 99c21 0 38 -6 49 -16c-29 -19 -50 -46 -50 -97c0 -72 52 -123 128 -123c99 0 139 74 139 187z" />
    <glyph glyph-name="K" unicode="K" horiz-adv-x="733" 
d="M265 0h-218v8c47 26 63 38 63 104v476c0 66 -16 78 -63 104v8h218v-8c-47 -26 -64 -38 -64 -104v-259l305 284c14 14 20 25 20 37c0 16 -18 27 -43 42v8h207v-8c-66 -31 -106 -60 -153 -104l-192 -178l252 -298c43 -50 82 -85 125 -104v-8h-222v8c17 10 31 18 31 33
c0 14 -7 23 -24 45l-227 266l-79 -71v-169c0 -66 17 -78 64 -104v-8z" />
    <glyph glyph-name="L" unicode="L" horiz-adv-x="630" 
d="M201 588v-549h173c110 0 146 38 220 155h8l-37 -194h-518v8c47 26 63 38 63 104v476c0 66 -16 78 -63 104v8h218v-8c-47 -26 -64 -38 -64 -104z" />
    <glyph glyph-name="M" unicode="M" horiz-adv-x="921" 
d="M471 153l230 547h173v-8c-47 -26 -63 -38 -63 -104v-476c0 -66 16 -78 63 -104v-8h-217v8c47 26 63 38 63 104v524l-277 -647h-4l-280 647v-523c0 -66 27 -79 75 -105v-8h-198v8c47 26 74 39 74 105v475c0 66 -16 78 -63 104v8h187z" />
    <glyph glyph-name="N" unicode="N" horiz-adv-x="780" 
d="M626 182v405c0 66 -28 79 -75 105v8h198v-8c-47 -26 -74 -39 -74 -105v-595h-14l-502 625v-504c0 -66 28 -79 75 -105v-8h-198v8c47 26 74 39 74 105v475c0 66 -16 78 -63 104v8h165z" />
    <glyph glyph-name="O" unicode="O" horiz-adv-x="788" 
d="M47 350c0 210 147 360 347 360s347 -150 347 -360s-147 -360 -347 -360s-347 150 -347 360zM638 350c0 189 -92 315 -244 315s-244 -126 -244 -315s92 -315 244 -315s244 126 244 315z" />
    <glyph glyph-name="P" unicode="P" horiz-adv-x="644" 
d="M350 293h-149v-181c0 -65 27 -78 88 -104v-8h-242v8c47 26 63 38 63 104v476c0 66 -16 78 -63 104v8h303c163 0 265 -66 265 -204c0 -137 -105 -203 -265 -203zM201 332h132c123 0 186 51 186 164c0 114 -63 165 -186 165h-132v-329z" />
    <glyph glyph-name="Q" unicode="Q" horiz-adv-x="788" 
d="M638 -120c-70 0 -109 59 -140 125c-32 -10 -67 -15 -104 -15c-200 0 -347 150 -347 360s147 360 347 360s347 -150 347 -360c0 -143 -68 -258 -174 -317c26 -51 54 -91 102 -91c28 0 52 11 70 47h12c-11 -75 -57 -109 -113 -109zM150 350c0 -118 36 -211 100 -265
c7 77 52 146 138 146c80 0 118 -72 153 -144c62 54 97 146 97 263c0 189 -92 315 -244 315s-244 -126 -244 -315zM394 35c30 0 58 5 84 15c-31 70 -60 135 -116 135c-49 0 -84 -51 -84 -120c33 -19 72 -30 116 -30z" />
    <glyph glyph-name="R" unicode="R" horiz-adv-x="721" 
d="M201 661v-302h147c96 0 178 36 178 155c0 105 -73 147 -178 147h-147zM201 319v-207c0 -66 17 -78 64 -104v-8h-218v8c47 26 63 38 63 104v476c0 66 -16 78 -63 104v8h317c144 0 261 -49 261 -185c0 -125 -103 -175 -207 -176v-3c89 -10 132 -54 156 -127l29 -84
c24 -71 55 -93 114 -117v-8h-159c-20 40 -27 60 -44 108l-33 96c-27 77 -54 115 -149 115h-131z" />
    <glyph glyph-name="S" unicode="S" horiz-adv-x="603" 
d="M291 669c-79 0 -141 -45 -141 -120c0 -76 49 -112 135 -134l86 -23c109 -30 173 -81 173 -198c0 -135 -115 -204 -243 -204c-79 0 -150 32 -184 57l-45 -57h-9l-12 221h13c59 -116 131 -177 237 -177c99 0 159 52 159 141c0 68 -42 110 -118 130l-92 25
c-116 31 -184 83 -184 192c0 113 92 188 225 188c74 0 131 -28 166 -46l44 46h8l1 -200h-10c-59 100 -107 159 -209 159z" />
    <glyph glyph-name="T" unicode="T" horiz-adv-x="733" 
d="M122 700h489c30 0 45 3 60 6l33 -188h-9c-58 87 -91 145 -184 145h-99v-550c0 -66 18 -79 73 -105v-8h-236v8c55 26 72 39 72 105v550h-98c-94 0 -127 -58 -185 -145h-9l33 188c15 -3 30 -6 60 -6z" />
    <glyph glyph-name="U" unicode="U" horiz-adv-x="759" 
d="M612 587c0 66 -28 79 -76 105v8h199v-8c-47 -26 -73 -39 -73 -105v-319c0 -183 -116 -278 -275 -278c-198 0 -290 109 -290 278v320c0 66 -17 78 -64 104v8h219v-8c-47 -26 -64 -38 -64 -104v-308c0 -158 77 -237 205 -237c131 0 219 70 219 236v308z" />
    <glyph glyph-name="V" unicode="V" horiz-adv-x="744" 
d="M394 138l203 458c9 20 11 25 11 38c0 21 -20 34 -64 58v8h188v-8c-44 -31 -58 -46 -86 -106l-272 -596h-5l-272 596c-27 60 -41 75 -85 106v8h218v-8c-41 -18 -54 -30 -54 -51c0 -13 5 -23 13 -43z" />
    <glyph glyph-name="W" unicode="W" horiz-adv-x="996" 
d="M685 -10l-189 547l-181 -547h-9l-211 596c-22 60 -40 75 -83 106v8h213v-8c-40 -18 -54 -30 -54 -51c0 -13 5 -26 11 -45l150 -429l140 438c-17 43 -34 60 -72 87v8h212v-8c-40 -18 -57 -30 -57 -51c0 -13 4 -27 10 -45l144 -435l144 433c6 18 8 27 8 39
c0 22 -22 35 -64 59v8h189v-8c-44 -31 -66 -48 -86 -106l-206 -596h-9z" />
    <glyph glyph-name="X" unicode="X" horiz-adv-x="734" 
d="M192 8v-8h-181v8c49 29 76 57 115 106l192 246l-175 228c-36 48 -62 75 -109 104v8h214v-8c-23 -16 -28 -27 -28 -44c0 -16 8 -31 22 -50l135 -176l134 175c15 19 21 32 21 48c0 17 -13 27 -38 47v8h177v-8c-47 -29 -76 -58 -111 -104l-157 -201l211 -275
c36 -48 62 -75 109 -104v-8h-214v8c23 16 28 27 28 44c0 16 -8 31 -22 50l-171 223l-169 -220c-16 -21 -21 -32 -21 -47c0 -17 12 -30 38 -50z" />
    <glyph glyph-name="Y" unicode="Y" horiz-adv-x="676" 
d="M362 341l163 260c11 16 14 31 14 39c0 19 -19 32 -51 52v8h176v-8c-40 -30 -60 -52 -93 -104l-188 -296v-180c0 -66 17 -78 72 -104v-8h-234v8c55 26 72 38 72 104v180l-188 296c-33 52 -52 74 -93 104v8h204v-8c-26 -16 -33 -28 -33 -46c0 -15 4 -29 15 -45z" />
    <glyph glyph-name="Z" unicode="Z" horiz-adv-x="698" 
d="M619 0h-573v4l461 656h-228c-112 0 -137 -46 -196 -136h-11l24 182c15 -3 30 -6 60 -6h481v-4l-459 -656h247c110 0 146 36 216 138h10z" />
    <glyph glyph-name="bracketleft" unicode="[" horiz-adv-x="325" 
d="M82 -154v903h207v-15l-136 -29v-814l136 -30v-15h-207z" />
    <glyph glyph-name="backslash" unicode="\" horiz-adv-x="396" 
d="M84 749l300 -902h-46l-300 902h46z" />
    <glyph glyph-name="bracketright" unicode="]" horiz-adv-x="325" 
d="M243 749v-903h-207v15l136 30v814l-136 29v15h207z" />
    <glyph glyph-name="asciicircum" unicode="^" horiz-adv-x="510" 
d="M253 710h4l203 -358h-54l-151 268l-151 -268h-54z" />
    <glyph glyph-name="underscore" unicode="_" horiz-adv-x="480" 
d="M50 -117v45h380v-45h-380z" />
    <glyph glyph-name="quoteleft" unicode="&#x2018;" horiz-adv-x="255" 
d="M101 568c10 8 23 13 41 13c31 0 55 -25 55 -56c0 -36 -26 -61 -63 -61c-50 0 -84 36 -84 97c0 89 63 158 170 165v-26c-76 -14 -123 -64 -119 -132z" />
    <glyph glyph-name="a" unicode="a" horiz-adv-x="542" 
d="M360 255l-73 -15c-97 -19 -150 -46 -150 -116c0 -55 34 -82 88 -82c63 0 135 54 135 161v52zM545 23v-13c-22 -8 -55 -17 -89 -17c-61 0 -91 33 -94 106c-22 -63 -91 -109 -173 -109c-80 0 -144 42 -144 124c0 107 114 139 235 161l80 14v38c0 93 -32 130 -110 130
c-59 0 -95 -29 -95 -77c0 -22 7 -36 18 -49c-10 -9 -31 -15 -49 -15c-33 0 -56 20 -56 58c0 64 73 122 194 122c126 0 188 -57 188 -166c0 -89 -3 -163 -3 -224c0 -57 30 -78 98 -83z" />
    <glyph glyph-name="b" unicode="b" horiz-adv-x="616" 
d="M179 261v-66c0 -106 79 -155 146 -155c92 0 155 77 155 211c0 115 -58 191 -152 191c-90 0 -149 -85 -149 -181zM166 90c-11 -44 -41 -80 -76 -100h-12c13 59 13 134 13 222v433c0 55 -29 73 -68 97v7h156v-383c23 72 87 130 180 130c122 0 216 -89 216 -245
c0 -160 -105 -261 -230 -261c-90 0 -154 48 -179 100z" />
    <glyph glyph-name="c" unicode="c" horiz-adv-x="509" 
d="M288 456c-96 0 -152 -92 -152 -206c0 -128 63 -205 162 -205c70 0 127 36 156 113l19 -8c-22 -100 -92 -160 -201 -160c-129 0 -231 89 -231 246c0 158 109 260 246 260c101 0 176 -51 176 -122c0 -47 -35 -62 -65 -62c-9 0 -21 2 -26 7c5 13 10 21 10 43
c0 52 -29 94 -94 94z" />
    <glyph glyph-name="d" unicode="d" horiz-adv-x="618" 
d="M437 225v66c0 107 -79 156 -147 156c-92 0 -154 -78 -154 -210c0 -117 57 -193 152 -193c90 0 149 85 149 181zM440 0l-3 120c-23 -71 -87 -130 -180 -130c-123 0 -216 89 -216 247s105 259 226 259c91 0 146 -45 170 -97v246c0 55 -30 73 -68 97v7h156v-640
c0 -66 13 -75 56 -102v-7h-141z" />
    <glyph glyph-name="e" unicode="e" horiz-adv-x="530" 
d="M274 496c137 0 216 -90 216 -244h-355c0 -129 63 -208 169 -208c76 0 131 36 160 114l21 -7c-23 -102 -95 -161 -207 -161c-131 0 -237 89 -237 247s104 259 233 259zM137 290h259c-2 85 -28 166 -123 166c-79 0 -127 -67 -136 -166z" />
    <glyph glyph-name="f" unicode="f" horiz-adv-x="358" 
d="M189 443v-341c0 -58 26 -70 100 -93v-9h-244v7c43 27 57 36 57 102v334h-70v27l70 20v70c0 120 76 193 191 193c80 0 142 -39 142 -94c0 -38 -28 -57 -63 -57c-10 0 -20 2 -27 4c7 13 10 32 10 48c0 35 -23 64 -70 64c-59 0 -96 -49 -96 -134v-100h145l-5 -41h-140z" />
    <glyph glyph-name="g" unicode="g" horiz-adv-x="572" 
d="M364 335c0 82 -38 124 -100 124s-100 -42 -100 -124s38 -124 100 -124s100 42 100 124zM528 -49c0 -118 -127 -176 -267 -176c-124 0 -239 40 -239 134c0 55 50 94 134 106c-53 10 -97 34 -97 90c0 49 38 84 83 101c-45 29 -69 76 -69 129c0 89 67 161 191 161
c59 0 106 -16 138 -43c26 35 62 70 105 70c37 0 62 -23 62 -58c0 -31 -26 -54 -56 -54c0 27 -12 49 -40 49c-18 0 -35 -10 -51 -28c23 -27 34 -60 34 -97c0 -89 -68 -161 -192 -161c-39 0 -73 7 -100 20c-24 -12 -43 -30 -43 -54c0 -37 26 -50 79 -50h139
c118 0 189 -46 189 -139zM334 8h-105c-84 -3 -126 -35 -126 -93c0 -70 72 -100 158 -100c109 0 189 40 189 112c0 50 -33 81 -116 81z" />
    <glyph glyph-name="h" unicode="h" horiz-adv-x="608" 
d="M516 322v-213c0 -66 14 -75 57 -102v-7h-201v7c43 27 57 36 57 102v198c0 66 -26 127 -105 127c-75 0 -140 -63 -140 -178v-147c0 -66 14 -75 57 -102v-7h-201v7c43 27 57 36 57 102v536c0 55 -30 73 -68 97v7h155v-384c29 84 92 131 176 131c102 0 156 -67 156 -174z
" />
    <glyph glyph-name="i" unicode="i" horiz-adv-x="281" 
d="M77 656c0 35 27 63 63 63c35 0 63 -28 63 -63c0 -34 -28 -62 -63 -62c-36 0 -63 28 -63 62zM189 486v-377c0 -66 14 -75 57 -102v-7h-201v7c43 27 57 36 57 102v274c0 54 -29 73 -67 97v6h154z" />
    <glyph glyph-name="j" unicode="j" horiz-adv-x="269" 
d="M72 656c0 35 27 63 62 63c36 0 63 -28 63 -63c0 -34 -27 -62 -63 -62c-35 0 -62 28 -62 62zM97 -60v443c0 54 -29 73 -68 97v6h155v-520c0 -120 -60 -191 -168 -191c-77 0 -130 35 -130 88c0 39 29 57 65 57c9 0 19 -2 25 -4c-6 -13 -9 -30 -9 -46c0 -34 22 -61 57 -61
c54 0 73 53 73 131z" />
    <glyph glyph-name="k" unicode="k" horiz-adv-x="581" 
d="M241 7v-7h-201v7c43 27 57 36 57 102v536c0 55 -30 73 -68 97v7h155v-463h24c26 0 39 4 53 18l118 110c14 13 19 20 19 30c0 13 -11 23 -30 36v6h190v-6c-51 -17 -90 -37 -138 -81l-111 -105l160 -203c34 -43 70 -62 117 -83v-8h-172c-6 26 -15 43 -36 70l-124 159
c-12 16 -21 21 -38 21h-32v-141c0 -66 14 -75 57 -102z" />
    <glyph glyph-name="l" unicode="l" horiz-adv-x="278" 
d="M184 749v-640c0 -66 14 -75 57 -102v-7h-201v7c43 27 57 36 57 102v536c0 55 -30 73 -68 97v7h155z" />
    <glyph glyph-name="m" unicode="m" horiz-adv-x="904" 
d="M499 362c26 84 88 134 169 134c95 0 145 -67 145 -173v-214c0 -66 13 -75 56 -102v-7h-201v7c43 27 57 36 57 102v197c0 66 -20 129 -93 129c-71 0 -131 -64 -131 -179v-147c0 -66 14 -75 57 -102v-7h-201v7c43 27 56 36 56 102v197c0 66 -19 129 -93 129
c-70 0 -131 -64 -131 -179v-147c0 -66 14 -75 57 -102v-7h-201v7c43 27 57 36 57 102v274c0 54 -29 73 -67 97v6h150l4 -121c29 83 86 131 167 131c86 0 133 -50 143 -134z" />
    <glyph glyph-name="n" unicode="n" horiz-adv-x="613" 
d="M521 322v-213c0 -66 14 -75 57 -102v-7h-201v7c43 27 57 36 57 102v198c0 66 -26 127 -105 127c-75 0 -140 -63 -140 -178v-147c0 -66 14 -75 57 -102v-7h-201v7c43 27 57 36 57 102v274c0 54 -29 73 -67 97v6h150l4 -121c29 84 92 131 176 131c102 0 156 -67 156 -174z
" />
    <glyph glyph-name="o" unicode="o" horiz-adv-x="570" 
d="M529 243c0 -148 -104 -253 -244 -253s-244 105 -244 253s104 253 244 253s244 -105 244 -253zM432 243c0 131 -50 212 -147 212s-147 -81 -147 -212s50 -212 147 -212s147 81 147 212z" />
    <glyph glyph-name="p" unicode="p" horiz-adv-x="621" 
d="M184 261v-66c0 -106 80 -155 147 -155c92 0 154 77 154 211c0 115 -57 191 -152 191c-90 0 -149 -85 -149 -181zM184 87v-193c0 -66 23 -75 77 -101v-8h-221v7c43 27 57 36 57 102v489c0 54 -29 73 -67 97v6h150l4 -120c23 72 88 130 181 130c122 0 216 -89 216 -245
c0 -160 -106 -261 -227 -261c-91 0 -145 45 -170 97z" />
    <glyph glyph-name="q" unicode="q" horiz-adv-x="609" 
d="M449 396c11 44 42 80 77 100h12c-13 -59 -13 -134 -13 -222v-380c0 -66 13 -75 56 -102v-7h-221v9c54 28 77 34 77 100v226c-23 -71 -87 -130 -180 -130c-123 0 -216 89 -216 247s105 259 229 259c90 0 155 -48 179 -100zM437 225v66c0 107 -79 156 -147 156
c-92 0 -154 -78 -154 -210c0 -117 57 -193 152 -193c90 0 149 85 149 181z" />
    <glyph glyph-name="r" unicode="r" horiz-adv-x="450" 
d="M189 227v-125c0 -58 23 -70 97 -93v-9h-241v7c43 27 57 36 57 102v274c0 54 -29 73 -67 97v6h150l4 -139c26 78 74 149 159 149c52 0 82 -29 82 -72c0 -41 -31 -65 -63 -65c2 39 -15 64 -55 64c-68 0 -123 -89 -123 -196z" />
    <glyph glyph-name="s" unicode="s" horiz-adv-x="489" 
d="M231 455c-59 0 -93 -30 -93 -74c0 -48 34 -71 120 -88c130 -25 179 -68 179 -150c0 -93 -79 -153 -185 -153c-63 0 -114 23 -147 43l-35 -43h-8l-11 185h14c51 -94 111 -143 187 -143c61 0 108 28 108 87c0 56 -45 74 -129 90c-124 25 -167 67 -167 146
c0 83 71 141 166 141c59 0 101 -19 135 -40l38 40h7v-165h-11c-44 70 -96 124 -168 124z" />
    <glyph glyph-name="t" unicode="t" horiz-adv-x="415" 
d="M22 443v26c84 17 123 82 139 181h28v-166h173l-5 -41h-168v-306c0 -58 28 -89 78 -89c53 0 86 34 100 107l20 -4c-7 -94 -58 -161 -148 -161c-83 0 -139 49 -139 136l1 317h-79z" />
    <glyph glyph-name="u" unicode="u" horiz-adv-x="598" 
d="M179 486v-306c0 -66 26 -129 104 -129c76 0 137 65 137 179v153c0 54 -29 73 -68 97v6h155v-377c0 -66 14 -75 57 -102v-7h-144v123c-28 -86 -88 -133 -173 -133c-100 0 -155 66 -155 173v220c0 54 -29 73 -67 97v6h154z" />
    <glyph glyph-name="v" unicode="v" horiz-adv-x="521" 
d="M284 125l114 251c14 29 16 40 16 53c0 20 -24 34 -52 51v6h162v-6c-32 -26 -53 -52 -82 -112l-179 -378h-5l-179 378c-29 60 -50 86 -82 112v6h185v-6c-25 -17 -36 -24 -36 -41c0 -14 7 -32 20 -61z" />
    <glyph glyph-name="w" unicode="w" horiz-adv-x="729" 
d="M495 -10l-131 366l-138 -366h-5l-146 378c-26 67 -43 83 -78 112v6h181v-6c-25 -17 -33 -25 -33 -40c0 -17 6 -33 16 -62l88 -234l95 268c-14 31 -29 48 -60 68v6h176v-6c-25 -16 -33 -26 -33 -40c0 -17 6 -33 16 -62l79 -237l91 234c10 28 14 37 14 50
c0 19 -18 33 -56 55v6h161v-6c-34 -28 -50 -45 -77 -112l-155 -378h-5z" />
    <glyph glyph-name="x" unicode="x" horiz-adv-x="531" 
d="M166 7v-7h-166v7c53 22 89 59 129 111l95 124l-87 124c-48 71 -71 87 -121 114v6h197v-6c-15 -12 -22 -21 -22 -32c0 -16 13 -33 38 -70l56 -79l58 79c24 32 35 45 35 63c0 16 -15 26 -30 39v6h165v-6c-53 -22 -89 -59 -129 -112l-78 -100l104 -148
c43 -61 65 -90 121 -113v-7h-197v7c15 11 22 19 22 31c0 17 -13 34 -38 70l-72 103l-75 -102c-24 -34 -32 -45 -32 -62c0 -14 10 -25 27 -40z" />
    <glyph glyph-name="y" unicode="y" horiz-adv-x="517" 
d="M242 -2l-163 370c-27 61 -50 84 -82 112v6h186v-6c-25 -17 -36 -26 -36 -41c0 -17 7 -31 20 -61l118 -280l111 276c11 27 15 40 15 55c0 18 -20 32 -53 51v6h162v-6c-32 -28 -53 -51 -79 -112l-194 -457c-33 -80 -62 -136 -138 -136c-47 0 -81 30 -81 72
c0 33 28 60 61 65c-2 -6 -4 -18 -4 -24c0 -26 17 -47 44 -47c36 0 57 31 81 86z" />
    <glyph glyph-name="z" unicode="z" horiz-adv-x="521" 
d="M40 5l307 443h-124c-74 0 -94 -24 -150 -122h-10l15 170c16 -7 36 -10 71 -10h320v-4l-305 -444h144c72 0 98 24 159 126h12l-29 -164h-410v5z" />
    <glyph glyph-name="braceleft" unicode="{" horiz-adv-x="383" 
d="M28 288v17c65 2 124 32 124 139c0 43 -18 103 -18 155c0 84 71 150 176 150c14 0 30 -1 46 -4v-9c-80 0 -147 -47 -147 -142c0 -34 19 -111 19 -156c0 -101 -89 -137 -132 -142c43 -5 132 -40 132 -142c0 -44 -19 -121 -19 -155c0 -95 67 -143 147 -143v-9
c-16 -3 -32 -4 -46 -4c-105 0 -176 66 -176 151c0 52 18 111 18 154c0 107 -59 138 -124 140z" />
    <glyph glyph-name="bar" unicode="|" horiz-adv-x="222" 
d="M90 -153v902h42v-902h-42z" />
    <glyph glyph-name="braceright" unicode="}" horiz-adv-x="375" 
d="M347 305v-17c-65 -2 -124 -33 -124 -140c0 -43 18 -102 18 -154c0 -85 -71 -151 -176 -151c-14 0 -30 1 -46 4v9c80 0 147 48 147 143c0 34 -19 111 -19 155c0 102 89 137 132 142c-43 5 -132 41 -132 142c0 45 19 122 19 156c0 95 -67 142 -147 142v9c16 3 32 4 46 4
c105 0 176 -66 176 -150c0 -52 -18 -112 -18 -155c0 -107 59 -137 124 -139z" />
    <glyph glyph-name="asciitilde" unicode="~" horiz-adv-x="498" 
d="M63 246h-13c23 81 68 121 123 121c62 0 112 -51 172 -51c41 0 69 19 90 56h13c-23 -81 -68 -121 -122 -121c-63 0 -112 51 -172 51c-42 0 -70 -19 -91 -56z" />
    <glyph glyph-name="exclamdown" unicode="&#xa1;" horiz-adv-x="269" 
d="M135 560c37 0 67 -30 67 -68c0 -39 -30 -68 -67 -68c-38 0 -68 29 -68 68c0 38 30 68 68 68zM197 -149h-125l56 496h13z" />
    <glyph glyph-name="cent" unicode="&#xa2;" horiz-adv-x="549" 
d="M145 262c0 -112 45 -186 120 -209l35 429c-103 -5 -155 -100 -155 -220zM292 -10h-1l-9 -104h-31l9 106c-119 14 -211 105 -211 257c0 167 112 272 254 272l8 95h31l-8 -96c92 -8 158 -53 158 -121c0 -49 -34 -64 -64 -64c-9 0 -20 2 -27 7c9 13 13 22 13 44
c0 49 -28 86 -83 94l-36 -434c8 -1 15 -1 23 -1c82 0 135 41 165 123l20 -8c-24 -109 -97 -170 -211 -170z" />
    <glyph glyph-name="sterling" unicode="&#xa3;" horiz-adv-x="653" 
d="M475 -25c-98 0 -169 60 -239 104c-38 -61 -88 -89 -135 -89c-53 0 -90 34 -90 82c0 53 43 88 101 88c31 0 62 -9 94 -22c7 27 11 58 11 93c0 29 -2 62 -5 96h-115v37h112c-3 40 -6 81 -6 119c0 137 82 227 217 227c116 0 175 -58 175 -124c0 -56 -36 -85 -78 -85
c-11 0 -22 2 -34 7c14 13 28 31 28 75c0 52 -27 89 -91 89c-79 0 -118 -66 -118 -164v-129v-15h161v-37h-162c-5 -88 -21 -158 -45 -210c62 -27 131 -58 216 -58c58 0 104 27 114 102c17 -13 30 -32 30 -64c0 -77 -62 -122 -141 -122zM101 27c36 0 71 25 93 75
c-26 12 -53 20 -82 20c-35 0 -57 -18 -57 -50c0 -30 19 -45 46 -45z" />
    <glyph glyph-name="fraction" unicode="&#x2044;" horiz-adv-x="183" 
d="M-104 -10h-47l438 720h47z" />
    <glyph glyph-name="yen" unicode="&#xa5;" horiz-adv-x="667" 
d="M450 8v-8h-233v8c55 26 72 38 72 104v105h-202v35h202v40l-32 53h-170v36h149l-123 207c-29 50 -53 74 -93 104v8h204v-8c-27 -16 -34 -28 -34 -46c0 -15 6 -29 15 -45l153 -260l150 260c9 15 15 30 15 45c0 18 -7 30 -33 46v8h157v-8c-41 -30 -61 -51 -93 -104
l-123 -207h149v-36h-170l-32 -53v-40h202v-35h-202v-105c0 -66 17 -78 72 -104z" />
    <glyph glyph-name="uni0192" unicode="&#x192;" horiz-adv-x="528" 
d="M53 -188c-74 0 -119 34 -119 81c0 45 39 68 75 68c12 0 20 -3 26 -4c-15 -16 -24 -38 -24 -62c0 -31 14 -49 49 -49c47 0 66 41 74 107l54 407h-103l5 34h103l18 139c15 112 76 177 173 177c74 0 119 -34 119 -81c0 -46 -38 -68 -75 -68c-12 0 -20 2 -26 4
c15 16 24 37 24 61c0 32 -14 50 -49 50c-47 0 -66 -41 -74 -108l-23 -174h124l-5 -34h-124l-48 -360c-16 -123 -76 -188 -174 -188z" />
    <glyph glyph-name="section" unicode="&#xa7;" horiz-adv-x="552" 
d="M414 45c14 17 24 40 24 71c0 44 -17 78 -61 114l-171 138c-30 25 -50 44 -68 72c-15 -17 -24 -40 -24 -71c0 -44 16 -78 61 -114l171 -138c30 -25 50 -44 68 -72zM427 29c13 -26 20 -54 20 -87c0 -92 -75 -167 -185 -167c-96 0 -171 58 -171 126c0 46 31 71 67 71
c17 0 30 -3 41 -7c-13 -12 -31 -26 -31 -64c0 -49 36 -86 95 -86c76 0 116 46 116 110c0 59 -31 87 -83 128l-153 122c-57 45 -79 97 -79 150c0 51 26 99 61 131c-13 26 -20 54 -20 87c0 92 74 167 184 167c96 0 171 -58 171 -126c0 -46 -30 -71 -67 -71c-16 0 -30 3 -41 7
c14 12 31 26 31 64c0 49 -35 86 -95 86c-75 0 -116 -46 -116 -110c0 -59 32 -87 83 -128l154 -122c56 -45 79 -97 79 -150c0 -51 -26 -99 -61 -131z" />
    <glyph glyph-name="quotesingle" unicode="'" horiz-adv-x="238" 
d="M125 429h-12l-47 248c10 19 29 33 53 33c25 0 44 -14 53 -33z" />
    <glyph glyph-name="quotedblleft" unicode="&#x201c;" horiz-adv-x="469" 
d="M311 568c10 8 23 13 41 13c31 0 55 -25 55 -56c0 -36 -26 -61 -63 -61c-50 0 -84 36 -84 97c0 89 63 158 170 165v-26c-76 -14 -123 -64 -119 -132zM97 568c10 8 23 13 41 13c31 0 55 -25 55 -56c0 -36 -26 -61 -63 -61c-50 0 -84 36 -84 97c0 89 63 158 170 165v-26
c-76 -14 -123 -64 -119 -132z" />
    <glyph glyph-name="guillemotleft" unicode="&#xab;" horiz-adv-x="622" 
d="M304 240v8c92 51 177 127 252 207h17c-43 -83 -102 -161 -144 -211c42 -50 101 -128 144 -211h-17c-75 80 -160 156 -252 207zM62 240v8c92 51 177 127 252 207h17c-43 -83 -102 -161 -144 -211c42 -50 101 -128 144 -211h-17c-75 80 -160 156 -252 207z" />
    <glyph glyph-name="guilsinglleft" unicode="&#x2039;" horiz-adv-x="380" 
d="M62 240v8c92 51 177 127 252 207h17c-43 -83 -102 -161 -144 -211c42 -50 101 -128 144 -211h-17c-75 80 -160 156 -252 207z" />
    <glyph glyph-name="guilsinglright" unicode="&#x203a;" horiz-adv-x="380" 
d="M318 248v-8c-92 -51 -177 -127 -252 -207h-17c43 83 102 161 144 211c-42 50 -101 128 -144 211h17c75 -80 160 -156 252 -207z" />
    <glyph glyph-name="endash" unicode="&#x2013;" horiz-adv-x="520" 
d="M50 253v43h420v-43h-420z" />
    <glyph glyph-name="dagger" unicode="&#x2020;" horiz-adv-x="450" 
d="M205 749h40v-143h145v-40h-145v-281h-40v281h-145v40h145v143z" />
    <glyph glyph-name="daggerdbl" unicode="&#x2021;" horiz-adv-x="450" 
d="M205 456v122h-145v40h145v131h40v-131h145v-40h-145v-122h145v-40h-145v-131h-40v131h-145v40h145z" />
    <glyph glyph-name="periodcentered" unicode="&#xb7;" horiz-adv-x="256" 
d="M196 274c0 -38 -31 -68 -68 -68c-38 0 -68 30 -68 68c0 39 30 68 68 68c37 0 68 -29 68 -68z" />
    <glyph glyph-name="paragraph" unicode="&#xb6;" horiz-adv-x="634" 
d="M335 -214v495c-162 0 -303 68 -303 209s141 210 303 210h248v-8c-47 -26 -59 -38 -59 -104v-802h-46v881h-97v-881h-46z" />
    <glyph glyph-name="bullet" unicode="&#x2022;" horiz-adv-x="351" 
d="M48 273c0 70 58 128 128 128s127 -58 127 -128s-57 -128 -127 -128s-128 58 -128 128z" />
    <glyph glyph-name="quotesinglbase" unicode="&#x201a;" horiz-adv-x="255" 
d="M158 13c-10 -8 -23 -13 -41 -13c-31 0 -55 25 -55 56c0 36 26 61 63 61c50 0 84 -36 84 -97c0 -89 -63 -158 -170 -165v26c76 14 123 64 119 132z" />
    <glyph glyph-name="quotedblbase" unicode="&#x201e;" horiz-adv-x="469" 
d="M373 13c-10 -8 -23 -13 -41 -13c-31 0 -55 25 -55 56c0 36 26 61 63 61c50 0 84 -36 84 -97c0 -89 -63 -158 -170 -165v26c76 14 123 64 119 132zM158 13c-10 -8 -23 -13 -41 -13c-31 0 -55 25 -55 56c0 36 26 61 63 61c50 0 84 -36 84 -97c0 -89 -63 -158 -170 -165v26
c76 14 123 64 119 132z" />
    <glyph glyph-name="quotedblright" unicode="&#x201d;" horiz-adv-x="469" 
d="M373 617c-10 -8 -23 -13 -41 -13c-31 0 -55 25 -55 56c0 36 26 61 63 61c50 0 84 -36 84 -97c0 -89 -63 -158 -170 -165v26c76 14 123 64 119 132zM158 617c-10 -8 -23 -13 -41 -13c-31 0 -55 25 -55 56c0 36 26 61 63 61c50 0 84 -36 84 -97c0 -89 -63 -158 -170 -165
v26c76 14 123 64 119 132z" />
    <glyph glyph-name="guillemotright" unicode="&#xbb;" horiz-adv-x="622" 
d="M560 248v-8c-92 -51 -177 -127 -252 -207h-17c43 83 102 161 144 211c-42 50 -101 128 -144 211h17c75 -80 160 -156 252 -207zM318 248v-8c-92 -51 -177 -127 -252 -207h-17c43 83 102 161 144 211c-42 50 -101 128 -144 211h17c75 -80 160 -156 252 -207z" />
    <glyph glyph-name="ellipsis" unicode="&#x2026;" horiz-adv-x="727" 
d="M667 59c0 -38 -31 -68 -68 -68s-68 30 -68 68c0 39 31 68 68 68s68 -29 68 -68zM431 59c0 -38 -30 -68 -68 -68c-37 0 -67 30 -67 68c0 39 30 68 67 68c38 0 68 -29 68 -68zM196 59c0 -38 -31 -68 -68 -68c-38 0 -68 30 -68 68c0 39 30 68 68 68c37 0 68 -29 68 -68z" />
    <glyph glyph-name="perthousand" unicode="&#x2030;" horiz-adv-x="1355" 
d="M363 639c28 -27 44 -69 44 -111c0 -111 -83 -182 -184 -182c-100 0 -183 71 -183 182s83 182 183 182c82 0 123 -57 241 -57c68 0 140 17 183 66l22 -9l-375 -710h-36l349 660c-24 -21 -100 -33 -143 -33c-33 0 -73 6 -101 12zM328 528c0 99 -46 148 -105 148
c-58 0 -104 -49 -104 -148c0 -98 46 -148 104 -148c59 0 105 50 105 148zM705 -10c-100 0 -183 71 -183 182s83 182 183 182s183 -71 183 -182s-83 -182 -183 -182zM1132 354c100 0 183 -71 183 -182s-83 -182 -183 -182s-183 71 -183 182s83 182 183 182zM705 24
c58 0 105 49 105 148c0 98 -47 148 -105 148s-104 -49 -104 -148c0 -98 46 -148 104 -148zM1132 320c-58 0 -104 -49 -104 -148c0 -98 46 -148 104 -148s105 49 105 148c0 98 -47 148 -105 148z" />
    <glyph glyph-name="questiondown" unicode="&#xbf;" horiz-adv-x="499" 
d="M201 492c0 38 30 68 67 68c38 0 68 -30 68 -68c0 -39 -30 -68 -68 -68c-37 0 -67 29 -67 68zM252 -120c78 0 120 50 120 114c0 27 -11 53 -25 68c7 4 20 8 31 8c46 0 78 -28 78 -84c0 -74 -81 -145 -205 -145c-130 0 -207 82 -207 182c0 117 92 191 206 224v103h38v-181
c-93 -19 -166 -71 -166 -163c0 -69 44 -126 130 -126z" />
    <glyph glyph-name="grave" unicode="`" horiz-adv-x="500" 
d="M161 749h111l67 -188h-19z" />
    <glyph glyph-name="acute" unicode="&#xb4;" horiz-adv-x="500" 
d="M228 749h111l-159 -188h-19z" />
    <glyph glyph-name="circumflex" unicode="&#x2c6;" horiz-adv-x="500" 
d="M258 756c29 -57 93 -149 148 -204h-28c-51 29 -90 66 -128 103c-38 -37 -77 -74 -128 -103h-28c55 55 119 147 148 204h16z" />
    <glyph glyph-name="tilde" unicode="&#x2dc;" horiz-adv-x="500" 
d="M97 578h-25c25 87 61 136 109 136c53 0 103 -64 146 -64c40 0 57 27 76 68h25c-25 -87 -61 -136 -109 -136c-53 0 -103 64 -146 64c-40 0 -57 -27 -76 -68z" />
    <glyph glyph-name="macron" unicode="&#xaf;" horiz-adv-x="500" 
d="M388 590h-276v55h276v-55z" />
    <glyph glyph-name="breve" unicode="&#x2d8;" horiz-adv-x="500" 
d="M134 742c6 -71 58 -104 116 -104s110 33 116 104h26c-1 -106 -61 -174 -142 -174s-141 68 -142 174h26z" />
    <glyph glyph-name="dotaccent" unicode="&#x2d9;" horiz-adv-x="500" 
d="M250 594c-35 0 -63 28 -63 62c0 35 28 63 63 63s63 -28 63 -63c0 -34 -28 -62 -63 -62z" />
    <glyph glyph-name="dieresis" unicode="&#xa8;" horiz-adv-x="500" 
d="M160 580c-34 0 -59 27 -59 60c0 32 25 59 59 59c33 0 59 -27 59 -59c0 -33 -26 -60 -59 -60zM340 580c-33 0 -60 27 -60 60c0 32 27 59 60 59s59 -27 59 -59c0 -33 -26 -60 -59 -60z" />
    <glyph glyph-name="ring" unicode="&#x2da;" horiz-adv-x="500" 
d="M143 663c0 57 49 105 107 105s107 -48 107 -105c0 -59 -49 -106 -107 -106s-107 47 -107 106zM312 663c0 36 -25 63 -62 63s-62 -27 -62 -63c0 -37 25 -62 62 -62s62 25 62 62z" />
    <glyph glyph-name="cedilla" unicode="&#xb8;" horiz-adv-x="500" 
d="M139 -169l15 20c22 -24 48 -36 79 -36s55 15 55 47c0 37 -33 56 -96 58l47 100h37l-35 -77c70 -2 121 -31 121 -81c0 -53 -51 -84 -114 -84c-51 0 -92 22 -109 53z" />
    <glyph glyph-name="hungarumlaut" unicode="&#x2dd;" horiz-adv-x="500" 
d="M148 749h110l-155 -188h-20zM307 749h110l-156 -188h-19z" />
    <glyph glyph-name="ogonek" unicode="&#x2db;" horiz-adv-x="500" 
d="M138 -150c0 77 82 124 164 170l10 -17c-67 -48 -105 -86 -105 -133c0 -40 25 -57 55 -57c38 0 69 22 96 55l14 -12c-23 -47 -70 -93 -141 -93c-48 0 -93 32 -93 87z" />
    <glyph glyph-name="caron" unicode="&#x2c7;" horiz-adv-x="500" 
d="M406 756c-55 -54 -119 -146 -148 -203h-16c-29 57 -93 149 -148 203h28c51 -29 90 -65 128 -102c38 37 77 73 128 102h28z" />
    <glyph glyph-name="emdash" unicode="&#x2014;" horiz-adv-x="820" 
d="M50 253v43h720v-43h-720z" />
    <glyph glyph-name="AE" unicode="&#xc6;" horiz-adv-x="1088" 
d="M300 304h241v349zM191 8v-8h-179v8c44 31 65 50 102 105l341 496c7 10 9 19 9 28c0 20 -28 36 -62 55v8h524c30 0 45 3 60 6l34 -159h-8c-64 76 -92 114 -206 114h-174v-282h143c81 0 96 9 129 96h9v-231h-9c-33 88 -48 96 -129 96h-143v-301h197c110 0 148 35 213 132h8
l-32 -171h-541v8c47 26 64 38 64 104v151h-269l-110 -159c-14 -19 -24 -36 -24 -49c0 -18 10 -25 53 -47z" />
    <glyph glyph-name="ordfeminine" unicode="&#xaa;" horiz-adv-x="456" 
d="M279 463l-47 -10c-62 -13 -95 -32 -95 -78c0 -37 22 -56 57 -56c42 0 85 36 85 106v38zM281 352c-15 -44 -62 -75 -120 -75c-56 0 -102 29 -102 87c0 76 81 98 165 113l55 10v31c0 60 -19 87 -71 87c-39 0 -62 -19 -62 -52c0 -18 7 -28 15 -36c-7 -8 -26 -13 -41 -13
c-27 0 -45 16 -45 43c0 47 53 86 141 86c94 0 141 -39 141 -117c0 -56 -2 -108 -2 -153c0 -42 21 -57 68 -63v-8c-16 -6 -43 -13 -70 -13c-46 0 -69 21 -72 73zM86 155v38h300v-38h-300z" />
    <glyph glyph-name="Lslash" unicode="&#x141;" horiz-adv-x="631" 
d="M49 0v8c47 26 63 38 63 104v161l-73 -32v43l73 32v272c0 66 -16 78 -63 104v8h218v-8c-47 -26 -64 -38 -64 -104v-232l191 83v-44l-191 -84v-272h173c110 0 146 38 220 155h8l-37 -194h-518z" />
    <glyph glyph-name="Oslash" unicode="&#xd8;" horiz-adv-x="788" 
d="M394 665c-152 0 -244 -126 -244 -315c0 -77 18 -144 49 -195l370 421c-40 57 -99 89 -175 89zM394 35c152 0 244 126 244 315c0 74 -17 138 -46 188l-370 -419c41 -54 99 -84 172 -84zM741 350c0 -210 -147 -360 -347 -360c-85 0 -161 28 -220 76l-88 -99l-31 27l88 100
c-60 63 -96 152 -96 256c0 210 147 360 347 360c88 0 166 -29 225 -79l77 85l31 -27l-78 -88c58 -62 92 -150 92 -251z" />
    <glyph glyph-name="OE" unicode="&#x152;" horiz-adv-x="1084" 
d="M148 351c0 -194 106 -311 295 -311h94v620h-91c-192 0 -298 -121 -298 -309zM435 0c-235 0 -388 133 -388 351c0 214 151 349 392 349h483c30 0 45 3 60 6l34 -159h-8c-64 76 -92 114 -206 114h-174v-282h143c81 0 96 9 129 96h9v-231h-9c-33 88 -48 96 -129 96h-143
v-301h197c110 0 148 35 213 132h8l-32 -171h-579z" />
    <glyph glyph-name="ordmasculine" unicode="&#xba;" horiz-adv-x="459" 
d="M406 455c0 -105 -76 -178 -176 -178s-177 73 -177 178s77 178 177 178s176 -73 176 -178zM323 455c0 95 -30 149 -93 149s-93 -54 -93 -149s30 -149 93 -149s93 54 93 149zM80 155v38h300v-38h-300z" />
    <glyph glyph-name="ae" unicode="&#xe6;" horiz-adv-x="844" 
d="M798 151c-22 -102 -94 -161 -207 -161c-89 0 -163 40 -202 115c-28 -58 -98 -115 -187 -115c-93 0 -157 42 -157 124c0 105 121 147 235 162l80 11v39c0 90 -32 131 -110 131c-59 0 -95 -29 -95 -77c0 -22 7 -36 18 -49c-10 -9 -31 -15 -49 -15c-33 0 -56 20 -56 58
c0 64 73 122 193 122c84 0 137 -34 160 -92c36 55 93 92 167 92c136 0 216 -90 216 -244h-355c0 -129 63 -208 168 -208c76 0 131 36 161 114zM450 290h260c-2 85 -28 166 -123 166c-80 0 -127 -67 -137 -166zM360 251l-73 -11c-91 -13 -150 -46 -150 -116
c0 -52 34 -82 81 -82c78 0 142 54 142 161v48z" />
    <glyph glyph-name="dotlessi" unicode="&#x131;" horiz-adv-x="281" 
d="M189 486v-377c0 -66 14 -75 57 -102v-7h-201v7c43 27 57 36 57 102v274c0 54 -29 73 -67 97v6h154z" />
    <glyph glyph-name="lslash" unicode="&#x142;" horiz-adv-x="324" 
d="M264 0h-201v7c43 27 57 36 57 102v269l-97 -44v41l97 45v225c0 55 -30 73 -68 97v7h155v-292l94 43v-41l-94 -44v-306c0 -66 14 -75 57 -102v-7z" />
    <glyph glyph-name="oslash" unicode="&#xf8;" horiz-adv-x="581" 
d="M291 455c-98 0 -148 -81 -148 -212c0 -46 8 -87 24 -118l231 270c-24 39 -59 60 -107 60zM291 31c97 0 147 81 147 212c0 45 -7 84 -22 114l-231 -269c24 -38 59 -57 106 -57zM535 243c0 -148 -104 -253 -244 -253c-58 0 -109 18 -150 48l-64 -73l-28 26l63 73
c-41 45 -66 107 -66 179c0 148 104 253 245 253c59 0 111 -19 152 -51l63 72l28 -26l-62 -72c39 -44 63 -106 63 -176z" />
    <glyph glyph-name="oe" unicode="&#x153;" horiz-adv-x="912" 
d="M870 151c-22 -102 -94 -161 -207 -161c-77 0 -146 38 -188 103c-43 -62 -110 -103 -190 -103c-140 0 -244 105 -244 253s104 253 244 253c81 0 150 -41 192 -106c42 66 108 106 183 106c136 0 216 -90 216 -244h-355c0 -129 63 -208 168 -208c76 0 131 36 161 114z
M522 290h260c-2 85 -28 166 -123 166c-80 0 -127 -67 -137 -166zM432 243c0 131 -50 212 -147 212s-147 -81 -147 -212s50 -212 147 -212s147 81 147 212z" />
    <glyph glyph-name="germandbls" unicode="&#xdf;" horiz-adv-x="661" 
d="M461 -10c-51 0 -91 21 -123 42l-35 -43h-8l-11 185h13c52 -94 101 -142 165 -142c59 0 88 32 88 80c0 55 -50 78 -122 113c-100 48 -123 82 -123 138c0 53 37 89 98 141c41 36 54 66 54 107c0 58 -41 102 -117 102c-81 0 -151 -58 -151 -185v-528h-144v7
c43 27 57 36 57 102v333h-70v28l70 20v23c0 163 119 239 241 239c102 0 187 -52 187 -141c0 -63 -38 -97 -88 -132c-52 -35 -67 -52 -67 -83c0 -36 30 -54 115 -100c93 -50 134 -78 134 -158c0 -82 -67 -148 -163 -148z" />
    <glyph glyph-name="onesuperior" unicode="&#xb9;" horiz-adv-x="267" 
d="M242 302h-216v12c50 19 71 21 71 49v273c0 29 -20 31 -73 53v11h147v-337c0 -28 21 -30 71 -49v-12z" />
    <glyph glyph-name="trademark" unicode="&#x2122;" horiz-adv-x="849" 
d="M86 700h232c14 0 20 1 27 3l13 -110h-9c-23 40 -38 80 -80 80h-36v-225c0 -29 14 -35 36 -47v-5h-134v5c23 12 37 18 37 47v225h-36c-43 0 -58 -40 -81 -80h-9l14 110c7 -2 13 -3 26 -3zM589 498l88 202h107v-4c-21 -13 -33 -18 -33 -47v-202c0 -29 12 -33 33 -46v-5
h-127v5c20 13 33 17 33 46v214l-117 -270h-1l-117 270v-214c0 -29 12 -33 33 -46v-5h-96v5c20 13 32 17 32 46v202c0 29 -12 34 -32 47v4h110z" />
    <glyph glyph-name="Eth" unicode="&#xd0;" horiz-adv-x="770" 
d="M337 0h-278v8c47 26 63 38 63 104v227h-73v41h73v208c0 66 -16 78 -63 104v8h273c243 0 390 -135 390 -349c0 -218 -149 -351 -385 -351zM213 40h115c190 0 293 117 293 311c0 188 -103 309 -296 309h-112v-280h177v-41h-177v-299z" />
    <glyph glyph-name="onehalf" unicode="&#xbd;" horiz-adv-x="827" 
d="M182 -10h-47l438 720h47zM242 302h-216v12c50 19 71 21 71 49v273c0 29 -20 31 -73 53v11h147v-337c0 -28 21 -30 71 -49v-12zM557 61l118 2c58 1 71 3 100 50h9l-13 -113h-291v3l89 96c57 60 117 126 118 202c0 45 -23 75 -66 75c-38 0 -60 -28 -60 -66
c-1 -27 8 -49 23 -60c-6 -5 -18 -7 -29 -7c-34 0 -60 24 -60 62c0 56 51 99 126 99c76 0 143 -37 143 -117c0 -81 -70 -133 -207 -226z" />
    <glyph glyph-name="plusminus" unicode="&#xb1;" horiz-adv-x="609" 
d="M535 379h-207v-180h-46v180h-208v47h208v177h46v-177h207v-47zM74 103v48h461v-48h-461z" />
    <glyph glyph-name="Thorn" unicode="&#xde;" horiz-adv-x="644" 
d="M201 588v-25h149c163 0 265 -66 265 -203c0 -138 -105 -204 -265 -204h-149v-44c0 -65 27 -78 88 -104v-8h-242v8c47 26 63 38 63 104v476c0 66 -16 78 -63 104v8h218v-8c-47 -26 -64 -38 -64 -104zM201 195h132c123 0 186 52 186 165s-63 164 -186 164h-132v-329z" />
    <glyph glyph-name="onequarter" unicode="&#xbc;" horiz-adv-x="818" 
d="M182 -10h-47l438 720h47zM242 302h-216v12c50 19 71 21 71 49v273c0 29 -20 31 -73 53v11h147v-337c0 -28 21 -30 71 -49v-12zM620 133v205l-145 -205h145zM720 108h-27v-42c0 -38 6 -43 31 -59v-7h-135v7c25 16 31 21 31 59v42h-195l-2 2l207 288h63v-265h27
c35 0 39 5 56 30h7v-86h-7c-17 25 -21 31 -56 31z" />
    <glyph glyph-name="divide" unicode="&#xf7;" horiz-adv-x="598" 
d="M255 522c0 26 20 46 45 46c26 0 46 -20 46 -46s-20 -46 -46 -46c-25 0 -45 20 -45 46zM71 316v48h456v-48h-456zM255 157c0 26 20 46 45 46c26 0 46 -20 46 -46c0 -25 -20 -45 -46 -45c-25 0 -45 20 -45 45z" />
    <glyph glyph-name="degree" unicode="&#xb0;" horiz-adv-x="352" 
d="M303 583c0 -70 -57 -127 -127 -127s-127 57 -127 127s57 127 127 127s127 -57 127 -127zM89 583c0 -49 38 -88 87 -88s88 39 88 88s-39 88 -88 88s-87 -39 -87 -88z" />
    <glyph glyph-name="thorn" unicode="&#xfe;" horiz-adv-x="616" 
d="M179 261v-66c0 -106 79 -155 146 -155c92 0 155 77 155 211c0 115 -58 191 -152 191c-90 0 -149 -85 -149 -181zM179 87v-193c0 -66 14 -75 57 -102v-7h-202v7c43 27 57 36 57 102v751c0 55 -29 73 -68 97v7h156v-383c23 72 87 130 180 130c122 0 216 -89 216 -245
c0 -160 -105 -261 -227 -261c-90 0 -145 45 -169 97z" />
    <glyph glyph-name="threequarters" unicode="&#xbe;" horiz-adv-x="894" 
d="M258 -10h-47l438 720h47zM181 296c-74 0 -140 36 -140 95c0 39 29 62 63 62c13 0 22 -3 29 -7c-13 -15 -21 -30 -21 -55c0 -45 28 -66 69 -66c46 0 77 29 77 86c0 62 -33 95 -94 95v21c57 2 84 28 84 80c0 45 -23 70 -64 70c-39 0 -61 -22 -61 -60c0 -25 8 -41 23 -51
c-7 -5 -17 -7 -28 -7c-32 0 -57 22 -57 58c0 50 49 89 123 89c76 0 138 -33 138 -99c0 -55 -49 -85 -102 -89v-1c70 -4 117 -45 117 -106c0 -77 -70 -115 -156 -115zM696 133v205l-145 -205h145zM796 108h-27v-42c0 -38 6 -43 31 -59v-7h-135v7c25 16 31 21 31 59v42h-195
l-2 2l207 288h63v-265h27c35 0 39 5 56 30h7v-86h-7c-17 25 -21 31 -56 31z" />
    <glyph glyph-name="twosuperior" unicode="&#xb2;" horiz-adv-x="373" 
d="M103 363l118 2c58 1 71 3 100 50h9l-13 -113h-291v3l89 96c57 60 117 126 118 202c0 45 -23 75 -66 75c-38 0 -60 -28 -60 -66c-1 -27 8 -49 23 -60c-6 -5 -18 -7 -29 -7c-34 0 -60 24 -60 62c0 56 51 99 126 99c76 0 143 -37 143 -117c0 -81 -70 -133 -207 -226z" />
    <glyph glyph-name="registered" unicode="&#xae;" horiz-adv-x="542" 
d="M487 494c0 -125 -97 -216 -216 -216s-216 91 -216 216s97 216 216 216s216 -91 216 -216zM462 494c0 112 -85 192 -191 192s-191 -80 -191 -192s85 -192 191 -192s191 80 191 192zM232 594v-91h27c33 0 60 6 60 46c0 36 -25 45 -60 45h-27zM232 481v-65
c0 -23 6 -24 23 -33v-6h-89v6c17 9 24 10 24 33v159c0 23 -7 24 -24 33v6h110c50 0 88 -18 88 -65c0 -40 -36 -59 -73 -59v-1c31 -3 47 -17 56 -42l9 -27c8 -25 17 -29 38 -37v-6h-65c-7 13 -10 21 -16 38l-11 31c-8 26 -17 35 -48 35h-22z" />
    <glyph glyph-name="minus" unicode="&#x2212;" horiz-adv-x="598" 
d="M71 317v47h456v-47h-456z" />
    <glyph glyph-name="eth" unicode="&#xf0;" horiz-adv-x="571" 
d="M285 -10c-140 0 -244 105 -244 253s104 253 242 253c45 0 102 -19 132 -59c-8 45 -39 122 -108 188l-129 -64l-16 32l116 58c-44 34 -100 63 -170 80l4 28c85 -11 158 -40 218 -82l98 49l16 -32l-82 -41c108 -90 167 -227 167 -377c0 -177 -104 -286 -244 -286zM432 243
c0 131 -50 212 -147 212s-147 -81 -147 -212s50 -212 147 -212s147 81 147 212z" />
    <glyph glyph-name="multiply" unicode="&#xd7;" horiz-adv-x="514" 
d="M228 337l-148 148l33 34l146 -150l147 150l33 -34l-149 -148l149 -149l-33 -34l-147 150l-146 -150l-33 34z" />
    <glyph glyph-name="threesuperior" unicode="&#xb3;" horiz-adv-x="382" 
d="M181 296c-74 0 -140 36 -140 95c0 39 29 62 63 62c13 0 22 -3 29 -7c-13 -15 -21 -30 -21 -55c0 -45 28 -66 69 -66c46 0 77 29 77 86c0 62 -33 95 -94 95v21c57 2 84 28 84 80c0 45 -23 70 -64 70c-39 0 -61 -22 -61 -60c0 -25 8 -41 23 -51c-7 -5 -17 -7 -28 -7
c-32 0 -57 22 -57 58c0 50 49 89 123 89c76 0 138 -33 138 -99c0 -55 -49 -85 -102 -89v-1c70 -4 117 -45 117 -106c0 -77 -70 -115 -156 -115z" />
    <glyph glyph-name="copyright" unicode="&#xa9;" horiz-adv-x="810" 
d="M765 350c0 -209 -161 -360 -360 -360s-360 151 -360 360s161 360 360 360s360 -151 360 -360zM734 350c0 191 -148 330 -329 330s-329 -139 -329 -330s148 -330 329 -330s329 139 329 330zM284 354c0 -116 66 -175 152 -175c60 0 103 20 136 88l13 -5
c-20 -79 -81 -131 -173 -131c-119 0 -207 89 -207 217c0 127 92 218 214 218c49 0 85 -15 110 -34l32 34h4v-134h-8c-33 60 -69 103 -133 103c-87 0 -140 -73 -140 -181z" />
    <glyph glyph-name="Aacute" unicode="&#xc1;" horiz-adv-x="760" 
d="M418 933h120l-159 -164h-19zM355 565l-134 -293h270zM196 8v-8h-188v8c44 31 61 46 89 106l280 598h5l280 -598c29 -60 41 -75 85 -106v-8h-218v8c42 18 55 30 55 51c0 13 -4 23 -14 43l-60 129h-308l-58 -128c-9 -19 -12 -30 -12 -42c0 -21 20 -32 64 -53z" />
    <glyph glyph-name="Acircumflex" unicode="&#xc2;" horiz-adv-x="760" 
d="M388 942c29 -57 97 -135 151 -184h-32c-52 28 -90 54 -128 91c-38 -37 -76 -63 -128 -91h-32c54 49 122 127 151 184h18zM355 565l-134 -293h270zM196 8v-8h-188v8c44 31 61 46 89 106l280 598h5l280 -598c29 -60 41 -75 85 -106v-8h-218v8c42 18 55 30 55 51
c0 13 -4 23 -14 43l-60 129h-308l-58 -128c-9 -19 -12 -30 -12 -42c0 -21 20 -32 64 -53z" />
    <glyph glyph-name="Adieresis" unicode="&#xc4;" horiz-adv-x="760" 
d="M289 772c-34 0 -59 27 -59 60c0 32 25 59 59 59c33 0 59 -27 59 -59c0 -33 -26 -60 -59 -60zM469 772c-33 0 -60 27 -60 60c0 32 27 59 60 59s59 -27 59 -59c0 -33 -26 -60 -59 -60zM355 565l-134 -293h270zM196 8v-8h-188v8c44 31 61 46 89 106l280 598h5l280 -598
c29 -60 41 -75 85 -106v-8h-218v8c42 18 55 30 55 51c0 13 -4 23 -14 43l-60 129h-308l-58 -128c-9 -19 -12 -30 -12 -42c0 -21 20 -32 64 -53z" />
    <glyph glyph-name="Agrave" unicode="&#xc0;" horiz-adv-x="760" 
d="M224 933h120l58 -164h-19zM355 565l-134 -293h270zM196 8v-8h-188v8c44 31 61 46 89 106l280 598h5l280 -598c29 -60 41 -75 85 -106v-8h-218v8c42 18 55 30 55 51c0 13 -4 23 -14 43l-60 129h-308l-58 -128c-9 -19 -12 -30 -12 -42c0 -21 20 -32 64 -53z" />
    <glyph glyph-name="Aring" unicode="&#xc5;" horiz-adv-x="760" 
d="M272 844c0 57 49 105 107 105s107 -48 107 -105c0 -58 -49 -106 -107 -106s-107 48 -107 106zM441 844c0 37 -25 63 -62 63s-62 -26 -62 -63c0 -36 25 -62 62 -62s62 26 62 62zM355 565l-134 -293h270zM196 8v-8h-188v8c44 31 61 46 89 106l280 598h5l280 -598
c29 -60 41 -75 85 -106v-8h-218v8c42 18 55 30 55 51c0 13 -4 23 -14 43l-60 129h-308l-58 -128c-9 -19 -12 -30 -12 -42c0 -21 20 -32 64 -53z" />
    <glyph glyph-name="Atilde" unicode="&#xc3;" horiz-adv-x="760" 
d="M223 776h-25c25 88 63 137 111 137c55 0 105 -64 150 -64c40 0 59 27 78 68h25c-25 -87 -63 -136 -111 -136c-55 0 -105 63 -150 63c-40 0 -59 -27 -78 -68zM355 565l-134 -293h270zM196 8v-8h-188v8c44 31 61 46 89 106l280 598h5l280 -598c29 -60 41 -75 85 -106v-8
h-218v8c42 18 55 30 55 51c0 13 -4 23 -14 43l-60 129h-308l-58 -128c-9 -19 -12 -30 -12 -42c0 -21 20 -32 64 -53z" />
    <glyph glyph-name="Ccedilla" unicode="&#xc7;" horiz-adv-x="714" 
d="M375 -222c-51 0 -92 22 -109 53l15 20c22 -24 48 -36 79 -36s55 15 55 47c0 37 -33 56 -96 58l34 72c-182 17 -306 160 -306 358c0 210 152 360 353 360c79 0 138 -25 178 -55l51 55h8v-211h-9c-54 94 -117 167 -223 167c-151 0 -255 -127 -255 -311
c0 -195 122 -305 264 -305c105 0 182 44 236 159l17 -7c-32 -128 -131 -212 -276 -212h-2l-21 -47c70 -2 121 -31 121 -81c0 -53 -51 -84 -114 -84z" />
    <glyph glyph-name="Eacute" unicode="&#xc9;" horiz-adv-x="658" 
d="M370 933h120l-159 -164h-19zM483 475v-231h-9c-34 88 -48 96 -129 96h-144v-301h198c110 0 148 35 213 132h8l-32 -171h-541v8c47 26 63 38 63 104v476c0 66 -16 78 -63 104v8h449c30 0 45 3 60 6l34 -159h-8c-65 76 -92 114 -206 114h-175v-282h144c81 0 95 9 129 96h9z
" />
    <glyph glyph-name="Ecircumflex" unicode="&#xca;" horiz-adv-x="658" 
d="M341 950c29 -57 97 -135 151 -184h-32c-52 28 -90 54 -128 91c-38 -37 -76 -63 -128 -91h-32c54 49 122 127 151 184h18zM483 475v-231h-9c-34 88 -48 96 -129 96h-144v-301h198c110 0 148 35 213 132h8l-32 -171h-541v8c47 26 63 38 63 104v476c0 66 -16 78 -63 104v8
h449c30 0 45 3 60 6l34 -159h-8c-65 76 -92 114 -206 114h-175v-282h144c81 0 95 9 129 96h9z" />
    <glyph glyph-name="Edieresis" unicode="&#xcb;" horiz-adv-x="658" 
d="M242 780c-34 0 -59 27 -59 60c0 32 25 59 59 59c33 0 59 -27 59 -59c0 -33 -26 -60 -59 -60zM422 780c-33 0 -60 27 -60 60c0 32 27 59 60 59s59 -27 59 -59c0 -33 -26 -60 -59 -60zM483 475v-231h-9c-34 88 -48 96 -129 96h-144v-301h198c110 0 148 35 213 132h8
l-32 -171h-541v8c47 26 63 38 63 104v476c0 66 -16 78 -63 104v8h449c30 0 45 3 60 6l34 -159h-8c-65 76 -92 114 -206 114h-175v-282h144c81 0 95 9 129 96h9z" />
    <glyph glyph-name="Egrave" unicode="&#xc8;" horiz-adv-x="658" 
d="M176 933h120l58 -164h-19zM483 475v-231h-9c-34 88 -48 96 -129 96h-144v-301h198c110 0 148 35 213 132h8l-32 -171h-541v8c47 26 63 38 63 104v476c0 66 -16 78 -63 104v8h449c30 0 45 3 60 6l34 -159h-8c-65 76 -92 114 -206 114h-175v-282h144c81 0 95 9 129 96h9z
" />
    <glyph glyph-name="Iacute" unicode="&#xcd;" horiz-adv-x="312" 
d="M194 933h120l-159 -164h-19zM110 588c0 66 -16 78 -63 104v8h218v-8c-47 -26 -64 -38 -64 -104v-476c0 -66 17 -78 64 -104v-8h-218v8c47 26 63 38 63 104v476z" />
    <glyph glyph-name="Icircumflex" unicode="&#xce;" horiz-adv-x="312" 
d="M165 950c29 -57 97 -135 151 -184h-32c-52 28 -90 54 -128 91c-38 -37 -76 -63 -128 -91h-32c54 49 122 127 151 184h18zM110 588c0 66 -16 78 -63 104v8h218v-8c-47 -26 -64 -38 -64 -104v-476c0 -66 17 -78 64 -104v-8h-218v8c47 26 63 38 63 104v476z" />
    <glyph glyph-name="Idieresis" unicode="&#xcf;" horiz-adv-x="312" 
d="M66 780c-34 0 -59 27 -59 60c0 32 25 59 59 59c33 0 59 -27 59 -59c0 -33 -26 -60 -59 -60zM246 780c-33 0 -60 27 -60 60c0 32 27 59 60 59s59 -27 59 -59c0 -33 -26 -60 -59 -60zM110 588c0 66 -16 78 -63 104v8h218v-8c-47 -26 -64 -38 -64 -104v-476
c0 -66 17 -78 64 -104v-8h-218v8c47 26 63 38 63 104v476z" />
    <glyph glyph-name="Igrave" unicode="&#xcc;" horiz-adv-x="312" 
d="M0 933h120l58 -164h-19zM110 588c0 66 -16 78 -63 104v8h218v-8c-47 -26 -64 -38 -64 -104v-476c0 -66 17 -78 64 -104v-8h-218v8c47 26 63 38 63 104v476z" />
    <glyph glyph-name="Ntilde" unicode="&#xd1;" horiz-adv-x="780" 
d="M238 786h-25c25 88 63 137 111 137c55 0 105 -64 150 -64c40 0 59 27 78 68h25c-25 -87 -63 -136 -111 -136c-55 0 -105 63 -150 63c-40 0 -59 -27 -78 -68zM626 182v405c0 66 -28 79 -75 105v8h198v-8c-47 -26 -74 -39 -74 -105v-595h-14l-502 625v-504
c0 -66 28 -79 75 -105v-8h-198v8c47 26 74 39 74 105v475c0 66 -16 78 -63 104v8h165z" />
    <glyph glyph-name="Oacute" unicode="&#xd3;" horiz-adv-x="788" 
d="M433 933h120l-159 -164h-19zM47 350c0 210 147 360 347 360s347 -150 347 -360s-147 -360 -347 -360s-347 150 -347 360zM638 350c0 189 -92 315 -244 315s-244 -126 -244 -315s92 -315 244 -315s244 126 244 315z" />
    <glyph glyph-name="Ocircumflex" unicode="&#xd4;" horiz-adv-x="788" 
d="M403 950c29 -57 97 -135 151 -184h-32c-52 28 -90 54 -128 91c-38 -37 -76 -63 -128 -91h-32c54 49 122 127 151 184h18zM47 350c0 210 147 360 347 360s347 -150 347 -360s-147 -360 -347 -360s-347 150 -347 360zM638 350c0 189 -92 315 -244 315s-244 -126 -244 -315
s92 -315 244 -315s244 126 244 315z" />
    <glyph glyph-name="Odieresis" unicode="&#xd6;" horiz-adv-x="788" 
d="M304 780c-34 0 -59 27 -59 60c0 32 25 59 59 59c33 0 59 -27 59 -59c0 -33 -26 -60 -59 -60zM484 780c-33 0 -60 27 -60 60c0 32 27 59 60 59s59 -27 59 -59c0 -33 -26 -60 -59 -60zM47 350c0 210 147 360 347 360s347 -150 347 -360s-147 -360 -347 -360
s-347 150 -347 360zM638 350c0 189 -92 315 -244 315s-244 -126 -244 -315s92 -315 244 -315s244 126 244 315z" />
    <glyph glyph-name="Ograve" unicode="&#xd2;" horiz-adv-x="788" 
d="M239 933h120l58 -164h-19zM47 350c0 210 147 360 347 360s347 -150 347 -360s-147 -360 -347 -360s-347 150 -347 360zM638 350c0 189 -92 315 -244 315s-244 -126 -244 -315s92 -315 244 -315s244 126 244 315z" />
    <glyph glyph-name="Otilde" unicode="&#xd5;" horiz-adv-x="788" 
d="M237 786h-25c25 88 63 137 111 137c55 0 105 -64 150 -64c40 0 59 27 78 68h25c-25 -87 -63 -136 -111 -136c-55 0 -105 63 -150 63c-40 0 -59 -27 -78 -68zM47 350c0 210 147 360 347 360s347 -150 347 -360s-147 -360 -347 -360s-347 150 -347 360zM638 350
c0 189 -92 315 -244 315s-244 -126 -244 -315s92 -315 244 -315s244 126 244 315z" />
    <glyph glyph-name="Scaron" unicode="&#x160;" horiz-adv-x="603" 
d="M458 946c-54 -49 -122 -127 -151 -184h-18c-29 57 -97 135 -151 184h32c52 -28 90 -54 128 -91c38 37 76 63 128 91h32zM291 669c-79 0 -141 -45 -141 -120c0 -76 49 -112 135 -134l86 -23c109 -30 173 -81 173 -198c0 -135 -115 -204 -243 -204c-79 0 -150 32 -184 57
l-45 -57h-9l-12 221h13c59 -116 131 -177 237 -177c99 0 159 52 159 141c0 68 -42 110 -118 130l-92 25c-116 31 -184 83 -184 192c0 113 92 188 225 188c74 0 131 -28 166 -46l44 46h8l1 -200h-10c-59 100 -107 159 -209 159z" />
    <glyph glyph-name="Uacute" unicode="&#xda;" horiz-adv-x="759" 
d="M428 933h120l-159 -164h-19zM612 587c0 66 -28 79 -76 105v8h199v-8c-47 -26 -73 -39 -73 -105v-319c0 -183 -116 -278 -275 -278c-198 0 -290 109 -290 278v320c0 66 -17 78 -64 104v8h219v-8c-47 -26 -64 -38 -64 -104v-308c0 -158 77 -237 205 -237
c131 0 219 70 219 236v308z" />
    <glyph glyph-name="Ucircumflex" unicode="&#xdb;" horiz-adv-x="759" 
d="M398 950c29 -57 97 -135 151 -184h-32c-52 28 -90 54 -128 91c-38 -37 -76 -63 -128 -91h-32c54 49 122 127 151 184h18zM612 587c0 66 -28 79 -76 105v8h199v-8c-47 -26 -73 -39 -73 -105v-319c0 -183 -116 -278 -275 -278c-198 0 -290 109 -290 278v320
c0 66 -17 78 -64 104v8h219v-8c-47 -26 -64 -38 -64 -104v-308c0 -158 77 -237 205 -237c131 0 219 70 219 236v308z" />
    <glyph glyph-name="Udieresis" unicode="&#xdc;" horiz-adv-x="759" 
d="M299 780c-34 0 -59 27 -59 60c0 32 25 59 59 59c33 0 59 -27 59 -59c0 -33 -26 -60 -59 -60zM479 780c-33 0 -60 27 -60 60c0 32 27 59 60 59s59 -27 59 -59c0 -33 -26 -60 -59 -60zM612 587c0 66 -28 79 -76 105v8h199v-8c-47 -26 -73 -39 -73 -105v-319
c0 -183 -116 -278 -275 -278c-198 0 -290 109 -290 278v320c0 66 -17 78 -64 104v8h219v-8c-47 -26 -64 -38 -64 -104v-308c0 -158 77 -237 205 -237c131 0 219 70 219 236v308z" />
    <glyph glyph-name="Ugrave" unicode="&#xd9;" horiz-adv-x="759" 
d="M234 933h120l58 -164h-19zM612 587c0 66 -28 79 -76 105v8h199v-8c-47 -26 -73 -39 -73 -105v-319c0 -183 -116 -278 -275 -278c-198 0 -290 109 -290 278v320c0 66 -17 78 -64 104v8h219v-8c-47 -26 -64 -38 -64 -104v-308c0 -158 77 -237 205 -237
c131 0 219 70 219 236v308z" />
    <glyph glyph-name="Yacute" unicode="&#xdd;" horiz-adv-x="676" 
d="M385 933h120l-159 -164h-19zM362 341l163 260c11 16 14 31 14 39c0 19 -19 32 -51 52v8h176v-8c-40 -30 -60 -52 -93 -104l-188 -296v-180c0 -66 17 -78 72 -104v-8h-234v8c55 26 72 38 72 104v180l-188 296c-33 52 -52 74 -93 104v8h204v-8c-26 -16 -33 -28 -33 -46
c0 -15 4 -29 15 -45z" />
    <glyph glyph-name="Ydieresis" unicode="&#x178;" horiz-adv-x="676" 
d="M256 780c-34 0 -59 27 -59 60c0 32 25 59 59 59c33 0 59 -27 59 -59c0 -33 -26 -60 -59 -60zM436 780c-33 0 -60 27 -60 60c0 32 27 59 60 59s59 -27 59 -59c0 -33 -26 -60 -59 -60zM362 341l163 260c11 16 14 31 14 39c0 19 -19 32 -51 52v8h176v-8
c-40 -30 -60 -52 -93 -104l-188 -296v-180c0 -66 17 -78 72 -104v-8h-234v8c55 26 72 38 72 104v180l-188 296c-33 52 -52 74 -93 104v8h204v-8c-26 -16 -33 -28 -33 -46c0 -15 4 -29 15 -45z" />
    <glyph glyph-name="Zcaron" unicode="&#x17d;" horiz-adv-x="698" 
d="M511 946c-54 -49 -122 -127 -151 -184h-18c-29 57 -97 135 -151 184h32c52 -28 90 -54 128 -91c38 37 76 63 128 91h32zM619 0h-573v4l461 656h-228c-112 0 -137 -46 -196 -136h-11l24 182c15 -3 30 -6 60 -6h481v-4l-459 -656h247c110 0 146 36 216 138h10z" />
    <glyph glyph-name="aacute" unicode="&#xe1;" horiz-adv-x="542" 
d="M312 749h111l-159 -188h-19zM360 255l-73 -15c-97 -19 -150 -46 -150 -116c0 -55 34 -82 88 -82c63 0 135 54 135 161v52zM545 23v-13c-22 -8 -55 -17 -89 -17c-61 0 -91 33 -94 106c-22 -63 -91 -109 -173 -109c-80 0 -144 42 -144 124c0 107 114 139 235 161l80 14v38
c0 93 -32 130 -110 130c-59 0 -95 -29 -95 -77c0 -22 7 -36 18 -49c-10 -9 -31 -15 -49 -15c-33 0 -56 20 -56 58c0 64 73 122 194 122c126 0 188 -57 188 -166c0 -89 -3 -163 -3 -224c0 -57 30 -78 98 -83z" />
    <glyph glyph-name="acircumflex" unicode="&#xe2;" horiz-adv-x="542" 
d="M271 756c29 -57 93 -149 148 -204h-28c-51 29 -90 66 -128 103c-38 -37 -77 -74 -128 -103h-28c55 55 119 147 148 204h16zM360 255l-73 -15c-97 -19 -150 -46 -150 -116c0 -55 34 -82 88 -82c63 0 135 54 135 161v52zM545 23v-13c-22 -8 -55 -17 -89 -17
c-61 0 -91 33 -94 106c-22 -63 -91 -109 -173 -109c-80 0 -144 42 -144 124c0 107 114 139 235 161l80 14v38c0 93 -32 130 -110 130c-59 0 -95 -29 -95 -77c0 -22 7 -36 18 -49c-10 -9 -31 -15 -49 -15c-33 0 -56 20 -56 58c0 64 73 122 194 122c126 0 188 -57 188 -166
c0 -89 -3 -163 -3 -224c0 -57 30 -78 98 -83z" />
    <glyph glyph-name="adieresis" unicode="&#xe4;" horiz-adv-x="542" 
d="M173 580c-34 0 -59 27 -59 60c0 32 25 59 59 59c33 0 59 -27 59 -59c0 -33 -26 -60 -59 -60zM353 580c-33 0 -60 27 -60 60c0 32 27 59 60 59s59 -27 59 -59c0 -33 -26 -60 -59 -60zM360 255l-73 -15c-97 -19 -150 -46 -150 -116c0 -55 34 -82 88 -82
c63 0 135 54 135 161v52zM545 23v-13c-22 -8 -55 -17 -89 -17c-61 0 -91 33 -94 106c-22 -63 -91 -109 -173 -109c-80 0 -144 42 -144 124c0 107 114 139 235 161l80 14v38c0 93 -32 130 -110 130c-59 0 -95 -29 -95 -77c0 -22 7 -36 18 -49c-10 -9 -31 -15 -49 -15
c-33 0 -56 20 -56 58c0 64 73 122 194 122c126 0 188 -57 188 -166c0 -89 -3 -163 -3 -224c0 -57 30 -78 98 -83z" />
    <glyph glyph-name="agrave" unicode="&#xe0;" horiz-adv-x="542" 
d="M102 749h111l67 -188h-19zM360 255l-73 -15c-97 -19 -150 -46 -150 -116c0 -55 34 -82 88 -82c63 0 135 54 135 161v52zM545 23v-13c-22 -8 -55 -17 -89 -17c-61 0 -91 33 -94 106c-22 -63 -91 -109 -173 -109c-80 0 -144 42 -144 124c0 107 114 139 235 161l80 14v38
c0 93 -32 130 -110 130c-59 0 -95 -29 -95 -77c0 -22 7 -36 18 -49c-10 -9 -31 -15 -49 -15c-33 0 -56 20 -56 58c0 64 73 122 194 122c126 0 188 -57 188 -166c0 -89 -3 -163 -3 -224c0 -57 30 -78 98 -83z" />
    <glyph glyph-name="aring" unicode="&#xe5;" horiz-adv-x="542" 
d="M156 663c0 57 49 105 107 105s107 -48 107 -105c0 -59 -49 -106 -107 -106s-107 47 -107 106zM325 663c0 36 -25 63 -62 63s-62 -27 -62 -63c0 -37 25 -62 62 -62s62 25 62 62zM360 255l-73 -15c-97 -19 -150 -46 -150 -116c0 -55 34 -82 88 -82c63 0 135 54 135 161v52z
M545 23v-13c-22 -8 -55 -17 -89 -17c-61 0 -91 33 -94 106c-22 -63 -91 -109 -173 -109c-80 0 -144 42 -144 124c0 107 114 139 235 161l80 14v38c0 93 -32 130 -110 130c-59 0 -95 -29 -95 -77c0 -22 7 -36 18 -49c-10 -9 -31 -15 -49 -15c-33 0 -56 20 -56 58
c0 64 73 122 194 122c126 0 188 -57 188 -166c0 -89 -3 -163 -3 -224c0 -57 30 -78 98 -83z" />
    <glyph glyph-name="atilde" unicode="&#xe3;" horiz-adv-x="542" 
d="M112 578h-25c25 87 61 136 109 136c53 0 103 -64 146 -64c40 0 57 27 76 68h25c-25 -87 -61 -136 -109 -136c-53 0 -103 64 -146 64c-40 0 -57 -27 -76 -68zM360 255l-73 -15c-97 -19 -150 -46 -150 -116c0 -55 34 -82 88 -82c63 0 135 54 135 161v52zM545 23v-13
c-22 -8 -55 -17 -89 -17c-61 0 -91 33 -94 106c-22 -63 -91 -109 -173 -109c-80 0 -144 42 -144 124c0 107 114 139 235 161l80 14v38c0 93 -32 130 -110 130c-59 0 -95 -29 -95 -77c0 -22 7 -36 18 -49c-10 -9 -31 -15 -49 -15c-33 0 -56 20 -56 58c0 64 73 122 194 122
c126 0 188 -57 188 -166c0 -89 -3 -163 -3 -224c0 -57 30 -78 98 -83z" />
    <glyph glyph-name="ccedilla" unicode="&#xe7;" horiz-adv-x="509" 
d="M257 -222c-51 0 -92 22 -109 53l15 20c22 -24 48 -36 79 -36s55 15 55 47c0 37 -33 56 -96 58l34 73c-111 15 -194 101 -194 243c0 158 109 260 246 260c101 0 176 -51 176 -122c0 -47 -35 -62 -65 -62c-9 0 -21 2 -26 7c5 13 10 21 10 43c0 52 -29 94 -94 94
c-96 0 -152 -92 -152 -206c0 -128 63 -205 162 -205c70 0 127 36 156 113l19 -8c-22 -100 -92 -160 -201 -160h-1l-21 -47c70 -2 121 -31 121 -81c0 -53 -51 -84 -114 -84z" />
    <glyph glyph-name="eacute" unicode="&#xe9;" horiz-adv-x="530" 
d="M324 749h111l-159 -188h-19zM274 496c137 0 216 -90 216 -244h-355c0 -129 63 -208 169 -208c76 0 131 36 160 114l21 -7c-23 -102 -95 -161 -207 -161c-131 0 -237 89 -237 247s104 259 233 259zM137 290h259c-2 85 -28 166 -123 166c-79 0 -127 -67 -136 -166z" />
    <glyph glyph-name="ecircumflex" unicode="&#xea;" horiz-adv-x="530" 
d="M283 756c29 -57 93 -149 148 -204h-28c-51 29 -90 66 -128 103c-38 -37 -77 -74 -128 -103h-28c55 55 119 147 148 204h16zM274 496c137 0 216 -90 216 -244h-355c0 -129 63 -208 169 -208c76 0 131 36 160 114l21 -7c-23 -102 -95 -161 -207 -161
c-131 0 -237 89 -237 247s104 259 233 259zM137 290h259c-2 85 -28 166 -123 166c-79 0 -127 -67 -136 -166z" />
    <glyph glyph-name="edieresis" unicode="&#xeb;" horiz-adv-x="530" 
d="M185 580c-34 0 -59 27 -59 60c0 32 25 59 59 59c33 0 59 -27 59 -59c0 -33 -26 -60 -59 -60zM365 580c-33 0 -60 27 -60 60c0 32 27 59 60 59s59 -27 59 -59c0 -33 -26 -60 -59 -60zM274 496c137 0 216 -90 216 -244h-355c0 -129 63 -208 169 -208c76 0 131 36 160 114
l21 -7c-23 -102 -95 -161 -207 -161c-131 0 -237 89 -237 247s104 259 233 259zM137 290h259c-2 85 -28 166 -123 166c-79 0 -127 -67 -136 -166z" />
    <glyph glyph-name="egrave" unicode="&#xe8;" horiz-adv-x="530" 
d="M113 749h111l67 -188h-19zM274 496c137 0 216 -90 216 -244h-355c0 -129 63 -208 169 -208c76 0 131 36 160 114l21 -7c-23 -102 -95 -161 -207 -161c-131 0 -237 89 -237 247s104 259 233 259zM137 290h259c-2 85 -28 166 -123 166c-79 0 -127 -67 -136 -166z" />
    <glyph glyph-name="iacute" unicode="&#xed;" horiz-adv-x="281" 
d="M190 749h111l-159 -188h-19zM189 486v-377c0 -66 14 -75 57 -102v-7h-201v7c43 27 57 36 57 102v274c0 54 -29 73 -67 97v6h154z" />
    <glyph glyph-name="icircumflex" unicode="&#xee;" horiz-adv-x="281" 
d="M149 756c29 -57 93 -149 148 -204h-28c-51 29 -90 66 -128 103c-38 -37 -77 -74 -128 -103h-28c55 55 119 147 148 204h16zM189 486v-377c0 -66 14 -75 57 -102v-7h-201v7c43 27 57 36 57 102v274c0 54 -29 73 -67 97v6h154z" />
    <glyph glyph-name="idieresis" unicode="&#xef;" horiz-adv-x="281" 
d="M51 580c-34 0 -59 27 -59 60c0 32 25 59 59 59c33 0 59 -27 59 -59c0 -33 -26 -60 -59 -60zM231 580c-33 0 -60 27 -60 60c0 32 27 59 60 59s59 -27 59 -59c0 -33 -26 -60 -59 -60zM189 486v-377c0 -66 14 -75 57 -102v-7h-201v7c43 27 57 36 57 102v274
c0 54 -29 73 -67 97v6h154z" />
    <glyph glyph-name="igrave" unicode="&#xec;" horiz-adv-x="281" 
d="M-21 749h111l67 -188h-19zM189 486v-377c0 -66 14 -75 57 -102v-7h-201v7c43 27 57 36 57 102v274c0 54 -29 73 -67 97v6h154z" />
    <glyph glyph-name="ntilde" unicode="&#xf1;" horiz-adv-x="613" 
d="M158 578h-25c25 87 61 136 109 136c53 0 103 -64 146 -64c40 0 57 27 76 68h25c-25 -87 -61 -136 -109 -136c-53 0 -103 64 -146 64c-40 0 -57 -27 -76 -68zM521 322v-213c0 -66 14 -75 57 -102v-7h-201v7c43 27 57 36 57 102v198c0 66 -26 127 -105 127
c-75 0 -140 -63 -140 -178v-147c0 -66 14 -75 57 -102v-7h-201v7c43 27 57 36 57 102v274c0 54 -29 73 -67 97v6h150l4 -121c29 84 92 131 176 131c102 0 156 -67 156 -174z" />
    <glyph glyph-name="oacute" unicode="&#xf3;" horiz-adv-x="570" 
d="M334 749h111l-159 -188h-19zM529 243c0 -148 -104 -253 -244 -253s-244 105 -244 253s104 253 244 253s244 -105 244 -253zM432 243c0 131 -50 212 -147 212s-147 -81 -147 -212s50 -212 147 -212s147 81 147 212z" />
    <glyph glyph-name="ocircumflex" unicode="&#xf4;" horiz-adv-x="570" 
d="M293 756c29 -57 93 -149 148 -204h-28c-51 29 -90 66 -128 103c-38 -37 -77 -74 -128 -103h-28c55 55 119 147 148 204h16zM529 243c0 -148 -104 -253 -244 -253s-244 105 -244 253s104 253 244 253s244 -105 244 -253zM432 243c0 131 -50 212 -147 212
s-147 -81 -147 -212s50 -212 147 -212s147 81 147 212z" />
    <glyph glyph-name="odieresis" unicode="&#xf6;" horiz-adv-x="570" 
d="M195 580c-34 0 -59 27 -59 60c0 32 25 59 59 59c33 0 59 -27 59 -59c0 -33 -26 -60 -59 -60zM375 580c-33 0 -60 27 -60 60c0 32 27 59 60 59s59 -27 59 -59c0 -33 -26 -60 -59 -60zM529 243c0 -148 -104 -253 -244 -253s-244 105 -244 253s104 253 244 253
s244 -105 244 -253zM432 243c0 131 -50 212 -147 212s-147 -81 -147 -212s50 -212 147 -212s147 81 147 212z" />
    <glyph glyph-name="ograve" unicode="&#xf2;" horiz-adv-x="570" 
d="M123 749h111l67 -188h-19zM529 243c0 -148 -104 -253 -244 -253s-244 105 -244 253s104 253 244 253s244 -105 244 -253zM432 243c0 131 -50 212 -147 212s-147 -81 -147 -212s50 -212 147 -212s147 81 147 212z" />
    <glyph glyph-name="otilde" unicode="&#xf5;" horiz-adv-x="570" 
d="M132 578h-25c25 87 61 136 109 136c53 0 103 -64 146 -64c40 0 57 27 76 68h25c-25 -87 -61 -136 -109 -136c-53 0 -103 64 -146 64c-40 0 -57 -27 -76 -68zM529 243c0 -148 -104 -253 -244 -253s-244 105 -244 253s104 253 244 253s244 -105 244 -253zM432 243
c0 131 -50 212 -147 212s-147 -81 -147 -212s50 -212 147 -212s147 81 147 212z" />
    <glyph glyph-name="scaron" unicode="&#x161;" horiz-adv-x="489" 
d="M400 756c-55 -54 -119 -146 -148 -203h-16c-29 57 -93 149 -148 203h28c51 -29 90 -65 128 -102c38 37 77 73 128 102h28zM231 455c-59 0 -93 -30 -93 -74c0 -48 34 -71 120 -88c130 -25 179 -68 179 -150c0 -93 -79 -153 -185 -153c-63 0 -114 23 -147 43l-35 -43h-8
l-11 185h14c51 -94 111 -143 187 -143c61 0 108 28 108 87c0 56 -45 74 -129 90c-124 25 -167 67 -167 146c0 83 71 141 166 141c59 0 101 -19 135 -40l38 40h7v-165h-11c-44 70 -96 124 -168 124z" />
    <glyph glyph-name="uacute" unicode="&#xfa;" horiz-adv-x="598" 
d="M343 749h111l-159 -188h-19zM179 486v-306c0 -66 26 -129 104 -129c76 0 137 65 137 179v153c0 54 -29 73 -68 97v6h155v-377c0 -66 14 -75 57 -102v-7h-144v123c-28 -86 -88 -133 -173 -133c-100 0 -155 66 -155 173v220c0 54 -29 73 -67 97v6h154z" />
    <glyph glyph-name="ucircumflex" unicode="&#xfb;" horiz-adv-x="598" 
d="M302 756c29 -57 93 -149 148 -204h-28c-51 29 -90 66 -128 103c-38 -37 -77 -74 -128 -103h-28c55 55 119 147 148 204h16zM179 486v-306c0 -66 26 -129 104 -129c76 0 137 65 137 179v153c0 54 -29 73 -68 97v6h155v-377c0 -66 14 -75 57 -102v-7h-144v123
c-28 -86 -88 -133 -173 -133c-100 0 -155 66 -155 173v220c0 54 -29 73 -67 97v6h154z" />
    <glyph glyph-name="udieresis" unicode="&#xfc;" horiz-adv-x="598" 
d="M204 580c-34 0 -59 27 -59 60c0 32 25 59 59 59c33 0 59 -27 59 -59c0 -33 -26 -60 -59 -60zM384 580c-33 0 -60 27 -60 60c0 32 27 59 60 59s59 -27 59 -59c0 -33 -26 -60 -59 -60zM179 486v-306c0 -66 26 -129 104 -129c76 0 137 65 137 179v153c0 54 -29 73 -68 97v6
h155v-377c0 -66 14 -75 57 -102v-7h-144v123c-28 -86 -88 -133 -173 -133c-100 0 -155 66 -155 173v220c0 54 -29 73 -67 97v6h154z" />
    <glyph glyph-name="ugrave" unicode="&#xf9;" horiz-adv-x="598" 
d="M132 749h111l67 -188h-19zM179 486v-306c0 -66 26 -129 104 -129c76 0 137 65 137 179v153c0 54 -29 73 -68 97v6h155v-377c0 -66 14 -75 57 -102v-7h-144v123c-28 -86 -88 -133 -173 -133c-100 0 -155 66 -155 173v220c0 54 -29 73 -67 97v6h154z" />
    <glyph glyph-name="yacute" unicode="&#xfd;" horiz-adv-x="517" 
d="M328 749h111l-159 -188h-19zM242 -2l-163 370c-27 61 -50 84 -82 112v6h186v-6c-25 -17 -36 -26 -36 -41c0 -17 7 -31 20 -61l118 -280l111 276c11 27 15 40 15 55c0 18 -20 32 -53 51v6h162v-6c-32 -28 -53 -51 -79 -112l-194 -457c-33 -80 -62 -136 -138 -136
c-47 0 -81 30 -81 72c0 33 28 60 61 65c-2 -6 -4 -18 -4 -24c0 -26 17 -47 44 -47c36 0 57 31 81 86z" />
    <glyph glyph-name="ydieresis" unicode="&#xff;" horiz-adv-x="517" 
d="M190 580c-34 0 -59 27 -59 60c0 32 25 59 59 59c33 0 59 -27 59 -59c0 -33 -26 -60 -59 -60zM370 580c-33 0 -60 27 -60 60c0 32 27 59 60 59s59 -27 59 -59c0 -33 -26 -60 -59 -60zM242 -2l-163 370c-27 61 -50 84 -82 112v6h186v-6c-25 -17 -36 -26 -36 -41
c0 -17 7 -31 20 -61l118 -280l111 276c11 27 15 40 15 55c0 18 -20 32 -53 51v6h162v-6c-32 -28 -53 -51 -79 -112l-194 -457c-33 -80 -62 -136 -138 -136c-47 0 -81 30 -81 72c0 33 28 60 61 65c-2 -6 -4 -18 -4 -24c0 -26 17 -47 44 -47c36 0 57 31 81 86z" />
    <glyph glyph-name="zcaron" unicode="&#x17e;" horiz-adv-x="521" 
d="M428 756c-55 -54 -119 -146 -148 -203h-16c-29 57 -93 149 -148 203h28c51 -29 90 -65 128 -102c38 37 77 73 128 102h28zM40 5l307 443h-124c-74 0 -94 -24 -150 -122h-10l15 170c16 -7 36 -10 71 -10h320v-4l-305 -444h144c72 0 98 24 159 126h12l-29 -164h-410v5z" />
    <glyph glyph-name="Euro" unicode="&#x20ac;" horiz-adv-x="661" 
d="M616 210c-24 -157 -124 -220 -242 -220c-123 0 -244 89 -267 281h-77v36h74c-1 10 -1 21 -1 32c0 17 1 34 2 50h-75v36h79c27 193 149 285 296 285c109 0 202 -58 202 -146c0 -55 -35 -83 -77 -83c-12 0 -23 3 -35 8c14 11 28 30 28 74c0 62 -40 109 -117 109
c-106 0 -181 -85 -200 -247h212l-10 -36h-205c-1 -16 -2 -33 -2 -51c0 -11 0 -21 1 -31h186l-10 -36h-173c18 -156 103 -219 198 -219c91 0 156 40 195 163z" />
    <glyph glyph-name="approxequal" unicode="&#x2248;" horiz-adv-x="624" 
d="M84 357v49c45 28 85 41 123 41c78 0 130 -40 208 -40c37 0 79 11 125 41v-49c-46 -30 -88 -41 -125 -41c-78 0 -130 40 -208 40c-38 0 -78 -12 -123 -41zM84 232v49c45 29 85 41 123 41c78 0 130 -40 208 -40c37 0 79 11 125 41v-49c-46 -30 -88 -41 -125 -41
c-78 0 -130 40 -208 40c-38 0 -78 -13 -123 -41z" />
    <glyph glyph-name="notequal" unicode="&#x2260;" horiz-adv-x="624" 
d="M540 248h-273l-89 -113h-54l89 113h-129v44h164l73 93h-237v44h271l91 115h53l-90 -115h131v-44h-166l-73 -93h239v-44z" />
    <glyph glyph-name="lessequal" unicode="&#x2264;" horiz-adv-x="490" 
d="M75 373v48l348 167v-51l-292 -140l292 -141v-52zM75 103v48h348v-48h-348z" />
    <glyph glyph-name="greaterequal" unicode="&#x2265;" horiz-adv-x="490" 
d="M415 421v-48l-348 -169v52l292 141l-292 140v51zM415 151v-48h-348v48h348z" />
    <glyph glyph-name="uni00A0" unicode="&#xa0;" horiz-adv-x="200" 
 />
    <glyph glyph-name="Amacron" unicode="&#x100;" horiz-adv-x="760" 
d="M517 782h-276v55h276v-55zM355 565l-134 -293h270zM196 8v-8h-188v8c44 31 61 46 89 106l280 598h5l280 -598c29 -60 41 -75 85 -106v-8h-218v8c42 18 55 30 55 51c0 13 -4 23 -14 43l-60 129h-308l-58 -128c-9 -19 -12 -30 -12 -42c0 -21 20 -32 64 -53z" />
    <glyph glyph-name="Abreve" unicode="&#x102;" horiz-adv-x="760" 
d="M263 934c6 -64 58 -96 116 -96s110 32 116 96h26c-1 -99 -61 -166 -142 -166s-141 67 -142 166h26zM355 565l-134 -293h270zM196 8v-8h-188v8c44 31 61 46 89 106l280 598h5l280 -598c29 -60 41 -75 85 -106v-8h-218v8c42 18 55 30 55 51c0 13 -4 23 -14 43l-60 129h-308
l-58 -128c-9 -19 -12 -30 -12 -42c0 -21 20 -32 64 -53z" />
    <glyph glyph-name="Aogonek" unicode="&#x104;" horiz-adv-x="760" 
d="M623 -144c-23 -47 -70 -93 -141 -93c-48 0 -93 32 -93 87c0 71 68 118 142 158c34 19 53 30 53 51c0 13 -4 23 -14 43l-60 129h-308l-58 -128c-9 -19 -12 -30 -12 -42c0 -21 20 -32 64 -53v-8h-188v8c44 31 61 46 89 106l280 598h5l280 -598c29 -60 41 -75 85 -106v-8
h-188c-65 -47 -102 -84 -102 -130c0 -40 26 -57 56 -57c37 0 69 22 96 55zM355 565l-134 -293h270z" />
    <glyph glyph-name="Cacute" unicode="&#x106;" horiz-adv-x="714" 
d="M439 933h120l-159 -164h-19zM405 666c-151 0 -255 -127 -255 -311c0 -195 122 -305 264 -305c105 0 182 44 236 159l17 -7c-32 -128 -131 -212 -276 -212c-203 0 -344 148 -344 360c0 210 152 360 353 360c79 0 138 -25 178 -55l51 55h8v-211h-9
c-54 94 -117 167 -223 167z" />
    <glyph glyph-name="Ccircumflex" unicode="&#x108;" horiz-adv-x="714" 
d="M409 950c29 -57 97 -135 151 -184h-32c-52 28 -90 54 -128 91c-38 -37 -76 -63 -128 -91h-32c54 49 122 127 151 184h18zM405 666c-151 0 -255 -127 -255 -311c0 -195 122 -305 264 -305c105 0 182 44 236 159l17 -7c-32 -128 -131 -212 -276 -212
c-203 0 -344 148 -344 360c0 210 152 360 353 360c79 0 138 -25 178 -55l51 55h8v-211h-9c-54 94 -117 167 -223 167z" />
    <glyph glyph-name="Cdotaccent" unicode="&#x10a;" horiz-adv-x="714" 
d="M401 786c-35 0 -63 28 -63 62c0 35 28 63 63 63s63 -28 63 -63c0 -34 -28 -62 -63 -62zM405 666c-151 0 -255 -127 -255 -311c0 -195 122 -305 264 -305c105 0 182 44 236 159l17 -7c-32 -128 -131 -212 -276 -212c-203 0 -344 148 -344 360c0 210 152 360 353 360
c79 0 138 -25 178 -55l51 55h8v-211h-9c-54 94 -117 167 -223 167z" />
    <glyph glyph-name="Ccaron" unicode="&#x10c;" horiz-adv-x="714" 
d="M560 946c-54 -49 -122 -127 -151 -184h-18c-29 57 -97 135 -151 184h32c52 -28 90 -54 128 -91c38 37 76 63 128 91h32zM405 666c-151 0 -255 -127 -255 -311c0 -195 122 -305 264 -305c105 0 182 44 236 159l17 -7c-32 -128 -131 -212 -276 -212
c-203 0 -344 148 -344 360c0 210 152 360 353 360c79 0 138 -25 178 -55l51 55h8v-211h-9c-54 94 -117 167 -223 167z" />
    <glyph glyph-name="Dcaron" unicode="&#x10e;" horiz-adv-x="757" 
d="M513 946c-54 -49 -122 -127 -151 -184h-18c-29 57 -97 135 -151 184h32c52 -28 90 -54 128 -91c38 37 76 63 128 91h32zM47 0v8c47 26 63 38 63 104v476c0 66 -16 78 -63 104v8h273c243 0 390 -135 390 -349c0 -218 -149 -351 -385 -351h-278zM609 351
c0 188 -103 309 -296 309h-112v-620h115c190 0 293 117 293 311z" />
    <glyph glyph-name="Emacron" unicode="&#x112;" horiz-adv-x="658" 
d="M470 790h-276v55h276v-55zM483 475v-231h-9c-34 88 -48 96 -129 96h-144v-301h198c110 0 148 35 213 132h8l-32 -171h-541v8c47 26 63 38 63 104v476c0 66 -16 78 -63 104v8h449c30 0 45 3 60 6l34 -159h-8c-65 76 -92 114 -206 114h-175v-282h144c81 0 95 9 129 96h9z
" />
    <glyph glyph-name="Ebreve" unicode="&#x114;" horiz-adv-x="658" 
d="M216 942c6 -64 58 -96 116 -96s110 32 116 96h26c-1 -99 -61 -166 -142 -166s-141 67 -142 166h26zM483 475v-231h-9c-34 88 -48 96 -129 96h-144v-301h198c110 0 148 35 213 132h8l-32 -171h-541v8c47 26 63 38 63 104v476c0 66 -16 78 -63 104v8h449c30 0 45 3 60 6
l34 -159h-8c-65 76 -92 114 -206 114h-175v-282h144c81 0 95 9 129 96h9z" />
    <glyph glyph-name="Edotaccent" unicode="&#x116;" horiz-adv-x="658" 
d="M332 786c-35 0 -63 28 -63 62c0 35 28 63 63 63s63 -28 63 -63c0 -34 -28 -62 -63 -62zM483 475v-231h-9c-34 88 -48 96 -129 96h-144v-301h198c110 0 148 35 213 132h8l-32 -171h-541v8c47 26 63 38 63 104v476c0 66 -16 78 -63 104v8h449c30 0 45 3 60 6l34 -159h-8
c-65 76 -92 114 -206 114h-175v-282h144c81 0 95 9 129 96h9z" />
    <glyph glyph-name="Eogonek" unicode="&#x118;" horiz-adv-x="658" 
d="M563 -144c-23 -47 -70 -93 -141 -93c-48 0 -93 32 -93 87c0 66 60 110 129 150h-411v8c47 26 63 38 63 104v476c0 66 -16 78 -63 104v8h449c30 0 45 3 60 6l34 -159h-8c-65 76 -92 114 -206 114h-175v-282h144c81 0 95 9 129 96h9v-231h-9c-34 88 -48 96 -129 96h-144
v-301h198c110 0 148 35 213 132h8l-32 -171h-89c-65 -47 -101 -84 -101 -130c0 -40 25 -57 55 -57c38 0 69 22 96 55z" />
    <glyph glyph-name="Ecaron" unicode="&#x11a;" horiz-adv-x="658" 
d="M492 946c-54 -49 -122 -127 -151 -184h-18c-29 57 -97 135 -151 184h32c52 -28 90 -54 128 -91c38 37 76 63 128 91h32zM483 475v-231h-9c-34 88 -48 96 -129 96h-144v-301h198c110 0 148 35 213 132h8l-32 -171h-541v8c47 26 63 38 63 104v476c0 66 -16 78 -63 104v8
h449c30 0 45 3 60 6l34 -159h-8c-65 76 -92 114 -206 114h-175v-282h144c81 0 95 9 129 96h9z" />
    <glyph glyph-name="Gcircumflex" unicode="&#x11c;" horiz-adv-x="779" 
d="M416 950c29 -57 97 -135 151 -184h-32c-52 28 -90 54 -128 91c-38 -37 -76 -63 -128 -91h-32c54 49 122 127 151 184h18zM600 128v94c0 66 -17 77 -64 104v8h219v-8c-48 -27 -65 -38 -65 -104v-231h-23l-53 100c-39 -59 -119 -101 -217 -101c-202 0 -350 145 -350 356
c0 213 154 364 365 364c81 0 144 -25 185 -55l54 55h7v-209h-8c-57 94 -123 166 -233 166c-158 0 -266 -129 -266 -318c0 -186 109 -306 270 -306c73 0 135 25 179 85z" />
    <glyph glyph-name="Gbreve" unicode="&#x11e;" horiz-adv-x="779" 
d="M291 942c6 -64 58 -96 116 -96s110 32 116 96h26c-1 -99 -61 -166 -142 -166s-141 67 -142 166h26zM600 128v94c0 66 -17 77 -64 104v8h219v-8c-48 -27 -65 -38 -65 -104v-231h-23l-53 100c-39 -59 -119 -101 -217 -101c-202 0 -350 145 -350 356c0 213 154 364 365 364
c81 0 144 -25 185 -55l54 55h7v-209h-8c-57 94 -123 166 -233 166c-158 0 -266 -129 -266 -318c0 -186 109 -306 270 -306c73 0 135 25 179 85z" />
    <glyph glyph-name="Gdotaccent" unicode="&#x120;" horiz-adv-x="779" 
d="M407 786c-35 0 -63 28 -63 62c0 35 28 63 63 63s63 -28 63 -63c0 -34 -28 -62 -63 -62zM600 128v94c0 66 -17 77 -64 104v8h219v-8c-48 -27 -65 -38 -65 -104v-231h-23l-53 100c-39 -59 -119 -101 -217 -101c-202 0 -350 145 -350 356c0 213 154 364 365 364
c81 0 144 -25 185 -55l54 55h7v-209h-8c-57 94 -123 166 -233 166c-158 0 -266 -129 -266 -318c0 -186 109 -306 270 -306c73 0 135 25 179 85z" />
    <glyph glyph-name="uni0122" unicode="&#x122;" horiz-adv-x="779" 
d="M600 128v94c0 66 -17 77 -64 104v8h219v-8c-48 -27 -65 -38 -65 -104v-231h-23l-53 100c-39 -59 -119 -101 -217 -101c-202 0 -350 145 -350 356c0 213 154 364 365 364c81 0 144 -25 185 -55l54 55h7v-209h-8c-57 94 -123 166 -233 166c-158 0 -266 -129 -266 -318
c0 -186 109 -306 270 -306c73 0 135 25 179 85zM430 -151c-9 -7 -19 -10 -33 -10c-29 0 -51 23 -51 49c0 32 24 55 58 55c42 0 73 -32 73 -84c0 -57 -46 -110 -140 -113v26c51 5 93 27 93 77z" />
    <glyph glyph-name="Hcircumflex" unicode="&#x124;" horiz-adv-x="822" 
d="M419 950c29 -57 97 -135 151 -184h-32c-52 28 -90 54 -128 91c-38 -37 -76 -63 -128 -91h-32c54 49 122 127 151 184h18zM47 0v8c47 26 63 38 63 104v476c0 66 -16 78 -63 104v8h218v-8c-47 -26 -64 -38 -64 -104v-208h419v208c0 66 -16 78 -63 104v8h218v-8
c-47 -26 -64 -38 -64 -104v-476c0 -66 17 -78 64 -104v-8h-218v8c47 26 63 38 63 104v227h-419v-227c0 -66 17 -78 64 -104v-8h-218z" />
    <glyph glyph-name="Itilde" unicode="&#x128;" horiz-adv-x="312" 
d="M-1 786h-25c25 88 63 137 111 137c55 0 105 -64 150 -64c40 0 59 27 78 68h25c-25 -87 -63 -136 -111 -136c-55 0 -105 63 -150 63c-40 0 -59 -27 -78 -68zM110 588c0 66 -16 78 -63 104v8h218v-8c-47 -26 -64 -38 -64 -104v-476c0 -66 17 -78 64 -104v-8h-218v8
c47 26 63 38 63 104v476z" />
    <glyph glyph-name="Imacron" unicode="&#x12a;" horiz-adv-x="312" 
d="M294 790h-276v55h276v-55zM110 588c0 66 -16 78 -63 104v8h218v-8c-47 -26 -64 -38 -64 -104v-476c0 -66 17 -78 64 -104v-8h-218v8c47 26 63 38 63 104v476z" />
    <glyph glyph-name="Ibreve" unicode="&#x12c;" horiz-adv-x="312" 
d="M40 942c6 -64 58 -96 116 -96s110 32 116 96h26c-1 -99 -61 -166 -142 -166s-141 67 -142 166h26zM110 588c0 66 -16 78 -63 104v8h218v-8c-47 -26 -64 -38 -64 -104v-476c0 -66 17 -78 64 -104v-8h-218v8c47 26 63 38 63 104v476z" />
    <glyph glyph-name="Iogonek" unicode="&#x12e;" horiz-adv-x="312" 
d="M273 -144c-23 -47 -70 -93 -141 -93c-48 0 -93 32 -93 87c0 66 60 110 129 150h-121v8c47 26 63 38 63 104v476c0 66 -16 78 -63 104v8h218v-8c-47 -26 -64 -38 -64 -104v-476c0 -66 17 -78 64 -104v-8h-56c-65 -47 -101 -84 -101 -130c0 -40 25 -57 55 -57
c38 0 69 22 96 55z" />
    <glyph glyph-name="Idotaccent" unicode="&#x130;" horiz-adv-x="312" 
d="M156 786c-35 0 -63 28 -63 62c0 35 28 63 63 63s63 -28 63 -63c0 -34 -28 -62 -63 -62zM110 588c0 66 -16 78 -63 104v8h218v-8c-47 -26 -64 -38 -64 -104v-476c0 -66 17 -78 64 -104v-8h-218v8c47 26 63 38 63 104v476z" />
    <glyph glyph-name="Jcircumflex" unicode="&#x134;" horiz-adv-x="576" 
d="M440 950c29 -57 97 -135 151 -184h-32c-52 28 -90 54 -128 91c-38 -37 -76 -63 -128 -91h-32c54 49 122 127 151 184h18zM388 216v372c0 66 -17 78 -64 104v8h218v-8c-47 -26 -63 -38 -63 -104v-377c0 -140 -98 -221 -230 -221c-129 0 -221 77 -221 176c0 60 42 99 94 99
c21 0 38 -6 49 -16c-29 -19 -50 -46 -50 -97c0 -72 52 -123 128 -123c99 0 139 74 139 187z" />
    <glyph glyph-name="uni0136" unicode="&#x136;" horiz-adv-x="733" 
d="M265 0h-218v8c47 26 63 38 63 104v476c0 66 -16 78 -63 104v8h218v-8c-47 -26 -64 -38 -64 -104v-259l305 284c14 14 20 25 20 37c0 16 -18 27 -43 42v8h207v-8c-66 -31 -106 -60 -153 -104l-192 -178l252 -298c43 -50 82 -85 125 -104v-8h-222v8c17 10 31 18 31 33
c0 14 -7 23 -24 45l-227 266l-79 -71v-169c0 -66 17 -78 64 -104v-8zM385 -151c-9 -7 -19 -10 -33 -10c-29 0 -51 23 -51 49c0 32 24 55 58 55c42 0 73 -32 73 -84c0 -57 -46 -110 -140 -113v26c51 5 93 27 93 77z" />
    <glyph glyph-name="Lacute" unicode="&#x139;" horiz-adv-x="630" 
d="M207 933h120l-159 -164h-19zM201 588v-549h173c110 0 146 38 220 155h8l-37 -194h-518v8c47 26 63 38 63 104v476c0 66 -16 78 -63 104v8h218v-8c-47 -26 -64 -38 -64 -104z" />
    <glyph glyph-name="uni013B" unicode="&#x13b;" horiz-adv-x="630" 
d="M201 588v-549h173c110 0 146 38 220 155h8l-37 -194h-518v8c47 26 63 38 63 104v476c0 66 -16 78 -63 104v8h218v-8c-47 -26 -64 -38 -64 -104zM350 -151c-9 -7 -19 -10 -33 -10c-29 0 -51 23 -51 49c0 32 24 55 58 55c42 0 73 -32 73 -84c0 -57 -46 -110 -140 -113v26
c51 5 93 27 93 77z" />
    <glyph glyph-name="Lcaron" unicode="&#x13d;" horiz-adv-x="630" 
d="M201 588v-549h173c110 0 146 38 220 155h8l-37 -194h-518v8c47 26 63 38 63 104v476c0 66 -16 78 -63 104v8h218v-8c-47 -26 -64 -38 -64 -104zM542 700l-97 -205h-18l18 205h97z" />
    <glyph glyph-name="Nacute" unicode="&#x143;" horiz-adv-x="780" 
d="M433 933h120l-159 -164h-19zM626 182v405c0 66 -28 79 -75 105v8h198v-8c-47 -26 -74 -39 -74 -105v-595h-14l-502 625v-504c0 -66 28 -79 75 -105v-8h-198v8c47 26 74 39 74 105v475c0 66 -16 78 -63 104v8h165z" />
    <glyph glyph-name="uni0145" unicode="&#x145;" horiz-adv-x="780" 
d="M626 182v405c0 66 -28 79 -75 105v8h198v-8c-47 -26 -74 -39 -74 -105v-595h-14l-502 625v-504c0 -66 28 -79 75 -105v-8h-198v8c47 26 74 39 74 105v475c0 66 -16 78 -63 104v8h165zM418 -151c-9 -7 -19 -10 -33 -10c-29 0 -51 23 -51 49c0 32 24 55 58 55
c42 0 73 -32 73 -84c0 -57 -46 -110 -140 -113v26c51 5 93 27 93 77z" />
    <glyph glyph-name="Ncaron" unicode="&#x147;" horiz-adv-x="780" 
d="M555 946c-54 -49 -122 -127 -151 -184h-18c-29 57 -97 135 -151 184h32c52 -28 90 -54 128 -91c38 37 76 63 128 91h32zM626 182v405c0 66 -28 79 -75 105v8h198v-8c-47 -26 -74 -39 -74 -105v-595h-14l-502 625v-504c0 -66 28 -79 75 -105v-8h-198v8c47 26 74 39 74 105
v475c0 66 -16 78 -63 104v8h165z" />
    <glyph glyph-name="Omacron" unicode="&#x14c;" horiz-adv-x="788" 
d="M532 790h-276v55h276v-55zM47 350c0 210 147 360 347 360s347 -150 347 -360s-147 -360 -347 -360s-347 150 -347 360zM638 350c0 189 -92 315 -244 315s-244 -126 -244 -315s92 -315 244 -315s244 126 244 315z" />
    <glyph glyph-name="Obreve" unicode="&#x14e;" horiz-adv-x="788" 
d="M278 942c6 -64 58 -96 116 -96s110 32 116 96h26c-1 -99 -61 -166 -142 -166s-141 67 -142 166h26zM47 350c0 210 147 360 347 360s347 -150 347 -360s-147 -360 -347 -360s-347 150 -347 360zM638 350c0 189 -92 315 -244 315s-244 -126 -244 -315s92 -315 244 -315
s244 126 244 315z" />
    <glyph glyph-name="Ohungarumlaut" unicode="&#x150;" horiz-adv-x="788" 
d="M354 933h111l-155 -164h-20zM513 933h111l-156 -164h-19zM47 350c0 210 147 360 347 360s347 -150 347 -360s-147 -360 -347 -360s-347 150 -347 360zM638 350c0 189 -92 315 -244 315s-244 -126 -244 -315s92 -315 244 -315s244 126 244 315z" />
    <glyph glyph-name="Racute" unicode="&#x154;" horiz-adv-x="721" 
d="M383 933h120l-159 -164h-19zM201 661v-302h147c96 0 178 36 178 155c0 105 -73 147 -178 147h-147zM201 319v-207c0 -66 17 -78 64 -104v-8h-218v8c47 26 63 38 63 104v476c0 66 -16 78 -63 104v8h317c144 0 261 -49 261 -185c0 -125 -103 -175 -207 -176v-3
c89 -10 132 -54 156 -127l29 -84c24 -71 55 -93 114 -117v-8h-159c-20 40 -27 60 -44 108l-33 96c-27 77 -54 115 -149 115h-131z" />
    <glyph glyph-name="uni0156" unicode="&#x156;" horiz-adv-x="721" 
d="M201 661v-302h147c96 0 178 36 178 155c0 105 -73 147 -178 147h-147zM201 319v-207c0 -66 17 -78 64 -104v-8h-218v8c47 26 63 38 63 104v476c0 66 -16 78 -63 104v8h317c144 0 261 -49 261 -185c0 -125 -103 -175 -207 -176v-3c89 -10 132 -54 156 -127l29 -84
c24 -71 55 -93 114 -117v-8h-159c-20 40 -27 60 -44 108l-33 96c-27 77 -54 115 -149 115h-131zM367 -151c-9 -7 -19 -10 -33 -10c-29 0 -51 23 -51 49c0 32 24 55 58 55c42 0 73 -32 73 -84c0 -57 -46 -110 -140 -113v26c51 5 93 27 93 77z" />
    <glyph glyph-name="Rcaron" unicode="&#x158;" horiz-adv-x="721" 
d="M504 946c-54 -49 -122 -127 -151 -184h-18c-29 57 -97 135 -151 184h32c52 -28 90 -54 128 -91c38 37 76 63 128 91h32zM201 661v-302h147c96 0 178 36 178 155c0 105 -73 147 -178 147h-147zM201 319v-207c0 -66 17 -78 64 -104v-8h-218v8c47 26 63 38 63 104v476
c0 66 -16 78 -63 104v8h317c144 0 261 -49 261 -185c0 -125 -103 -175 -207 -176v-3c89 -10 132 -54 156 -127l29 -84c24 -71 55 -93 114 -117v-8h-159c-20 40 -27 60 -44 108l-33 96c-27 77 -54 115 -149 115h-131z" />
    <glyph glyph-name="Sacute" unicode="&#x15a;" horiz-adv-x="603" 
d="M336 933h120l-159 -164h-19zM291 669c-79 0 -141 -45 -141 -120c0 -76 49 -112 135 -134l86 -23c109 -30 173 -81 173 -198c0 -135 -115 -204 -243 -204c-79 0 -150 32 -184 57l-45 -57h-9l-12 221h13c59 -116 131 -177 237 -177c99 0 159 52 159 141
c0 68 -42 110 -118 130l-92 25c-116 31 -184 83 -184 192c0 113 92 188 225 188c74 0 131 -28 166 -46l44 46h8l1 -200h-10c-59 100 -107 159 -209 159z" />
    <glyph glyph-name="Scircumflex" unicode="&#x15c;" horiz-adv-x="603" 
d="M307 950c29 -57 97 -135 151 -184h-32c-52 28 -90 54 -128 91c-38 -37 -76 -63 -128 -91h-32c54 49 122 127 151 184h18zM291 669c-79 0 -141 -45 -141 -120c0 -76 49 -112 135 -134l86 -23c109 -30 173 -81 173 -198c0 -135 -115 -204 -243 -204c-79 0 -150 32 -184 57
l-45 -57h-9l-12 221h13c59 -116 131 -177 237 -177c99 0 159 52 159 141c0 68 -42 110 -118 130l-92 25c-116 31 -184 83 -184 192c0 113 92 188 225 188c74 0 131 -28 166 -46l44 46h8l1 -200h-10c-59 100 -107 159 -209 159z" />
    <glyph glyph-name="uni015E" unicode="&#x15e;" horiz-adv-x="603" 
d="M272 -222c-51 0 -92 22 -109 53l15 20c22 -24 48 -36 79 -36s55 15 55 47c0 37 -33 56 -96 58l35 74c-58 10 -107 33 -134 53l-45 -57h-9l-12 221h13c59 -116 131 -177 237 -177c99 0 159 52 159 141c0 68 -42 110 -118 130l-92 25c-116 31 -184 83 -184 192
c0 113 92 188 225 188c74 0 131 -28 166 -46l44 46h8l1 -200h-10c-59 100 -107 159 -209 159c-79 0 -141 -45 -141 -120c0 -76 49 -112 135 -134l86 -23c109 -30 173 -81 173 -198c0 -135 -115 -204 -243 -204h-14l-22 -47c70 -2 121 -31 121 -81c0 -53 -51 -84 -114 -84z
" />
    <glyph glyph-name="uni0218" unicode="&#x218;" horiz-adv-x="603" 
d="M291 669c-79 0 -141 -45 -141 -120c0 -76 49 -112 135 -134l86 -23c109 -30 173 -81 173 -198c0 -135 -115 -204 -243 -204c-79 0 -150 32 -184 57l-45 -57h-9l-12 221h13c59 -116 131 -177 237 -177c99 0 159 52 159 141c0 68 -42 110 -118 130l-92 25
c-116 31 -184 83 -184 192c0 113 92 188 225 188c74 0 131 -28 166 -46l44 46h8l1 -200h-10c-59 100 -107 159 -209 159zM321 -151c-9 -7 -19 -10 -33 -10c-29 0 -51 23 -51 49c0 32 24 55 58 55c42 0 73 -32 73 -84c0 -57 -46 -110 -140 -113v26c51 5 93 27 93 77z" />
    <glyph glyph-name="uni0162" unicode="&#x162;" horiz-adv-x="733" 
d="M361 -222c-51 0 -92 22 -109 53l15 20c22 -24 48 -36 79 -36s55 15 55 47c0 37 -33 56 -96 58l38 80h-94v8c55 26 72 39 72 105v550h-98c-94 0 -127 -58 -185 -145h-9l33 188c15 -3 30 -6 60 -6h489c30 0 45 3 60 6l33 -188h-9c-58 87 -91 145 -184 145h-99v-550
c0 -66 18 -79 73 -105v-8h-105l-26 -57c70 -2 121 -31 121 -81c0 -53 -51 -84 -114 -84z" />
    <glyph glyph-name="Tcaron" unicode="&#x164;" horiz-adv-x="733" 
d="M527 946c-54 -49 -122 -127 -151 -184h-18c-29 57 -97 135 -151 184h32c52 -28 90 -54 128 -91c38 37 76 63 128 91h32zM122 700h489c30 0 45 3 60 6l33 -188h-9c-58 87 -91 145 -184 145h-99v-550c0 -66 18 -79 73 -105v-8h-236v8c55 26 72 39 72 105v550h-98
c-94 0 -127 -58 -185 -145h-9l33 188c15 -3 30 -6 60 -6z" />
    <glyph glyph-name="uni021A" unicode="&#x21a;" horiz-adv-x="733" 
d="M122 700h489c30 0 45 3 60 6l33 -188h-9c-58 87 -91 145 -184 145h-99v-550c0 -66 18 -79 73 -105v-8h-236v8c55 26 72 39 72 105v550h-98c-94 0 -127 -58 -185 -145h-9l33 188c15 -3 30 -6 60 -6zM390 -151c-9 -7 -19 -10 -33 -10c-29 0 -51 23 -51 49c0 32 24 55 58 55
c42 0 73 -32 73 -84c0 -57 -46 -110 -140 -113v26c51 5 93 27 93 77z" />
    <glyph glyph-name="Utilde" unicode="&#x168;" horiz-adv-x="759" 
d="M232 786h-25c25 88 63 137 111 137c55 0 105 -64 150 -64c40 0 59 27 78 68h25c-25 -87 -63 -136 -111 -136c-55 0 -105 63 -150 63c-40 0 -59 -27 -78 -68zM612 587c0 66 -28 79 -76 105v8h199v-8c-47 -26 -73 -39 -73 -105v-319c0 -183 -116 -278 -275 -278
c-198 0 -290 109 -290 278v320c0 66 -17 78 -64 104v8h219v-8c-47 -26 -64 -38 -64 -104v-308c0 -158 77 -237 205 -237c131 0 219 70 219 236v308z" />
    <glyph glyph-name="Umacron" unicode="&#x16a;" horiz-adv-x="759" 
d="M527 790h-276v55h276v-55zM612 587c0 66 -28 79 -76 105v8h199v-8c-47 -26 -73 -39 -73 -105v-319c0 -183 -116 -278 -275 -278c-198 0 -290 109 -290 278v320c0 66 -17 78 -64 104v8h219v-8c-47 -26 -64 -38 -64 -104v-308c0 -158 77 -237 205 -237
c131 0 219 70 219 236v308z" />
    <glyph glyph-name="Ubreve" unicode="&#x16c;" horiz-adv-x="759" 
d="M273 942c6 -64 58 -96 116 -96s110 32 116 96h26c-1 -99 -61 -166 -142 -166s-141 67 -142 166h26zM612 587c0 66 -28 79 -76 105v8h199v-8c-47 -26 -73 -39 -73 -105v-319c0 -183 -116 -278 -275 -278c-198 0 -290 109 -290 278v320c0 66 -17 78 -64 104v8h219v-8
c-47 -26 -64 -38 -64 -104v-308c0 -158 77 -237 205 -237c131 0 219 70 219 236v308z" />
    <glyph glyph-name="Uring" unicode="&#x16e;" horiz-adv-x="759" 
d="M282 852c0 57 49 105 107 105s107 -48 107 -105c0 -58 -49 -106 -107 -106s-107 48 -107 106zM451 852c0 37 -25 63 -62 63s-62 -26 -62 -63c0 -36 25 -62 62 -62s62 26 62 62zM612 587c0 66 -28 79 -76 105v8h199v-8c-47 -26 -73 -39 -73 -105v-319
c0 -183 -116 -278 -275 -278c-198 0 -290 109 -290 278v320c0 66 -17 78 -64 104v8h219v-8c-47 -26 -64 -38 -64 -104v-308c0 -158 77 -237 205 -237c131 0 219 70 219 236v308z" />
    <glyph glyph-name="Uhungarumlaut" unicode="&#x170;" horiz-adv-x="759" 
d="M349 933h111l-155 -164h-20zM508 933h111l-156 -164h-19zM612 587c0 66 -28 79 -76 105v8h199v-8c-47 -26 -73 -39 -73 -105v-319c0 -183 -116 -278 -275 -278c-198 0 -290 109 -290 278v320c0 66 -17 78 -64 104v8h219v-8c-47 -26 -64 -38 -64 -104v-308
c0 -158 77 -237 205 -237c131 0 219 70 219 236v308z" />
    <glyph glyph-name="Uogonek" unicode="&#x172;" horiz-adv-x="759" 
d="M398 -237c-48 0 -93 32 -93 87c0 61 52 103 114 142c-10 -1 -21 -2 -32 -2c-198 0 -290 109 -290 278v320c0 66 -17 78 -64 104v8h219v-8c-47 -26 -64 -38 -64 -104v-308c0 -158 77 -237 205 -237c131 0 219 70 219 236v308c0 66 -28 79 -76 105v8h199v-8
c-47 -26 -73 -39 -73 -105v-319c0 -146 -79 -223 -184 -272c-64 -29 -104 -79 -104 -126c0 -40 25 -57 55 -57c38 0 69 22 96 55l14 -12c-23 -47 -70 -93 -141 -93z" />
    <glyph glyph-name="Wcircumflex" unicode="&#x174;" horiz-adv-x="996" 
d="M516 950c29 -57 97 -135 151 -184h-32c-52 28 -90 54 -128 91c-38 -37 -76 -63 -128 -91h-32c54 49 122 127 151 184h18zM685 -10l-189 547l-181 -547h-9l-211 596c-22 60 -40 75 -83 106v8h213v-8c-40 -18 -54 -30 -54 -51c0 -13 5 -26 11 -45l150 -429l140 438
c-17 43 -34 60 -72 87v8h212v-8c-40 -18 -57 -30 -57 -51c0 -13 4 -27 10 -45l144 -435l144 433c6 18 8 27 8 39c0 22 -22 35 -64 59v8h189v-8c-44 -31 -66 -48 -86 -106l-206 -596h-9z" />
    <glyph glyph-name="Wgrave" unicode="&#x1e80;" horiz-adv-x="996" 
d="M352 933h120l58 -164h-19zM685 -10l-189 547l-181 -547h-9l-211 596c-22 60 -40 75 -83 106v8h213v-8c-40 -18 -54 -30 -54 -51c0 -13 5 -26 11 -45l150 -429l140 438c-17 43 -34 60 -72 87v8h212v-8c-40 -18 -57 -30 -57 -51c0 -13 4 -27 10 -45l144 -435l144 433
c6 18 8 27 8 39c0 22 -22 35 -64 59v8h189v-8c-44 -31 -66 -48 -86 -106l-206 -596h-9z" />
    <glyph glyph-name="Wacute" unicode="&#x1e82;" horiz-adv-x="996" 
d="M546 933h120l-159 -164h-19zM685 -10l-189 547l-181 -547h-9l-211 596c-22 60 -40 75 -83 106v8h213v-8c-40 -18 -54 -30 -54 -51c0 -13 5 -26 11 -45l150 -429l140 438c-17 43 -34 60 -72 87v8h212v-8c-40 -18 -57 -30 -57 -51c0 -13 4 -27 10 -45l144 -435l144 433
c6 18 8 27 8 39c0 22 -22 35 -64 59v8h189v-8c-44 -31 -66 -48 -86 -106l-206 -596h-9z" />
    <glyph glyph-name="Wdieresis" unicode="&#x1e84;" horiz-adv-x="996" 
d="M417 780c-34 0 -59 27 -59 60c0 32 25 59 59 59c33 0 59 -27 59 -59c0 -33 -26 -60 -59 -60zM597 780c-33 0 -60 27 -60 60c0 32 27 59 60 59s59 -27 59 -59c0 -33 -26 -60 -59 -60zM685 -10l-189 547l-181 -547h-9l-211 596c-22 60 -40 75 -83 106v8h213v-8
c-40 -18 -54 -30 -54 -51c0 -13 5 -26 11 -45l150 -429l140 438c-17 43 -34 60 -72 87v8h212v-8c-40 -18 -57 -30 -57 -51c0 -13 4 -27 10 -45l144 -435l144 433c6 18 8 27 8 39c0 22 -22 35 -64 59v8h189v-8c-44 -31 -66 -48 -86 -106l-206 -596h-9z" />
    <glyph glyph-name="Ycircumflex" unicode="&#x176;" horiz-adv-x="676" 
d="M355 950c29 -57 97 -135 151 -184h-32c-52 28 -90 54 -128 91c-38 -37 -76 -63 -128 -91h-32c54 49 122 127 151 184h18zM362 341l163 260c11 16 14 31 14 39c0 19 -19 32 -51 52v8h176v-8c-40 -30 -60 -52 -93 -104l-188 -296v-180c0 -66 17 -78 72 -104v-8h-234v8
c55 26 72 38 72 104v180l-188 296c-33 52 -52 74 -93 104v8h204v-8c-26 -16 -33 -28 -33 -46c0 -15 4 -29 15 -45z" />
    <glyph glyph-name="Ygrave" unicode="&#x1ef2;" horiz-adv-x="676" 
d="M191 933h120l58 -164h-19zM362 341l163 260c11 16 14 31 14 39c0 19 -19 32 -51 52v8h176v-8c-40 -30 -60 -52 -93 -104l-188 -296v-180c0 -66 17 -78 72 -104v-8h-234v8c55 26 72 38 72 104v180l-188 296c-33 52 -52 74 -93 104v8h204v-8c-26 -16 -33 -28 -33 -46
c0 -15 4 -29 15 -45z" />
    <glyph glyph-name="Zacute" unicode="&#x179;" horiz-adv-x="698" 
d="M390 933h120l-159 -164h-19zM619 0h-573v4l461 656h-228c-112 0 -137 -46 -196 -136h-11l24 182c15 -3 30 -6 60 -6h481v-4l-459 -656h247c110 0 146 36 216 138h10z" />
    <glyph glyph-name="Zdotaccent" unicode="&#x17b;" horiz-adv-x="698" 
d="M352 786c-35 0 -63 28 -63 62c0 35 28 63 63 63s63 -28 63 -63c0 -34 -28 -62 -63 -62zM619 0h-573v4l461 656h-228c-112 0 -137 -46 -196 -136h-11l24 182c15 -3 30 -6 60 -6h481v-4l-459 -656h247c110 0 146 36 216 138h10z" />
    <glyph glyph-name="AEacute" unicode="&#x1fc;" horiz-adv-x="1088" 
d="M703 933h120l-159 -164h-19zM300 304h241v349zM191 8v-8h-179v8c44 31 65 50 102 105l341 496c7 10 9 19 9 28c0 20 -28 36 -62 55v8h524c30 0 45 3 60 6l34 -159h-8c-64 76 -92 114 -206 114h-174v-282h143c81 0 96 9 129 96h9v-231h-9c-33 88 -48 96 -129 96h-143v-301
h197c110 0 148 35 213 132h8l-32 -171h-541v8c47 26 64 38 64 104v151h-269l-110 -159c-14 -19 -24 -36 -24 -49c0 -18 10 -25 53 -47z" />
    <glyph glyph-name="Oslashacute" unicode="&#x1fe;" horiz-adv-x="788" 
d="M433 933h120l-159 -164h-19zM394 665c-152 0 -244 -126 -244 -315c0 -77 18 -144 49 -195l370 421c-40 57 -99 89 -175 89zM394 35c152 0 244 126 244 315c0 74 -17 138 -46 188l-370 -419c41 -54 99 -84 172 -84zM741 350c0 -210 -147 -360 -347 -360
c-85 0 -161 28 -220 76l-88 -99l-31 27l88 100c-60 63 -96 152 -96 256c0 210 147 360 347 360c88 0 166 -29 225 -79l77 85l31 -27l-78 -88c58 -62 92 -150 92 -251z" />
    <glyph glyph-name="Dcroat" unicode="&#x110;" horiz-adv-x="770" 
d="M337 0h-278v8c47 26 63 38 63 104v227h-73v41h73v208c0 66 -16 78 -63 104v8h273c243 0 390 -135 390 -349c0 -218 -149 -351 -385 -351zM213 40h115c190 0 293 117 293 311c0 188 -103 309 -296 309h-112v-280h177v-41h-177v-299z" />
    <glyph glyph-name="Hbar" unicode="&#x126;" horiz-adv-x="846" 
d="M633 465h-419v-137h419v137zM59 0v8c47 26 64 38 64 104v353h-74v41h74v82c0 66 -17 78 -64 104v8h218v-8c-47 -26 -63 -38 -63 -104v-82h419v82c0 66 -17 78 -64 104v8h218v-8c-47 -26 -63 -38 -63 -104v-82h73v-41h-73v-353c0 -66 16 -78 63 -104v-8h-218v8
c47 26 64 38 64 104v175h-419v-175c0 -66 16 -78 63 -104v-8h-218z" />
    <glyph glyph-name="Ldot" unicode="&#x13f;" horiz-adv-x="630" 
d="M201 588v-549h173c110 0 146 38 220 155h8l-37 -194h-518v8c47 26 63 38 63 104v476c0 66 -16 78 -63 104v8h218v-8c-47 -26 -64 -38 -64 -104zM516 336c-35 0 -63 28 -63 62c0 35 28 63 63 63s63 -28 63 -63c0 -34 -28 -62 -63 -62z" />
    <glyph glyph-name="Eng" unicode="&#x14a;" horiz-adv-x="780" 
d="M626 -48v70l-467 595v-505c0 -66 25 -78 72 -104v-8h-192v8c47 26 71 38 71 104v476c0 66 -16 78 -63 104v8h165l414 -526v414c0 66 -25 78 -72 104v8h192v-8c-47 -26 -71 -38 -71 -104v-624c0 -117 -53 -189 -156 -189c-75 0 -135 40 -135 94c0 39 28 57 64 57
c9 0 20 -2 26 -4c-7 -13 -10 -28 -10 -46c0 -35 22 -65 67 -65c57 0 95 54 95 141z" />
    <glyph glyph-name="Tbar" unicode="&#x166;" horiz-adv-x="733" 
d="M249 0v8c55 26 72 39 72 105v232h-138v41h138v277h-98c-94 0 -127 -58 -185 -145h-9l33 188c15 -3 30 -6 60 -6h489c30 0 45 3 60 6l33 -188h-9c-58 87 -91 145 -184 145h-99v-277h138v-41h-138v-232c0 -66 18 -79 73 -105v-8h-236z" />
    <glyph glyph-name="amacron" unicode="&#x101;" horiz-adv-x="542" 
d="M401 590h-276v55h276v-55zM360 255l-73 -15c-97 -19 -150 -46 -150 -116c0 -55 34 -82 88 -82c63 0 135 54 135 161v52zM545 23v-13c-22 -8 -55 -17 -89 -17c-61 0 -91 33 -94 106c-22 -63 -91 -109 -173 -109c-80 0 -144 42 -144 124c0 107 114 139 235 161l80 14v38
c0 93 -32 130 -110 130c-59 0 -95 -29 -95 -77c0 -22 7 -36 18 -49c-10 -9 -31 -15 -49 -15c-33 0 -56 20 -56 58c0 64 73 122 194 122c126 0 188 -57 188 -166c0 -89 -3 -163 -3 -224c0 -57 30 -78 98 -83z" />
    <glyph glyph-name="abreve" unicode="&#x103;" horiz-adv-x="542" 
d="M147 742c6 -71 58 -104 116 -104s110 33 116 104h26c-1 -106 -61 -174 -142 -174s-141 68 -142 174h26zM360 255l-73 -15c-97 -19 -150 -46 -150 -116c0 -55 34 -82 88 -82c63 0 135 54 135 161v52zM545 23v-13c-22 -8 -55 -17 -89 -17c-61 0 -91 33 -94 106
c-22 -63 -91 -109 -173 -109c-80 0 -144 42 -144 124c0 107 114 139 235 161l80 14v38c0 93 -32 130 -110 130c-59 0 -95 -29 -95 -77c0 -22 7 -36 18 -49c-10 -9 -31 -15 -49 -15c-33 0 -56 20 -56 58c0 64 73 122 194 122c126 0 188 -57 188 -166c0 -89 -3 -163 -3 -224
c0 -57 30 -78 98 -83z" />
    <glyph glyph-name="aogonek" unicode="&#x105;" horiz-adv-x="542" 
d="M425 -237c-48 0 -93 32 -93 87c0 62 53 104 117 143c-56 3 -84 36 -87 106c-22 -63 -91 -109 -173 -109c-80 0 -144 42 -144 124c0 107 114 139 235 161l80 14v38c0 93 -32 130 -110 130c-59 0 -95 -29 -95 -77c0 -22 7 -36 18 -49c-10 -9 -31 -15 -49 -15
c-33 0 -56 20 -56 58c0 64 73 122 194 122c126 0 188 -57 188 -166c0 -89 -3 -163 -3 -224c0 -57 30 -78 98 -83v-13c-83 -26 -144 -84 -144 -140c0 -40 25 -57 55 -57c38 0 69 22 96 55l14 -12c-23 -47 -70 -93 -141 -93zM360 255l-73 -15c-97 -19 -150 -46 -150 -116
c0 -55 34 -82 88 -82c63 0 135 54 135 161v52z" />
    <glyph glyph-name="cacute" unicode="&#x107;" horiz-adv-x="509" 
d="M335 749h111l-159 -188h-19zM288 456c-96 0 -152 -92 -152 -206c0 -128 63 -205 162 -205c70 0 127 36 156 113l19 -8c-22 -100 -92 -160 -201 -160c-129 0 -231 89 -231 246c0 158 109 260 246 260c101 0 176 -51 176 -122c0 -47 -35 -62 -65 -62c-9 0 -21 2 -26 7
c5 13 10 21 10 43c0 52 -29 94 -94 94z" />
    <glyph glyph-name="ccircumflex" unicode="&#x109;" horiz-adv-x="509" 
d="M294 756c29 -57 93 -149 148 -204h-28c-51 29 -90 66 -128 103c-38 -37 -77 -74 -128 -103h-28c55 55 119 147 148 204h16zM288 456c-96 0 -152 -92 -152 -206c0 -128 63 -205 162 -205c70 0 127 36 156 113l19 -8c-22 -100 -92 -160 -201 -160c-129 0 -231 89 -231 246
c0 158 109 260 246 260c101 0 176 -51 176 -122c0 -47 -35 -62 -65 -62c-9 0 -21 2 -26 7c5 13 10 21 10 43c0 52 -29 94 -94 94z" />
    <glyph glyph-name="cdotaccent" unicode="&#x10b;" horiz-adv-x="509" 
d="M286 594c-35 0 -63 28 -63 62c0 35 28 63 63 63s63 -28 63 -63c0 -34 -28 -62 -63 -62zM288 456c-96 0 -152 -92 -152 -206c0 -128 63 -205 162 -205c70 0 127 36 156 113l19 -8c-22 -100 -92 -160 -201 -160c-129 0 -231 89 -231 246c0 158 109 260 246 260
c101 0 176 -51 176 -122c0 -47 -35 -62 -65 -62c-9 0 -21 2 -26 7c5 13 10 21 10 43c0 52 -29 94 -94 94z" />
    <glyph glyph-name="ccaron" unicode="&#x10d;" horiz-adv-x="509" 
d="M442 756c-55 -54 -119 -146 -148 -203h-16c-29 57 -93 149 -148 203h28c51 -29 90 -65 128 -102c38 37 77 73 128 102h28zM288 456c-96 0 -152 -92 -152 -206c0 -128 63 -205 162 -205c70 0 127 36 156 113l19 -8c-22 -100 -92 -160 -201 -160c-129 0 -231 89 -231 246
c0 158 109 260 246 260c101 0 176 -51 176 -122c0 -47 -35 -62 -65 -62c-9 0 -21 2 -26 7c5 13 10 21 10 43c0 52 -29 94 -94 94z" />
    <glyph glyph-name="dcaron" unicode="&#x10f;" horiz-adv-x="618" 
d="M733 749l-97 -205h-18l18 205h97zM437 225v66c0 107 -79 156 -147 156c-92 0 -154 -78 -154 -210c0 -117 57 -193 152 -193c90 0 149 85 149 181zM440 0l-3 120c-23 -71 -87 -130 -180 -130c-123 0 -216 89 -216 247s105 259 226 259c91 0 146 -45 170 -97v246
c0 55 -30 73 -68 97v7h156v-640c0 -66 13 -75 56 -102v-7h-141z" />
    <glyph glyph-name="emacron" unicode="&#x113;" horiz-adv-x="530" 
d="M413 590h-276v55h276v-55zM274 496c137 0 216 -90 216 -244h-355c0 -129 63 -208 169 -208c76 0 131 36 160 114l21 -7c-23 -102 -95 -161 -207 -161c-131 0 -237 89 -237 247s104 259 233 259zM137 290h259c-2 85 -28 166 -123 166c-79 0 -127 -67 -136 -166z" />
    <glyph glyph-name="ebreve" unicode="&#x115;" horiz-adv-x="530" 
d="M159 742c6 -71 58 -104 116 -104s110 33 116 104h26c-1 -106 -61 -174 -142 -174s-141 68 -142 174h26zM274 496c137 0 216 -90 216 -244h-355c0 -129 63 -208 169 -208c76 0 131 36 160 114l21 -7c-23 -102 -95 -161 -207 -161c-131 0 -237 89 -237 247s104 259 233 259
zM137 290h259c-2 85 -28 166 -123 166c-79 0 -127 -67 -136 -166z" />
    <glyph glyph-name="edotaccent" unicode="&#x117;" horiz-adv-x="530" 
d="M275 594c-35 0 -63 28 -63 62c0 35 28 63 63 63s63 -28 63 -63c0 -34 -28 -62 -63 -62zM274 496c137 0 216 -90 216 -244h-355c0 -129 63 -208 169 -208c76 0 131 36 160 114l21 -7c-23 -102 -95 -161 -207 -161c-131 0 -237 89 -237 247s104 259 233 259zM137 290h259
c-2 85 -28 166 -123 166c-79 0 -127 -67 -136 -166z" />
    <glyph glyph-name="eogonek" unicode="&#x119;" horiz-adv-x="530" 
d="M292 -237c-49 0 -93 32 -93 87c0 59 50 103 110 142c-10 -1 -20 -2 -31 -2c-131 0 -237 89 -237 247s104 259 233 259c137 0 216 -90 216 -244h-355c0 -129 63 -208 169 -208c76 0 131 36 160 114l21 -7c-16 -68 -57 -111 -110 -144c-66 -41 -108 -90 -108 -137
c0 -40 26 -57 56 -57c37 0 69 22 96 55l14 -12c-24 -47 -70 -93 -141 -93zM137 290h259c-2 85 -28 166 -123 166c-79 0 -127 -67 -136 -166z" />
    <glyph glyph-name="ecaron" unicode="&#x11b;" horiz-adv-x="530" 
d="M431 756c-55 -54 -119 -146 -148 -203h-16c-29 57 -93 149 -148 203h28c51 -29 90 -65 128 -102c38 37 77 73 128 102h28zM274 496c137 0 216 -90 216 -244h-355c0 -129 63 -208 169 -208c76 0 131 36 160 114l21 -7c-23 -102 -95 -161 -207 -161
c-131 0 -237 89 -237 247s104 259 233 259zM137 290h259c-2 85 -28 166 -123 166c-79 0 -127 -67 -136 -166z" />
    <glyph glyph-name="gcircumflex" unicode="&#x11d;" horiz-adv-x="572" 
d="M300 756c29 -57 93 -149 148 -204h-28c-51 29 -90 66 -128 103c-38 -37 -77 -74 -128 -103h-28c55 55 119 147 148 204h16zM364 335c0 82 -38 124 -100 124s-100 -42 -100 -124s38 -124 100 -124s100 42 100 124zM528 -49c0 -118 -127 -176 -267 -176
c-124 0 -239 40 -239 134c0 55 50 94 134 106c-53 10 -97 34 -97 90c0 49 38 84 83 101c-45 29 -69 76 -69 129c0 89 67 161 191 161c59 0 106 -16 138 -43c26 35 62 70 105 70c37 0 62 -23 62 -58c0 -31 -26 -54 -56 -54c0 27 -12 49 -40 49c-18 0 -35 -10 -51 -28
c23 -27 34 -60 34 -97c0 -89 -68 -161 -192 -161c-39 0 -73 7 -100 20c-24 -12 -43 -30 -43 -54c0 -37 26 -50 79 -50h139c118 0 189 -46 189 -139zM334 8h-105c-84 -3 -126 -35 -126 -93c0 -70 72 -100 158 -100c109 0 189 40 189 112c0 50 -33 81 -116 81z" />
    <glyph glyph-name="gbreve" unicode="&#x11f;" horiz-adv-x="572" 
d="M176 742c6 -71 58 -104 116 -104s110 33 116 104h26c-1 -106 -61 -174 -142 -174s-141 68 -142 174h26zM364 335c0 82 -38 124 -100 124s-100 -42 -100 -124s38 -124 100 -124s100 42 100 124zM528 -49c0 -118 -127 -176 -267 -176c-124 0 -239 40 -239 134
c0 55 50 94 134 106c-53 10 -97 34 -97 90c0 49 38 84 83 101c-45 29 -69 76 -69 129c0 89 67 161 191 161c59 0 106 -16 138 -43c26 35 62 70 105 70c37 0 62 -23 62 -58c0 -31 -26 -54 -56 -54c0 27 -12 49 -40 49c-18 0 -35 -10 -51 -28c23 -27 34 -60 34 -97
c0 -89 -68 -161 -192 -161c-39 0 -73 7 -100 20c-24 -12 -43 -30 -43 -54c0 -37 26 -50 79 -50h139c118 0 189 -46 189 -139zM334 8h-105c-84 -3 -126 -35 -126 -93c0 -70 72 -100 158 -100c109 0 189 40 189 112c0 50 -33 81 -116 81z" />
    <glyph glyph-name="gdotaccent" unicode="&#x121;" horiz-adv-x="572" 
d="M292 594c-35 0 -63 28 -63 62c0 35 28 63 63 63s63 -28 63 -63c0 -34 -28 -62 -63 -62zM364 335c0 82 -38 124 -100 124s-100 -42 -100 -124s38 -124 100 -124s100 42 100 124zM528 -49c0 -118 -127 -176 -267 -176c-124 0 -239 40 -239 134c0 55 50 94 134 106
c-53 10 -97 34 -97 90c0 49 38 84 83 101c-45 29 -69 76 -69 129c0 89 67 161 191 161c59 0 106 -16 138 -43c26 35 62 70 105 70c37 0 62 -23 62 -58c0 -31 -26 -54 -56 -54c0 27 -12 49 -40 49c-18 0 -35 -10 -51 -28c23 -27 34 -60 34 -97c0 -89 -68 -161 -192 -161
c-39 0 -73 7 -100 20c-24 -12 -43 -30 -43 -54c0 -37 26 -50 79 -50h139c118 0 189 -46 189 -139zM334 8h-105c-84 -3 -126 -35 -126 -93c0 -70 72 -100 158 -100c109 0 189 40 189 112c0 50 -33 81 -116 81z" />
    <glyph glyph-name="uni0123" unicode="&#x123;" horiz-adv-x="572" 
d="M269 659c9 7 19 10 33 10c29 0 51 -23 51 -49c0 -32 -24 -55 -58 -55c-42 0 -73 32 -73 84c0 57 46 110 140 113v-26c-51 -5 -93 -27 -93 -77zM364 335c0 82 -38 124 -100 124s-100 -42 -100 -124s38 -124 100 -124s100 42 100 124zM528 -49c0 -118 -127 -176 -267 -176
c-124 0 -239 40 -239 134c0 55 50 94 134 106c-53 10 -97 34 -97 90c0 49 38 84 83 101c-45 29 -69 76 -69 129c0 89 67 161 191 161c59 0 106 -16 138 -43c26 35 62 70 105 70c37 0 62 -23 62 -58c0 -31 -26 -54 -56 -54c0 27 -12 49 -40 49c-18 0 -35 -10 -51 -28
c23 -27 34 -60 34 -97c0 -89 -68 -161 -192 -161c-39 0 -73 7 -100 20c-24 -12 -43 -30 -43 -54c0 -37 26 -50 79 -50h139c118 0 189 -46 189 -139zM334 8h-105c-84 -3 -126 -35 -126 -93c0 -70 72 -100 158 -100c109 0 189 40 189 112c0 50 -33 81 -116 81z" />
    <glyph glyph-name="hcircumflex" unicode="&#x125;" horiz-adv-x="608" 
d="M310 984c29 -57 97 -135 151 -184h-32c-52 28 -90 54 -128 91c-38 -37 -76 -63 -128 -91h-32c54 49 122 127 151 184h18zM516 322v-213c0 -66 14 -75 57 -102v-7h-201v7c43 27 57 36 57 102v198c0 66 -26 127 -105 127c-75 0 -140 -63 -140 -178v-147
c0 -66 14 -75 57 -102v-7h-201v7c43 27 57 36 57 102v536c0 55 -30 73 -68 97v7h155v-384c29 84 92 131 176 131c102 0 156 -67 156 -174z" />
    <glyph glyph-name="itilde" unicode="&#x129;" horiz-adv-x="281" 
d="M8 578h-25c24 87 53 136 101 136c53 0 79 -64 121 -64c32 0 50 27 69 68h25c-25 -87 -54 -136 -102 -136c-52 0 -78 63 -121 63c-32 0 -49 -26 -68 -67zM189 486v-377c0 -66 14 -75 57 -102v-7h-201v7c43 27 57 36 57 102v274c0 54 -29 73 -67 97v6h154z" />
    <glyph glyph-name="imacron" unicode="&#x12b;" horiz-adv-x="281" 
d="M263 590h-244v55h244v-55zM189 486v-377c0 -66 14 -75 57 -102v-7h-201v7c43 27 57 36 57 102v274c0 54 -29 73 -67 97v6h154z" />
    <glyph glyph-name="ibreve" unicode="&#x12d;" horiz-adv-x="281" 
d="M25 742c6 -71 58 -104 116 -104s110 33 116 104h26c-1 -106 -61 -174 -142 -174s-141 68 -142 174h26zM189 486v-377c0 -66 14 -75 57 -102v-7h-201v7c43 27 57 36 57 102v274c0 54 -29 73 -67 97v6h154z" />
    <glyph glyph-name="iogonek" unicode="&#x12f;" horiz-adv-x="281" 
d="M77 656c0 35 27 63 63 63c35 0 63 -28 63 -63c0 -34 -28 -62 -63 -62c-36 0 -63 28 -63 62zM257 -144c-23 -47 -70 -93 -141 -93c-48 0 -93 32 -93 87c0 66 60 110 129 150h-107v7c43 27 57 36 57 102v274c0 54 -29 73 -67 97v6h154v-377c0 -66 14 -75 57 -102v-7h-53
c-65 -47 -101 -84 -101 -130c0 -40 25 -57 55 -57c38 0 69 22 96 55z" />
    <glyph glyph-name="jcircumflex" unicode="&#x135;" horiz-adv-x="269" 
d="M146 756c29 -57 93 -149 148 -204h-28c-51 29 -90 66 -128 103c-38 -37 -77 -74 -128 -103h-28c55 55 119 147 148 204h16zM97 -60v443c0 54 -29 73 -68 97v6h155v-520c0 -120 -60 -191 -168 -191c-77 0 -130 35 -130 88c0 39 29 57 65 57c9 0 19 -2 25 -4
c-6 -13 -9 -30 -9 -46c0 -34 22 -61 57 -61c54 0 73 53 73 131z" />
    <glyph glyph-name="uni0137" unicode="&#x137;" horiz-adv-x="581" 
d="M241 7v-7h-201v7c43 27 57 36 57 102v536c0 55 -30 73 -68 97v7h155v-463h24c26 0 39 4 53 18l118 110c14 13 19 20 19 30c0 13 -11 23 -30 36v6h190v-6c-51 -17 -90 -37 -138 -81l-111 -105l160 -203c34 -43 70 -62 117 -83v-8h-172c-6 26 -15 43 -36 70l-124 159
c-12 16 -21 21 -38 21h-32v-141c0 -66 14 -75 57 -102zM331 -151c-9 -7 -19 -10 -33 -10c-29 0 -51 23 -51 49c0 32 24 55 58 55c42 0 73 -32 73 -84c0 -57 -46 -110 -140 -113v26c51 5 93 27 93 77zM975 99c0 -123 -66 -205 -166 -205s-165 82 -165 205s65 205 165 205
s166 -82 166 -205zM891 99c0 109 -25 174 -82 174c-58 0 -82 -65 -82 -174s24 -174 82 -174c57 0 82 65 82 174z" />
    <glyph glyph-name="lacute" unicode="&#x13a;" horiz-adv-x="278" 
d="M173 967h120l-159 -164h-19zM184 749v-640c0 -66 14 -75 57 -102v-7h-201v7c43 27 57 36 57 102v536c0 55 -30 73 -68 97v7h155z" />
    <glyph glyph-name="uni013C" unicode="&#x13c;" horiz-adv-x="278" 
d="M184 749v-640c0 -66 14 -75 57 -102v-7h-201v7c43 27 57 36 57 102v536c0 55 -30 73 -68 97v7h155zM158 -151c-9 -7 -19 -10 -33 -10c-29 0 -51 23 -51 49c0 32 24 55 58 55c42 0 73 -32 73 -84c0 -57 -46 -110 -140 -113v26c51 5 93 27 93 77z" />
    <glyph glyph-name="lcaron" unicode="&#x13e;" horiz-adv-x="278" 
d="M184 749v-640c0 -66 14 -75 57 -102v-7h-201v7c43 27 57 36 57 102v536c0 55 -30 73 -68 97v7h155zM394 749l-97 -205h-18l18 205h97z" />
    <glyph glyph-name="nacute" unicode="&#x144;" horiz-adv-x="613" 
d="M360 749h111l-159 -188h-19zM521 322v-213c0 -66 14 -75 57 -102v-7h-201v7c43 27 57 36 57 102v198c0 66 -26 127 -105 127c-75 0 -140 -63 -140 -178v-147c0 -66 14 -75 57 -102v-7h-201v7c43 27 57 36 57 102v274c0 54 -29 73 -67 97v6h150l4 -121
c29 84 92 131 176 131c102 0 156 -67 156 -174z" />
    <glyph glyph-name="uni0146" unicode="&#x146;" horiz-adv-x="613" 
d="M521 322v-213c0 -66 14 -75 57 -102v-7h-201v7c43 27 57 36 57 102v198c0 66 -26 127 -105 127c-75 0 -140 -63 -140 -178v-147c0 -66 14 -75 57 -102v-7h-201v7c43 27 57 36 57 102v274c0 54 -29 73 -67 97v6h150l4 -121c29 84 92 131 176 131c102 0 156 -67 156 -174z
M334 -151c-9 -7 -19 -10 -33 -10c-29 0 -51 23 -51 49c0 32 24 55 58 55c42 0 73 -32 73 -84c0 -57 -46 -110 -140 -113v26c51 5 93 27 93 77z" />
    <glyph glyph-name="ncaron" unicode="&#x148;" horiz-adv-x="613" 
d="M467 756c-55 -54 -119 -146 -148 -203h-16c-29 57 -93 149 -148 203h28c51 -29 90 -65 128 -102c38 37 77 73 128 102h28zM521 322v-213c0 -66 14 -75 57 -102v-7h-201v7c43 27 57 36 57 102v198c0 66 -26 127 -105 127c-75 0 -140 -63 -140 -178v-147
c0 -66 14 -75 57 -102v-7h-201v7c43 27 57 36 57 102v274c0 54 -29 73 -67 97v6h150l4 -121c29 84 92 131 176 131c102 0 156 -67 156 -174z" />
    <glyph glyph-name="omacron" unicode="&#x14d;" horiz-adv-x="570" 
d="M423 590h-276v55h276v-55zM529 243c0 -148 -104 -253 -244 -253s-244 105 -244 253s104 253 244 253s244 -105 244 -253zM432 243c0 131 -50 212 -147 212s-147 -81 -147 -212s50 -212 147 -212s147 81 147 212z" />
    <glyph glyph-name="obreve" unicode="&#x14f;" horiz-adv-x="570" 
d="M169 742c6 -71 58 -104 116 -104s110 33 116 104h26c-1 -106 -61 -174 -142 -174s-141 68 -142 174h26zM529 243c0 -148 -104 -253 -244 -253s-244 105 -244 253s104 253 244 253s244 -105 244 -253zM432 243c0 131 -50 212 -147 212s-147 -81 -147 -212
s50 -212 147 -212s147 81 147 212z" />
    <glyph glyph-name="ohungarumlaut" unicode="&#x151;" horiz-adv-x="570" 
d="M245 749h110l-155 -188h-20zM404 749h110l-156 -188h-19zM529 243c0 -148 -104 -253 -244 -253s-244 105 -244 253s104 253 244 253s244 -105 244 -253zM432 243c0 131 -50 212 -147 212s-147 -81 -147 -212s50 -212 147 -212s147 81 147 212z" />
    <glyph glyph-name="racute" unicode="&#x155;" horiz-adv-x="450" 
d="M281 749h111l-159 -188h-19zM189 227v-125c0 -58 23 -70 97 -93v-9h-241v7c43 27 57 36 57 102v274c0 54 -29 73 -67 97v6h150l4 -139c26 78 74 149 159 149c52 0 82 -29 82 -72c0 -41 -31 -65 -63 -65c2 39 -15 64 -55 64c-68 0 -123 -89 -123 -196z" />
    <glyph glyph-name="uni0157" unicode="&#x157;" horiz-adv-x="450" 
d="M189 227v-125c0 -58 23 -70 97 -93v-9h-241v7c43 27 57 36 57 102v274c0 54 -29 73 -67 97v6h150l4 -139c26 78 74 149 159 149c52 0 82 -29 82 -72c0 -41 -31 -65 -63 -65c2 39 -15 64 -55 64c-68 0 -123 -89 -123 -196zM175 -151c-9 -7 -19 -10 -33 -10
c-29 0 -51 23 -51 49c0 32 24 55 58 55c42 0 73 -32 73 -84c0 -57 -46 -110 -140 -113v26c51 5 93 27 93 77z" />
    <glyph glyph-name="rcaron" unicode="&#x159;" horiz-adv-x="450" 
d="M388 756c-55 -54 -119 -146 -148 -203h-16c-29 57 -93 149 -148 203h28c51 -29 90 -65 128 -102c38 37 77 73 128 102h28zM189 227v-125c0 -58 23 -70 97 -93v-9h-241v7c43 27 57 36 57 102v274c0 54 -29 73 -67 97v6h150l4 -139c26 78 74 149 159 149
c52 0 82 -29 82 -72c0 -41 -31 -65 -63 -65c2 39 -15 64 -55 64c-68 0 -123 -89 -123 -196z" />
    <glyph glyph-name="sacute" unicode="&#x15b;" horiz-adv-x="489" 
d="M293 749h111l-159 -188h-19zM231 455c-59 0 -93 -30 -93 -74c0 -48 34 -71 120 -88c130 -25 179 -68 179 -150c0 -93 -79 -153 -185 -153c-63 0 -114 23 -147 43l-35 -43h-8l-11 185h14c51 -94 111 -143 187 -143c61 0 108 28 108 87c0 56 -45 74 -129 90
c-124 25 -167 67 -167 146c0 83 71 141 166 141c59 0 101 -19 135 -40l38 40h7v-165h-11c-44 70 -96 124 -168 124z" />
    <glyph glyph-name="scircumflex" unicode="&#x15d;" horiz-adv-x="489" 
d="M252 756c29 -57 93 -149 148 -204h-28c-51 29 -90 66 -128 103c-38 -37 -77 -74 -128 -103h-28c55 55 119 147 148 204h16zM231 455c-59 0 -93 -30 -93 -74c0 -48 34 -71 120 -88c130 -25 179 -68 179 -150c0 -93 -79 -153 -185 -153c-63 0 -114 23 -147 43l-35 -43h-8
l-11 185h14c51 -94 111 -143 187 -143c61 0 108 28 108 87c0 56 -45 74 -129 90c-124 25 -167 67 -167 146c0 83 71 141 166 141c59 0 101 -19 135 -40l38 40h7v-165h-11c-44 70 -96 124 -168 124z" />
    <glyph glyph-name="uni015F" unicode="&#x15f;" horiz-adv-x="489" 
d="M218 -222c-51 0 -92 22 -109 53l15 20c22 -24 48 -36 79 -36s55 15 55 47c0 37 -33 56 -96 58l36 76c-39 8 -70 23 -93 37l-35 -43h-8l-11 185h14c51 -94 111 -143 187 -143c61 0 108 28 108 87c0 56 -45 74 -129 90c-124 25 -167 67 -167 146c0 83 71 141 166 141
c59 0 101 -19 135 -40l38 40h7v-165h-11c-44 70 -96 124 -168 124c-59 0 -93 -30 -93 -74c0 -48 34 -71 120 -88c130 -25 179 -68 179 -150c0 -93 -79 -153 -185 -153c-7 0 -13 0 -19 1l-22 -48c70 -2 121 -31 121 -81c0 -53 -51 -84 -114 -84z" />
    <glyph glyph-name="uni0219" unicode="&#x219;" horiz-adv-x="489" 
d="M231 455c-59 0 -93 -30 -93 -74c0 -48 34 -71 120 -88c130 -25 179 -68 179 -150c0 -93 -79 -153 -185 -153c-63 0 -114 23 -147 43l-35 -43h-8l-11 185h14c51 -94 111 -143 187 -143c61 0 108 28 108 87c0 56 -45 74 -129 90c-124 25 -167 67 -167 146
c0 83 71 141 166 141c59 0 101 -19 135 -40l38 40h7v-165h-11c-44 70 -96 124 -168 124zM267 -151c-9 -7 -19 -10 -33 -10c-29 0 -51 23 -51 49c0 32 24 55 58 55c42 0 73 -32 73 -84c0 -57 -46 -110 -140 -113v26c51 5 93 27 93 77z" />
    <glyph glyph-name="uni0163" unicode="&#x163;" horiz-adv-x="415" 
d="M238 -222c-51 0 -92 22 -109 53l15 20c22 -24 48 -36 79 -36s55 15 55 47c0 37 -33 56 -96 58l34 71c-70 9 -116 56 -116 135l1 317h-79v26c84 17 123 82 139 181h28v-166h173l-5 -41h-168v-306c0 -58 28 -89 78 -89c53 0 86 34 100 107l20 -4c-7 -89 -53 -154 -134 -160
l-22 -48c70 -2 121 -31 121 -81c0 -53 -51 -84 -114 -84z" />
    <glyph glyph-name="tcaron" unicode="&#x165;" horiz-adv-x="415" 
d="M378 777l-97 -205h-18l18 205h97zM22 443v26c84 17 123 82 139 181h28v-166h173l-5 -41h-168v-306c0 -58 28 -89 78 -89c53 0 86 34 100 107l20 -4c-7 -94 -58 -161 -148 -161c-83 0 -139 49 -139 136l1 317h-79z" />
    <glyph glyph-name="uni021B" unicode="&#x21b;" horiz-adv-x="415" 
d="M22 443v26c84 17 123 82 139 181h28v-166h173l-5 -41h-168v-306c0 -58 28 -89 78 -89c53 0 86 34 100 107l20 -4c-7 -94 -58 -161 -148 -161c-83 0 -139 49 -139 136l1 317h-79zM219 -151c-9 -7 -19 -10 -33 -10c-29 0 -51 23 -51 49c0 32 24 55 58 55
c42 0 73 -32 73 -84c0 -57 -46 -110 -140 -113v26c51 5 93 27 93 77z" />
    <glyph glyph-name="utilde" unicode="&#x169;" horiz-adv-x="598" 
d="M141 578h-25c25 87 61 136 109 136c53 0 103 -64 146 -64c40 0 57 27 76 68h25c-25 -87 -61 -136 -109 -136c-53 0 -103 64 -146 64c-40 0 -57 -27 -76 -68zM179 486v-306c0 -66 26 -129 104 -129c76 0 137 65 137 179v153c0 54 -29 73 -68 97v6h155v-377
c0 -66 14 -75 57 -102v-7h-144v123c-28 -86 -88 -133 -173 -133c-100 0 -155 66 -155 173v220c0 54 -29 73 -67 97v6h154z" />
    <glyph glyph-name="umacron" unicode="&#x16b;" horiz-adv-x="598" 
d="M432 590h-276v55h276v-55zM179 486v-306c0 -66 26 -129 104 -129c76 0 137 65 137 179v153c0 54 -29 73 -68 97v6h155v-377c0 -66 14 -75 57 -102v-7h-144v123c-28 -86 -88 -133 -173 -133c-100 0 -155 66 -155 173v220c0 54 -29 73 -67 97v6h154z" />
    <glyph glyph-name="ubreve" unicode="&#x16d;" horiz-adv-x="598" 
d="M178 742c6 -71 58 -104 116 -104s110 33 116 104h26c-1 -106 -61 -174 -142 -174s-141 68 -142 174h26zM179 486v-306c0 -66 26 -129 104 -129c76 0 137 65 137 179v153c0 54 -29 73 -68 97v6h155v-377c0 -66 14 -75 57 -102v-7h-144v123c-28 -86 -88 -133 -173 -133
c-100 0 -155 66 -155 173v220c0 54 -29 73 -67 97v6h154z" />
    <glyph glyph-name="uring" unicode="&#x16f;" horiz-adv-x="598" 
d="M187 663c0 57 49 105 107 105s107 -48 107 -105c0 -59 -49 -106 -107 -106s-107 47 -107 106zM356 663c0 36 -25 63 -62 63s-62 -27 -62 -63c0 -37 25 -62 62 -62s62 25 62 62zM179 486v-306c0 -66 26 -129 104 -129c76 0 137 65 137 179v153c0 54 -29 73 -68 97v6h155
v-377c0 -66 14 -75 57 -102v-7h-144v123c-28 -86 -88 -133 -173 -133c-100 0 -155 66 -155 173v220c0 54 -29 73 -67 97v6h154z" />
    <glyph glyph-name="uhungarumlaut" unicode="&#x171;" horiz-adv-x="598" 
d="M253 749h110l-155 -188h-20zM412 749h110l-156 -188h-19zM179 486v-306c0 -66 26 -129 104 -129c76 0 137 65 137 179v153c0 54 -29 73 -68 97v6h155v-377c0 -66 14 -75 57 -102v-7h-144v123c-28 -86 -88 -133 -173 -133c-100 0 -155 66 -155 173v220c0 54 -29 73 -67 97
v6h154z" />
    <glyph glyph-name="uogonek" unicode="&#x173;" horiz-adv-x="598" 
d="M524 -144c-23 -47 -69 -93 -141 -93c-48 0 -93 32 -93 87c0 67 61 110 130 150v123c-28 -86 -88 -133 -173 -133c-100 0 -155 66 -155 173v220c0 54 -29 73 -67 97v6h154v-306c0 -66 26 -129 104 -129c76 0 137 65 137 179v153c0 54 -29 73 -68 97v6h155v-377
c0 -66 14 -75 57 -102v-7h-104c-65 -47 -101 -84 -101 -130c0 -40 25 -57 55 -57c38 0 69 22 97 55z" />
    <glyph glyph-name="wcircumflex" unicode="&#x175;" horiz-adv-x="729" 
d="M382 756c29 -57 93 -149 148 -204h-28c-51 29 -90 66 -128 103c-38 -37 -77 -74 -128 -103h-28c55 55 119 147 148 204h16zM495 -10l-131 366l-138 -366h-5l-146 378c-26 67 -43 83 -78 112v6h181v-6c-25 -17 -33 -25 -33 -40c0 -17 6 -33 16 -62l88 -234l95 268
c-14 31 -29 48 -60 68v6h176v-6c-25 -16 -33 -26 -33 -40c0 -17 6 -33 16 -62l79 -237l91 234c10 28 14 37 14 50c0 19 -18 33 -56 55v6h161v-6c-34 -28 -50 -45 -77 -112l-155 -378h-5z" />
    <glyph glyph-name="wgrave" unicode="&#x1e81;" horiz-adv-x="729" 
d="M212 749h111l67 -188h-19zM495 -10l-131 366l-138 -366h-5l-146 378c-26 67 -43 83 -78 112v6h181v-6c-25 -17 -33 -25 -33 -40c0 -17 6 -33 16 -62l88 -234l95 268c-14 31 -29 48 -60 68v6h176v-6c-25 -16 -33 -26 -33 -40c0 -17 6 -33 16 -62l79 -237l91 234
c10 28 14 37 14 50c0 19 -18 33 -56 55v6h161v-6c-34 -28 -50 -45 -77 -112l-155 -378h-5z" />
    <glyph glyph-name="wacute" unicode="&#x1e83;" horiz-adv-x="729" 
d="M423 749h111l-159 -188h-19zM495 -10l-131 366l-138 -366h-5l-146 378c-26 67 -43 83 -78 112v6h181v-6c-25 -17 -33 -25 -33 -40c0 -17 6 -33 16 -62l88 -234l95 268c-14 31 -29 48 -60 68v6h176v-6c-25 -16 -33 -26 -33 -40c0 -17 6 -33 16 -62l79 -237l91 234
c10 28 14 37 14 50c0 19 -18 33 -56 55v6h161v-6c-34 -28 -50 -45 -77 -112l-155 -378h-5z" />
    <glyph glyph-name="wdieresis" unicode="&#x1e85;" horiz-adv-x="729" 
d="M284 580c-34 0 -59 27 -59 60c0 32 25 59 59 59c33 0 59 -27 59 -59c0 -33 -26 -60 -59 -60zM464 580c-33 0 -60 27 -60 60c0 32 27 59 60 59s59 -27 59 -59c0 -33 -26 -60 -59 -60zM495 -10l-131 366l-138 -366h-5l-146 378c-26 67 -43 83 -78 112v6h181v-6
c-25 -17 -33 -25 -33 -40c0 -17 6 -33 16 -62l88 -234l95 268c-14 31 -29 48 -60 68v6h176v-6c-25 -16 -33 -26 -33 -40c0 -17 6 -33 16 -62l79 -237l91 234c10 28 14 37 14 50c0 19 -18 33 -56 55v6h161v-6c-34 -28 -50 -45 -77 -112l-155 -378h-5z" />
    <glyph glyph-name="ycircumflex" unicode="&#x177;" horiz-adv-x="517" 
d="M288 756c29 -57 93 -149 148 -204h-28c-51 29 -90 66 -128 103c-38 -37 -77 -74 -128 -103h-28c55 55 119 147 148 204h16zM242 -2l-163 370c-27 61 -50 84 -82 112v6h186v-6c-25 -17 -36 -26 -36 -41c0 -17 7 -31 20 -61l118 -280l111 276c11 27 15 40 15 55
c0 18 -20 32 -53 51v6h162v-6c-32 -28 -53 -51 -79 -112l-194 -457c-33 -80 -62 -136 -138 -136c-47 0 -81 30 -81 72c0 33 28 60 61 65c-2 -6 -4 -18 -4 -24c0 -26 17 -47 44 -47c36 0 57 31 81 86z" />
    <glyph glyph-name="ygrave" unicode="&#x1ef3;" horiz-adv-x="517" 
d="M118 749h111l67 -188h-19zM242 -2l-163 370c-27 61 -50 84 -82 112v6h186v-6c-25 -17 -36 -26 -36 -41c0 -17 7 -31 20 -61l118 -280l111 276c11 27 15 40 15 55c0 18 -20 32 -53 51v6h162v-6c-32 -28 -53 -51 -79 -112l-194 -457c-33 -80 -62 -136 -138 -136
c-47 0 -81 30 -81 72c0 33 28 60 61 65c-2 -6 -4 -18 -4 -24c0 -26 17 -47 44 -47c36 0 57 31 81 86z" />
    <glyph glyph-name="zacute" unicode="&#x17a;" horiz-adv-x="521" 
d="M321 749h111l-159 -188h-19zM40 5l307 443h-124c-74 0 -94 -24 -150 -122h-10l15 170c16 -7 36 -10 71 -10h320v-4l-305 -444h144c72 0 98 24 159 126h12l-29 -164h-410v5z" />
    <glyph glyph-name="zdotaccent" unicode="&#x17c;" horiz-adv-x="521" 
d="M272 594c-35 0 -63 28 -63 62c0 35 28 63 63 63s63 -28 63 -63c0 -34 -28 -62 -63 -62zM40 5l307 443h-124c-74 0 -94 -24 -150 -122h-10l15 170c16 -7 36 -10 71 -10h320v-4l-305 -444h144c72 0 98 24 159 126h12l-29 -164h-410v5z" />
    <glyph glyph-name="aeacute" unicode="&#x1fd;" horiz-adv-x="844" 
d="M466 749h111l-159 -188h-19zM798 151c-22 -102 -94 -161 -207 -161c-89 0 -163 40 -202 115c-28 -58 -98 -115 -187 -115c-93 0 -157 42 -157 124c0 105 121 147 235 162l80 11v39c0 90 -32 131 -110 131c-59 0 -95 -29 -95 -77c0 -22 7 -36 18 -49
c-10 -9 -31 -15 -49 -15c-33 0 -56 20 -56 58c0 64 73 122 193 122c84 0 137 -34 160 -92c36 55 93 92 167 92c136 0 216 -90 216 -244h-355c0 -129 63 -208 168 -208c76 0 131 36 161 114zM450 290h260c-2 85 -28 166 -123 166c-80 0 -127 -67 -137 -166zM360 251l-73 -11
c-91 -13 -150 -46 -150 -116c0 -52 34 -82 81 -82c78 0 142 54 142 161v48z" />
    <glyph glyph-name="oslashacute" unicode="&#x1ff;" horiz-adv-x="581" 
d="M339 749h111l-159 -188h-19zM291 455c-98 0 -148 -81 -148 -212c0 -46 8 -87 24 -118l231 270c-24 39 -59 60 -107 60zM291 31c97 0 147 81 147 212c0 45 -7 84 -22 114l-231 -269c24 -38 59 -57 106 -57zM535 243c0 -148 -104 -253 -244 -253c-58 0 -109 18 -150 48
l-64 -73l-28 26l63 73c-41 45 -66 107 -66 179c0 148 104 253 245 253c59 0 111 -19 152 -51l63 72l28 -26l-62 -72c39 -44 63 -106 63 -176z" />
    <glyph glyph-name="dcroat" unicode="&#x111;" horiz-adv-x="629" 
d="M443 225v66c0 107 -79 156 -147 156c-92 0 -154 -78 -154 -210c0 -117 57 -193 152 -193c90 0 149 85 149 181zM443 120c-23 -71 -87 -130 -180 -130c-123 0 -216 89 -216 247s105 259 226 259c91 0 146 -45 170 -97v167h-138v36h138v43c0 55 -30 73 -68 97v7h156v-147
h72v-36h-72v-457c0 -66 13 -75 56 -102v-7h-141z" />
    <glyph glyph-name="hbar" unicode="&#x127;" horiz-adv-x="610" 
d="M243 7v-7h-201v7c43 27 57 36 57 102v457h-73v36h73v43c0 55 -30 73 -68 97v7h155v-147h138v-36h-138v-201c29 84 92 131 176 131c102 0 156 -67 156 -174v-213c0 -66 14 -75 57 -102v-7h-201v7c43 27 57 36 57 102v198c0 66 -26 127 -105 127c-75 0 -140 -63 -140 -178
v-147c0 -66 14 -75 57 -102z" />
    <glyph glyph-name="kgreenlandic" unicode="&#x138;" horiz-adv-x="581" 
d="M241 7v-7h-201v7c43 27 57 36 57 102v274c0 54 -30 73 -68 97v6h155v-200h24c26 0 39 4 53 18l118 110c14 13 19 20 19 30c0 13 -11 23 -30 36v6h190v-6c-51 -17 -90 -37 -138 -81l-111 -105l160 -203c34 -43 70 -62 117 -83v-8h-172c-6 26 -15 43 -36 70l-124 159
c-12 16 -21 21 -38 21h-32v-141c0 -66 14 -75 57 -102z" />
    <glyph glyph-name="ldot" unicode="&#x140;" horiz-adv-x="405" 
d="M184 749v-640c0 -66 14 -75 57 -102v-7h-201v7c43 27 57 36 57 102v536c0 55 -30 73 -68 97v7h155zM342 312c-35 0 -63 28 -63 62c0 35 28 63 63 63s63 -28 63 -63c0 -34 -28 -62 -63 -62z" />
    <glyph glyph-name="eng" unicode="&#x14b;" horiz-adv-x="606" 
d="M353 -217c-77 0 -129 35 -129 88c0 39 28 57 64 57c9 0 19 -2 26 -4c-7 -13 -10 -30 -10 -46c0 -34 22 -61 57 -61c54 0 73 53 73 131v359c0 66 -26 127 -105 127c-75 0 -140 -63 -140 -178v-147c0 -66 14 -75 57 -102v-7h-201v7c43 27 57 36 57 102v274
c0 54 -29 73 -67 97v6h150l4 -121c29 84 92 131 176 131c102 0 156 -67 156 -174v-348c0 -120 -60 -191 -168 -191z" />
    <glyph glyph-name="tbar" unicode="&#x167;" horiz-adv-x="435" 
d="M405 151c-7 -94 -58 -161 -148 -161c-83 0 -139 49 -139 136v151h-87v41h88v125h-79v26c84 17 123 82 139 181h28v-166h173l-5 -41h-168v-125h156v-41h-156v-140c0 -58 28 -89 78 -89c53 0 86 34 100 107z" />
    <glyph glyph-name="uni00200326" horiz-adv-x="500" 
d="M272 -151c-9 -7 -19 -10 -33 -10c-29 0 -51 23 -51 49c0 32 24 55 58 55c42 0 73 -32 73 -84c0 -57 -46 -110 -140 -113v26c51 5 93 27 93 77z" />
    <glyph glyph-name="uni02BB" unicode="&#x2bb;" horiz-adv-x="500" 
d="M226 659c9 7 19 10 33 10c29 0 51 -23 51 -49c0 -32 -24 -55 -58 -55c-42 0 -73 32 -73 84c0 57 46 110 140 113v-26c-51 -5 -93 -27 -93 -77z" />
    <glyph glyph-name="uni00200323" horiz-adv-x="500" 
d="M250 -200c-35 0 -63 28 -63 63s28 62 63 62s63 -27 63 -62s-28 -63 -63 -63z" />
    <glyph glyph-name="i.dot" horiz-adv-x="281" 
d="M141 594c-35 0 -63 28 -63 62c0 35 28 63 63 63s63 -28 63 -63c0 -34 -28 -62 -63 -62zM189 486v-377c0 -66 14 -75 57 -102v-7h-201v7c43 27 57 36 57 102v274c0 54 -29 73 -67 97v6h154z" />
    <glyph glyph-name="uni2117" unicode="&#x2117;" horiz-adv-x="810" 
d="M765 350c0 -209 -161 -360 -360 -360s-360 151 -360 360s161 360 360 360s360 -151 360 -360zM405 20c181 0 329 139 329 330s-148 330 -329 330s-329 -139 -329 -330s148 -330 329 -330zM438 318h-84v-99c0 -38 14 -45 48 -61v-10h-150v10c27 16 34 23 34 61v267
c0 38 -7 45 -34 61v10h186c93 0 155 -40 155 -120s-63 -119 -155 -119zM354 344h63c69 0 105 28 105 93c0 66 -36 93 -105 93h-63v-186z" />
    <glyph glyph-name="uni2009" unicode="&#x2009;" horiz-adv-x="50" 
 />
    <glyph glyph-name="uni0237" unicode="&#x237;" horiz-adv-x="269" 
d="M97 -60v443c0 54 -29 73 -68 97v6h155v-520c0 -120 -60 -191 -168 -191c-77 0 -130 35 -130 88c0 39 29 57 65 57c9 0 19 -2 25 -4c-6 -13 -9 -30 -9 -46c0 -34 22 -61 57 -61c54 0 73 53 73 131z" />
    <glyph glyph-name="uni2070" unicode="&#x2070;" horiz-adv-x="418" 
d="M374 501c0 -123 -65 -205 -165 -205s-165 82 -165 205c0 124 65 205 165 205s165 -81 165 -205zM291 501c0 109 -25 174 -82 174c-58 0 -82 -65 -82 -174c0 -108 24 -174 82 -174c57 0 82 66 82 174z" />
    <glyph glyph-name="uni2074" unicode="&#x2074;" horiz-adv-x="417" 
d="M220 435v205l-145 -205h145zM320 410h-27v-42c0 -38 6 -43 31 -59v-7h-135v7c25 16 31 21 31 59v42h-195l-2 2l207 288h63v-265h27c35 0 39 5 56 30h7v-86h-7c-17 25 -21 31 -56 31z" />
    <glyph glyph-name="uni2075" unicode="&#x2075;" horiz-adv-x="373" 
d="M168 325c50 0 80 37 80 99c0 60 -26 99 -83 99c-35 0 -64 -15 -85 -34h-3l26 211c41 -5 88 -9 121 -9c42 0 68 3 91 25h2c0 -59 -20 -96 -86 -96c-39 0 -86 10 -110 18l-13 -105c19 13 51 25 89 25c70 0 132 -44 132 -127c0 -91 -80 -135 -161 -135
c-74 0 -134 36 -134 93c0 38 28 60 60 60c15 0 26 -4 32 -8c-11 -11 -22 -27 -22 -53c0 -43 25 -63 64 -63z" />
    <glyph glyph-name="uni2076" unicode="&#x2076;" horiz-adv-x="383" 
d="M217 678c-72 0 -99 -87 -99 -187c11 35 47 63 95 63c67 0 127 -42 127 -124s-65 -134 -144 -134c-97 0 -152 82 -152 192c0 119 64 218 173 218c67 0 115 -29 115 -75c0 -31 -24 -47 -50 -47c-12 0 -24 4 -30 10c12 8 19 22 20 39c0 28 -19 45 -55 45zM126 423
c1 -60 25 -98 69 -98s69 38 70 98c0 59 -26 98 -70 98s-69 -39 -69 -98z" />
    <glyph glyph-name="uni2077" unicode="&#x2077;" horiz-adv-x="348" 
d="M40 580v120h288v-2l-57 -92c-58 -93 -78 -190 -79 -298l-78 -12c18 123 59 212 122 305l21 32h-132c-46 0 -55 -12 -72 -53h-13z" />
    <glyph glyph-name="uni2078" unicode="&#x2078;" horiz-adv-x="388" 
d="M241 532c70 -26 103 -60 103 -117c0 -74 -65 -119 -148 -119c-87 0 -152 37 -152 103c0 49 42 82 91 93c-39 18 -70 51 -70 101c0 71 58 113 129 113c70 0 125 -35 125 -93c0 -48 -41 -74 -78 -81zM128 620c0 -37 24 -54 64 -69l37 -15c20 15 36 40 36 76s-29 64 -71 64
c-41 0 -66 -25 -66 -56zM211 463l-65 24c-24 -14 -43 -44 -42 -79c0 -48 38 -81 92 -81c45 0 81 25 81 62s-27 58 -66 74z" />
    <glyph glyph-name="uni2079" unicode="&#x2079;" horiz-adv-x="383" 
d="M258 579c-1 60 -26 98 -70 98s-68 -38 -69 -98c0 -59 25 -98 69 -98s70 39 70 98zM166 324c73 0 100 87 100 187c-12 -35 -47 -62 -96 -62c-66 0 -126 41 -126 123s65 134 144 134c97 0 152 -82 152 -192c0 -118 -65 -218 -174 -218c-67 0 -114 28 -114 75
c0 32 24 47 50 47c11 0 23 -4 30 -10c-12 -7 -20 -22 -20 -39c-1 -28 19 -45 54 -45z" />
    <glyph glyph-name="uni2080" unicode="&#x2080;" horiz-adv-x="418" 
d="M375 99c0 -123 -66 -205 -166 -205s-165 82 -165 205s65 205 165 205s166 -82 166 -205zM291 99c0 109 -25 174 -82 174c-58 0 -82 -65 -82 -174s24 -174 82 -174c57 0 82 65 82 174z" />
    <glyph glyph-name="uni2081" unicode="&#x2081;" horiz-adv-x="267" 
d="M242 -100h-216v12c50 19 71 21 71 49v273c0 29 -20 31 -73 53v11h147v-337c0 -28 21 -30 71 -49v-12z" />
    <glyph glyph-name="uni2082" unicode="&#x2082;" horiz-adv-x="373" 
d="M103 -39l118 2c58 1 71 3 100 50h9l-13 -113h-291v3l89 96c57 60 117 126 118 202c0 45 -23 75 -66 75c-38 0 -60 -28 -60 -66c-1 -27 8 -49 23 -60c-6 -5 -18 -7 -29 -7c-34 0 -60 24 -60 62c0 56 51 99 126 99c76 0 143 -37 143 -117c0 -81 -70 -133 -207 -226z" />
    <glyph glyph-name="uni2083" unicode="&#x2083;" horiz-adv-x="382" 
d="M181 -106c-74 0 -140 35 -140 96c0 37 29 61 62 61c14 0 23 -4 30 -7c-13 -15 -21 -30 -21 -55c0 -45 28 -66 69 -66c46 0 77 29 77 86c0 62 -33 95 -94 95v21c57 2 84 27 84 80c0 45 -23 70 -64 70c-39 0 -60 -22 -60 -60c0 -25 6 -40 21 -51c-6 -4 -16 -7 -27 -7
c-32 0 -57 22 -57 58c0 50 49 89 123 89c75 0 138 -33 138 -99c0 -55 -49 -85 -103 -89v-1c71 -4 118 -44 118 -106c0 -77 -70 -115 -156 -115z" />
    <glyph glyph-name="uni2084" unicode="&#x2084;" horiz-adv-x="417" 
d="M220 33v205l-145 -205h145zM320 8h-27v-42c0 -38 6 -43 31 -59v-7h-135v7c25 16 31 21 31 59v42h-195l-2 2l207 288h63v-265h27c35 0 39 5 56 30h7v-86h-7c-17 25 -21 31 -56 31z" />
    <glyph glyph-name="uni2085" unicode="&#x2085;" horiz-adv-x="373" 
d="M168 -77c50 0 80 37 80 99c0 60 -26 98 -83 98c-35 0 -64 -14 -85 -33h-3l26 211c41 -5 88 -9 121 -9c42 0 68 3 91 25h2c0 -59 -20 -97 -87 -97c-38 0 -85 11 -109 19l-13 -105c19 13 51 25 89 25c70 0 132 -44 132 -127c0 -91 -80 -135 -161 -135
c-74 0 -134 35 -134 93c0 38 28 60 60 60c15 0 26 -4 32 -8c-11 -11 -22 -27 -22 -53c0 -43 25 -63 64 -63z" />
    <glyph glyph-name="uni2086" unicode="&#x2086;" horiz-adv-x="383" 
d="M217 276c-72 0 -100 -87 -100 -187c12 35 48 63 96 63c67 0 127 -42 127 -124s-65 -134 -144 -134c-97 0 -152 82 -152 192c0 119 64 218 173 218c67 0 115 -28 115 -75c0 -31 -24 -47 -50 -47c-12 0 -24 4 -30 10c12 8 20 22 20 39c0 28 -19 45 -55 45zM126 21
c1 -60 25 -98 69 -98s69 38 70 98c0 59 -26 98 -70 98s-69 -39 -69 -98z" />
    <glyph glyph-name="uni2087" unicode="&#x2087;" horiz-adv-x="348" 
d="M40 177v121h288v-2l-57 -92c-58 -93 -78 -190 -78 -298l-79 -12c19 123 59 212 122 305l21 32h-132c-46 0 -55 -12 -72 -53z" />
    <glyph glyph-name="uni2088" unicode="&#x2088;" horiz-adv-x="388" 
d="M241 130c70 -26 103 -60 103 -117c0 -74 -65 -119 -148 -119c-87 0 -152 37 -152 103c0 49 42 82 91 93c-39 18 -70 51 -70 101c0 71 58 113 129 113c70 0 125 -35 125 -93c0 -48 -41 -74 -78 -81zM128 218c0 -37 24 -54 64 -69l37 -15c20 15 36 40 36 76s-29 64 -71 64
c-41 0 -66 -25 -66 -56zM211 61l-65 24c-24 -14 -43 -44 -42 -79c0 -48 38 -81 92 -81c45 0 81 25 81 62s-27 58 -66 74z" />
    <glyph glyph-name="uni2089" unicode="&#x2089;" horiz-adv-x="383" 
d="M258 177c-1 60 -26 98 -70 98s-68 -38 -69 -98c0 -59 25 -98 69 -98s70 39 70 98zM166 -78c73 0 100 87 100 187c-12 -35 -47 -62 -96 -62c-66 0 -126 41 -126 123s65 134 144 134c97 0 152 -82 152 -192c0 -118 -65 -218 -174 -218c-67 0 -114 28 -114 75
c0 32 24 47 50 47c11 0 23 -4 30 -10c-12 -7 -20 -22 -20 -39c-1 -28 19 -45 54 -45z" />
    <glyph glyph-name="uni2153" unicode="&#x2153;" horiz-adv-x="825" 
d="M182 -10h-47l438 720h47zM242 302h-216v12c50 19 71 21 71 49v273c0 29 -20 31 -73 53v11h147v-337c0 -28 21 -30 71 -49v-12zM624 -6c-74 0 -140 35 -140 96c0 37 29 61 62 61c14 0 23 -4 30 -7c-13 -15 -21 -30 -21 -55c0 -45 28 -66 69 -66c46 0 77 29 77 86
c0 62 -33 95 -94 95v21c57 2 84 27 84 80c0 45 -23 70 -64 70c-39 0 -60 -22 -60 -60c0 -25 6 -40 21 -51c-6 -4 -16 -7 -27 -7c-32 0 -57 22 -57 58c0 50 49 89 123 89c75 0 138 -33 138 -99c0 -55 -49 -85 -103 -89v-1c71 -4 118 -44 118 -106c0 -77 -70 -115 -156 -115z
" />
    <glyph glyph-name="uni2154" unicode="&#x2154;" horiz-adv-x="906" 
d="M263 -10h-47l438 720h47zM103 363l118 2c58 1 71 3 100 50h9l-13 -113h-291v3l89 96c57 60 117 126 118 202c0 45 -23 75 -66 75c-38 0 -60 -28 -60 -66c-1 -27 8 -49 23 -60c-6 -5 -18 -7 -29 -7c-34 0 -60 24 -60 62c0 56 51 99 126 99c76 0 143 -37 143 -117
c0 -81 -70 -133 -207 -226zM705 -6c-74 0 -140 35 -140 96c0 37 29 61 62 61c14 0 23 -4 30 -7c-13 -15 -21 -30 -21 -55c0 -45 28 -66 69 -66c46 0 77 29 77 86c0 62 -33 95 -94 95v21c57 2 84 27 84 80c0 45 -23 70 -64 70c-39 0 -60 -22 -60 -60c0 -25 6 -40 21 -51
c-6 -4 -16 -7 -27 -7c-32 0 -57 22 -57 58c0 50 49 89 123 89c75 0 138 -33 138 -99c0 -55 -49 -85 -103 -89v-1c71 -4 118 -44 118 -106c0 -77 -70 -115 -156 -115z" />
    <glyph glyph-name="uni215B" unicode="&#x215b;" horiz-adv-x="831" 
d="M182 -10h-47l438 720h47zM242 302h-216v12c50 19 71 21 71 49v273c0 29 -20 31 -73 53v11h147v-337c0 -28 21 -30 71 -49v-12zM684 230c70 -26 103 -60 103 -117c0 -74 -65 -119 -148 -119c-87 0 -152 37 -152 103c0 49 42 82 91 93c-39 18 -70 51 -70 101
c0 71 58 113 129 113c70 0 125 -35 125 -93c0 -48 -41 -74 -78 -81zM571 318c0 -37 24 -54 64 -69l37 -15c20 15 36 40 36 76s-29 64 -71 64c-41 0 -66 -25 -66 -56zM654 161l-65 24c-24 -14 -43 -44 -42 -79c0 -48 38 -81 92 -81c45 0 81 25 81 62s-27 58 -66 74z" />
    <glyph glyph-name="uni215C" unicode="&#x215c;" horiz-adv-x="907" 
d="M258 -10h-47l438 720h47zM181 296c-74 0 -140 36 -140 95c0 39 29 62 63 62c13 0 22 -3 29 -7c-13 -15 -21 -30 -21 -55c0 -45 28 -66 69 -66c46 0 77 29 77 86c0 62 -33 95 -94 95v21c57 2 84 28 84 80c0 45 -23 70 -64 70c-39 0 -61 -22 -61 -60c0 -25 8 -41 23 -51
c-7 -5 -17 -7 -28 -7c-32 0 -57 22 -57 58c0 50 49 89 123 89c76 0 138 -33 138 -99c0 -55 -49 -85 -102 -89v-1c70 -4 117 -45 117 -106c0 -77 -70 -115 -156 -115zM760 229c70 -26 103 -60 103 -117c0 -74 -65 -119 -148 -119c-87 0 -152 37 -152 103c0 49 42 82 91 93
c-39 18 -70 51 -70 101c0 71 58 113 129 113c70 0 125 -35 125 -93c0 -48 -41 -74 -78 -81zM647 317c0 -37 24 -54 64 -69l37 -15c20 15 36 40 36 76s-29 64 -71 64c-41 0 -66 -25 -66 -56zM730 160l-65 24c-24 -14 -43 -44 -42 -79c0 -48 38 -81 92 -81c45 0 81 25 81 62
s-27 58 -66 74z" />
    <glyph glyph-name="uni215D" unicode="&#x215d;" horiz-adv-x="897" 
d="M247 -10h-47l438 720h47zM168 325c50 0 80 37 80 99c0 60 -26 99 -83 99c-35 0 -64 -15 -85 -34h-3l26 211c41 -5 88 -9 121 -9c42 0 68 3 91 25h2c0 -59 -20 -96 -86 -96c-39 0 -86 10 -110 18l-13 -105c19 13 51 25 89 25c70 0 132 -44 132 -127
c0 -91 -80 -135 -161 -135c-74 0 -134 36 -134 93c0 38 28 60 60 60c15 0 26 -4 32 -8c-11 -11 -22 -27 -22 -53c0 -43 25 -63 64 -63zM750 229c70 -26 103 -60 103 -117c0 -74 -65 -119 -148 -119c-87 0 -152 37 -152 103c0 49 42 82 91 93c-39 18 -70 51 -70 101
c0 71 58 113 129 113c70 0 125 -35 125 -93c0 -48 -41 -74 -78 -81zM637 317c0 -37 24 -54 64 -69l37 -15c20 15 36 40 36 76s-29 64 -71 64c-41 0 -66 -25 -66 -56zM720 160l-65 24c-24 -14 -43 -44 -42 -79c0 -48 38 -81 92 -81c45 0 81 25 81 62s-27 58 -66 74z" />
    <glyph glyph-name="uni215E" unicode="&#x215e;" horiz-adv-x="830" 
d="M180 -10h-47l438 720h47zM40 580v120h288v-2l-57 -92c-58 -93 -78 -190 -79 -298l-78 -12c18 123 59 212 122 305l21 32h-132c-46 0 -55 -12 -72 -53h-13zM683 229c70 -26 103 -60 103 -117c0 -74 -65 -119 -148 -119c-87 0 -152 37 -152 103c0 49 42 82 91 93
c-39 18 -70 51 -70 101c0 71 58 113 129 113c70 0 125 -35 125 -93c0 -48 -41 -74 -78 -81zM570 317c0 -37 24 -54 64 -69l37 -15c20 15 36 40 36 76s-29 64 -71 64c-41 0 -66 -25 -66 -56zM653 160l-65 24c-24 -14 -43 -44 -42 -79c0 -48 38 -81 92 -81c45 0 81 25 81 62
s-27 58 -66 74z" />
    <glyph glyph-name="space.tab" horiz-adv-x="320" 
 />
    <glyph glyph-name="period.tab" horiz-adv-x="320" 
d="M228 59c0 -38 -31 -68 -68 -68s-68 30 -68 68c0 39 31 68 68 68s68 -29 68 -68z" />
    <glyph glyph-name="comma.tab" horiz-adv-x="320" 
d="M193 13c-11 -7 -23 -10 -38 -10c-32 0 -56 25 -56 56c0 36 26 61 64 61c50 0 81 -38 81 -102c0 -89 -60 -163 -163 -167v29c75 14 116 61 112 133z" />
    <glyph glyph-name="colon.tab" horiz-adv-x="320" 
d="M228 375c0 -38 -31 -68 -68 -68c-38 0 -68 30 -68 68c0 39 30 68 68 68c37 0 68 -29 68 -68zM228 59c0 -38 -31 -68 -68 -68c-38 0 -68 30 -68 68c0 39 30 68 68 68c37 0 68 -29 68 -68z" />
    <glyph glyph-name="semicolon.tab" horiz-adv-x="320" 
d="M228 375c0 -38 -31 -68 -68 -68c-38 0 -68 30 -68 68c0 39 30 68 68 68c37 0 68 -29 68 -68zM184 13c-10 -7 -22 -10 -38 -10c-31 0 -55 25 -55 56c0 36 26 61 63 61c50 0 82 -38 82 -102c0 -89 -60 -163 -164 -167v29c76 14 117 61 112 133z" />
    <glyph glyph-name="hyphen.cap" horiz-adv-x="349" 
d="M50 309v51h249v-51h-249z" />
    <glyph glyph-name="endash.cap" horiz-adv-x="520" 
d="M50 313v43h420v-43h-420z" />
    <glyph glyph-name="emdash.cap" horiz-adv-x="820" 
d="M50 313v43h720v-43h-720z" />
    <glyph glyph-name="parenleft.cap" horiz-adv-x="353" 
d="M66 333c0 200 91 350 225 436h26c-106 -90 -167 -252 -167 -436s61 -346 167 -436h-26c-134 86 -225 236 -225 436z" />
    <glyph glyph-name="parenright.cap" horiz-adv-x="353" 
d="M61 769c135 -86 226 -236 226 -436s-91 -350 -226 -436h-25c105 90 167 252 167 436s-62 346 -167 436h25z" />
    <glyph glyph-name="bracketleft.cap" horiz-adv-x="325" 
d="M82 -103v872h207v-15l-136 -29v-783l136 -30v-15h-207z" />
    <glyph glyph-name="bracketright.cap" horiz-adv-x="325" 
d="M243 769v-872h-207v15l135 30v783l-135 29v15h207z" />
    <glyph glyph-name="braceleft.cap" horiz-adv-x="383" 
d="M28 324v18c65 2 121 32 121 139c0 43 -15 86 -15 138c0 84 71 150 176 150c14 0 30 -1 46 -4v-9c-80 0 -146 -47 -146 -142c0 -34 16 -95 16 -139c0 -102 -87 -137 -130 -142c43 -5 130 -40 130 -142c0 -44 -16 -105 -16 -139c0 -95 66 -142 146 -142v-9
c-16 -3 -32 -4 -46 -4c-105 0 -176 66 -176 150c0 52 15 95 15 138c0 107 -56 137 -121 139z" />
    <glyph glyph-name="braceright.cap" horiz-adv-x="383" 
d="M355 342v-18c-64 -2 -121 -32 -121 -139c0 -43 15 -86 15 -138c0 -84 -71 -150 -175 -150c-14 0 -31 1 -47 4v9c81 0 146 47 146 142c0 34 -15 95 -15 139c0 102 87 137 129 142c-42 5 -129 40 -129 142c0 44 15 105 15 139c0 95 -65 142 -146 142v9c16 3 33 4 47 4
c104 0 175 -66 175 -150c0 -52 -15 -95 -15 -138c0 -107 57 -137 121 -139z" />
    <glyph glyph-name="guilsinglleft.cap" horiz-adv-x="380" 
d="M62 340v8c92 51 177 127 252 207h17c-43 -83 -102 -161 -144 -211c42 -50 101 -128 144 -211h-17c-75 80 -160 156 -252 207z" />
    <glyph glyph-name="guilsinglright.cap" horiz-adv-x="380" 
d="M318 348v-8c-92 -51 -178 -127 -252 -207h-17c42 83 102 161 144 211c-42 50 -102 128 -144 211h17c74 -80 160 -156 252 -207z" />
    <glyph glyph-name="guillemotleft.cap" horiz-adv-x="622" 
d="M304 340v8c92 51 177 127 252 207h17c-43 -83 -102 -161 -144 -211c42 -50 101 -128 144 -211h-17c-75 80 -160 156 -252 207zM62 340v8c92 51 177 127 252 207h17c-43 -83 -102 -161 -144 -211c42 -50 101 -128 144 -211h-17c-75 80 -160 156 -252 207z" />
    <glyph glyph-name="guillemotright.cap" horiz-adv-x="622" 
d="M560 348v-8c-92 -51 -178 -127 -252 -207h-17c42 83 102 161 144 211c-42 50 -102 128 -144 211h17c74 -80 160 -156 252 -207zM318 348v-8c-92 -51 -178 -127 -252 -207h-17c42 83 102 161 144 211c-42 50 -102 128 -144 211h17c74 -80 160 -156 252 -207z" />
    <glyph glyph-name="slash.cap" horiz-adv-x="394" 
d="M20 -103l300 872h46l-300 -872h-46z" />
    <glyph glyph-name="backslash.cap" horiz-adv-x="394" 
d="M74 769l300 -872h-46l-300 872h46z" />
    <glyph glyph-name="bar.cap" horiz-adv-x="222" 
d="M90 -103v872h42v-872h-42z" />
    <glyph glyph-name="at.cap" horiz-adv-x="968" 
d="M710 541l-68 -277c-15 -62 12 -90 60 -90c68 0 154 67 154 236c0 200 -158 306 -345 306c-203 0 -378 -168 -378 -400c0 -219 156 -363 372 -363c125 0 223 26 316 101l13 -22c-81 -84 -203 -118 -329 -118c-251 0 -437 155 -437 403c0 257 201 439 443 439
c208 0 393 -125 393 -346c0 -200 -119 -281 -214 -281c-71 0 -125 36 -125 105c-28 -59 -82 -105 -149 -105c-78 0 -136 56 -136 149c0 140 101 263 228 263c65 0 104 -36 113 -78c18 30 60 67 80 78h9zM572 321l12 51c21 87 -14 126 -66 126c-81 0 -151 -106 -151 -220
c0 -63 30 -100 73 -100c62 0 111 58 132 143z" />
    <glyph glyph-name="exclamdown.cap" horiz-adv-x="269" 
d="M135 709c37 0 67 -30 67 -68c0 -39 -30 -68 -67 -68c-38 0 -68 29 -68 68c0 38 30 68 68 68zM197 0h-125l56 496h13z" />
    <glyph glyph-name="questiondown.cap" horiz-adv-x="499" 
d="M201 642c0 38 30 68 67 68c38 0 68 -30 68 -68c0 -39 -30 -68 -68 -68c-37 0 -67 29 -67 68zM252 30c78 0 120 50 120 114c0 27 -11 53 -25 68c7 4 20 8 31 8c46 0 78 -28 78 -84c0 -74 -81 -145 -205 -145c-130 0 -207 82 -207 182c0 117 92 191 206 224v103h38v-181
c-93 -19 -166 -71 -166 -163c0 -69 44 -126 130 -126z" />
    <glyph glyph-name="periodcentered.cap" horiz-adv-x="256" 
d="M196 334c0 -38 -31 -68 -68 -68c-38 0 -68 30 -68 68c0 39 30 68 68 68c37 0 68 -29 68 -68z" />
    <glyph glyph-name="bullet.cap" horiz-adv-x="351" 
d="M48 333c0 70 58 128 128 128s127 -58 127 -128s-57 -128 -127 -128s-128 58 -128 128z" />
    <glyph glyph-name="zero.dnom" horiz-adv-x="418" 
d="M375 199c0 -123 -66 -205 -166 -205s-165 82 -165 205s65 205 165 205s166 -82 166 -205zM291 199c0 109 -25 174 -82 174c-58 0 -82 -65 -82 -174s24 -174 82 -174c57 0 82 65 82 174z" />
    <glyph glyph-name="one.dnom" horiz-adv-x="267" 
d="M242 0h-216v12c50 19 71 21 71 49v273c0 29 -20 31 -73 53v11h147v-337c0 -28 21 -30 71 -49v-12z" />
    <glyph glyph-name="two.dnom" horiz-adv-x="373" 
d="M103 61l118 2c58 1 71 3 100 50h9l-13 -113h-291v3l89 96c57 60 117 126 118 202c0 45 -23 75 -66 75c-38 0 -60 -28 -60 -66c-1 -27 8 -49 23 -60c-6 -5 -18 -7 -29 -7c-34 0 -60 24 -60 62c0 56 51 99 126 99c76 0 143 -37 143 -117c0 -81 -70 -133 -207 -226z" />
    <glyph glyph-name="three.dnom" horiz-adv-x="382" 
d="M181 -6c-74 0 -140 35 -140 96c0 37 29 61 62 61c14 0 23 -4 30 -7c-13 -15 -21 -30 -21 -55c0 -45 28 -66 69 -66c46 0 77 29 77 86c0 62 -33 95 -94 95v21c57 2 84 27 84 80c0 45 -23 70 -64 70c-39 0 -60 -22 -60 -60c0 -25 6 -40 21 -51c-6 -4 -16 -7 -27 -7
c-32 0 -57 22 -57 58c0 50 49 89 123 89c75 0 138 -33 138 -99c0 -55 -49 -85 -103 -89v-1c71 -4 118 -44 118 -106c0 -77 -70 -115 -156 -115z" />
    <glyph glyph-name="four.dnom" horiz-adv-x="417" 
d="M220 133v205l-145 -205h145zM320 108h-27v-42c0 -38 6 -43 31 -59v-7h-135v7c25 16 31 21 31 59v42h-195l-2 2l207 288h63v-265h27c35 0 39 5 56 30h7v-86h-7c-17 25 -21 31 -56 31z" />
    <glyph glyph-name="five.dnom" horiz-adv-x="373" 
d="M168 23c50 0 80 37 80 99c0 60 -26 98 -83 98c-35 0 -64 -14 -85 -33h-3l26 211c41 -5 88 -9 121 -9c42 0 68 3 91 25h2c0 -59 -20 -97 -87 -97c-38 0 -85 11 -109 19l-13 -105c19 13 51 25 89 25c70 0 132 -44 132 -127c0 -91 -80 -135 -161 -135c-74 0 -134 35 -134 93
c0 38 28 60 60 60c15 0 26 -4 32 -8c-11 -11 -22 -27 -22 -53c0 -43 25 -63 64 -63z" />
    <glyph glyph-name="six.dnom" horiz-adv-x="383" 
d="M217 376c-72 0 -100 -87 -100 -187c12 35 48 63 96 63c67 0 127 -42 127 -124s-65 -134 -144 -134c-97 0 -152 82 -152 192c0 119 64 218 173 218c67 0 115 -28 115 -75c0 -31 -24 -47 -50 -47c-12 0 -24 4 -30 10c12 8 20 22 20 39c0 28 -19 45 -55 45zM126 121
c1 -60 25 -98 69 -98s69 38 70 98c0 59 -26 98 -70 98s-69 -39 -69 -98z" />
    <glyph glyph-name="seven.dnom" horiz-adv-x="348" 
d="M40 277v121h288v-2l-57 -92c-58 -93 -78 -190 -78 -298l-79 -12c19 123 59 212 122 305l21 32h-132c-46 0 -55 -12 -72 -53z" />
    <glyph glyph-name="eight.dnom" horiz-adv-x="388" 
d="M241 230c70 -26 103 -60 103 -117c0 -74 -65 -119 -148 -119c-87 0 -152 37 -152 103c0 49 42 82 91 93c-39 18 -70 51 -70 101c0 71 58 113 129 113c70 0 125 -35 125 -93c0 -48 -41 -74 -78 -81zM128 318c0 -37 24 -54 64 -69l37 -15c20 15 36 40 36 76s-29 64 -71 64
c-41 0 -66 -25 -66 -56zM211 161l-65 24c-24 -14 -43 -44 -42 -79c0 -48 38 -81 92 -81c45 0 81 25 81 62s-27 58 -66 74z" />
    <glyph glyph-name="nine.dnom" horiz-adv-x="383" 
d="M258 277c-1 60 -26 98 -70 98s-68 -38 -69 -98c0 -59 25 -98 69 -98s70 39 70 98zM166 22c73 0 100 87 100 187c-12 -35 -47 -62 -96 -62c-66 0 -126 41 -126 123s65 134 144 134c97 0 152 -82 152 -192c0 -118 -65 -218 -174 -218c-67 0 -114 28 -114 75
c0 32 24 47 50 47c11 0 23 -4 30 -10c-12 -7 -20 -22 -20 -39c-1 -28 19 -45 54 -45z" />
    <glyph glyph-name="a.ord" horiz-adv-x="401" 
d="M256 463l-47 -10c-63 -13 -95 -32 -95 -79c0 -36 21 -55 57 -55c42 0 85 36 85 106v38zM399 300v-8c-15 -6 -43 -13 -69 -13c-46 0 -69 21 -73 73c-15 -44 -62 -75 -119 -75s-102 29 -102 87c0 76 81 98 164 113l56 10v31c0 60 -19 87 -71 87c-40 0 -63 -19 -63 -52
c0 -18 7 -28 16 -36c-8 -8 -26 -13 -41 -13c-27 0 -45 16 -45 43c0 47 53 86 141 86c94 0 141 -39 141 -117c0 -56 -2 -108 -2 -153c0 -42 21 -57 67 -63z" />
    <glyph glyph-name="b.ord" horiz-adv-x="455" 
d="M144 468v-47c0 -70 50 -107 96 -107c61 0 99 52 99 147c0 79 -36 130 -97 130c-59 0 -98 -57 -98 -123zM133 345c-13 -33 -39 -57 -66 -68h-8c8 42 8 94 8 155v302c0 40 -19 52 -47 69v5h124v-265c16 50 61 90 127 90c84 0 151 -60 151 -172c0 -114 -73 -184 -165 -184
c-62 0 -107 32 -124 68z" />
    <glyph glyph-name="c.ord" horiz-adv-x="374" 
d="M213 605c-65 0 -98 -64 -98 -143c0 -88 42 -142 110 -142c47 0 84 22 105 75l15 -5c-17 -72 -69 -113 -146 -113c-91 0 -166 62 -166 174s77 182 179 182c70 0 126 -34 126 -86c0 -36 -26 -48 -49 -48c-10 0 -22 3 -26 9c6 9 11 17 11 36c0 34 -20 61 -61 61z" />
    <glyph glyph-name="d.ord" horiz-adv-x="458" 
d="M311 442v47c0 70 -50 108 -96 108c-60 0 -99 -53 -99 -145c0 -82 36 -132 98 -132c59 0 97 56 97 122zM313 284l-2 83c-16 -50 -61 -90 -127 -90c-84 0 -151 60 -151 174c0 112 74 182 160 182c63 0 101 -31 118 -67v168c0 40 -19 52 -47 69v5h124v-447
c0 -46 9 -52 39 -72v-5h-114z" />
    <glyph glyph-name="e.ord" horiz-adv-x="389" 
d="M203 633c99 0 156 -64 156 -172h-244c0 -87 42 -141 114 -141c51 0 88 22 110 75l15 -5c-18 -72 -70 -113 -150 -113c-94 0 -171 62 -171 175c0 110 76 181 170 181zM116 490h163c-1 58 -17 114 -77 114c-52 0 -80 -47 -86 -114z" />
    <glyph glyph-name="f.ord" horiz-adv-x="272" 
d="M151 592v-234c0 -42 19 -52 69 -67v-7h-185v5c31 20 39 26 39 72v231h-49v21l49 14v48c0 84 57 137 143 137c59 0 105 -26 105 -69c0 -30 -23 -43 -50 -43c-9 0 -18 1 -23 3c6 9 9 24 9 37c0 24 -14 46 -45 46c-40 0 -62 -33 -62 -90v-73h102l-4 -31h-98z" />
    <glyph glyph-name="g.ord" horiz-adv-x="422" 
d="M257 520c0 59 -23 87 -63 87c-39 0 -62 -28 -62 -87s23 -87 62 -87c40 0 63 28 63 87zM386 250c0 -85 -92 -123 -193 -123c-90 0 -173 25 -173 89c0 37 33 64 93 71c-38 7 -68 27 -68 68c0 37 28 62 61 74c-34 20 -52 53 -52 91c0 63 50 113 140 113c46 0 81 -13 105 -33
c17 21 40 43 71 43c28 0 47 -17 47 -43c0 -25 -22 -40 -44 -40c0 21 -10 39 -31 39c-12 0 -21 -5 -30 -12c15 -19 23 -42 23 -67c0 -63 -50 -113 -141 -113c-28 0 -52 5 -72 13c-16 -8 -28 -20 -28 -36c0 -22 16 -32 50 -32h108c83 0 134 -34 134 -102zM245 281h-89
c-48 -5 -72 -25 -72 -59c0 -47 50 -67 109 -67c75 0 129 25 129 72c0 34 -23 54 -77 54z" />
    <glyph glyph-name="h.ord" horiz-adv-x="448" 
d="M381 511v-150c0 -46 9 -52 39 -72v-5h-155v5c30 20 39 26 39 72v139c0 43 -18 81 -67 81s-89 -40 -89 -116v-104c0 -46 9 -52 39 -72v-5h-155v5c30 20 39 26 39 72v373c0 40 -19 52 -47 69v5h124v-268c20 60 64 93 122 93c74 0 111 -49 111 -122z" />
    <glyph glyph-name="i.ord" horiz-adv-x="221" 
d="M59 743c0 28 22 50 50 50c29 0 51 -22 51 -50s-22 -50 -51 -50c-28 0 -50 22 -50 50zM151 626v-265c0 -46 9 -52 39 -72v-5h-155v5c31 20 39 26 39 72v190c0 41 -18 52 -45 70v5h122z" />
    <glyph glyph-name="j.ord" horiz-adv-x="210" 
d="M55 743c0 28 22 50 51 50c28 0 50 -22 50 -50s-22 -50 -50 -50c-29 0 -51 22 -51 50zM71 236v315c0 41 -19 52 -46 70v5h122v-365c0 -85 -46 -134 -127 -134c-59 0 -100 23 -100 64c0 30 24 43 52 43c8 0 17 -2 22 -3c-6 -9 -9 -22 -9 -35c0 -24 14 -45 39 -45
c35 0 47 34 47 85z" />
    <glyph glyph-name="k.ord" horiz-adv-x="433" 
d="M187 289v-5h-155v5c30 20 39 26 39 72v373c0 40 -19 52 -47 69v5h124v-324h14c17 0 26 3 38 13l84 76c11 10 15 17 15 26c0 11 -7 16 -22 22v5h136v-5c-38 -12 -64 -27 -102 -62l-68 -62l107 -144c22 -30 47 -51 80 -63v-6h-134c-3 17 -8 30 -22 49l-81 110
c-7 10 -15 14 -26 14h-19v-96c0 -46 9 -52 39 -72z" />
    <glyph glyph-name="l.ord" horiz-adv-x="218" 
d="M148 808v-447c0 -46 9 -52 39 -72v-5h-155v5c30 20 39 26 39 72v373c0 40 -19 52 -47 69v5h124z" />
    <glyph glyph-name="m.ord" horiz-adv-x="658" 
d="M370 538c18 60 61 95 119 95c68 0 102 -49 102 -121v-151c0 -46 9 -52 39 -72v-5h-155v5c30 20 39 26 39 72v137c0 45 -13 83 -60 83c-45 0 -83 -40 -83 -116v-104c0 -46 9 -52 39 -72v-5h-155v5c30 20 39 26 39 72v137c0 45 -13 83 -60 83c-45 0 -83 -40 -83 -116v-104
c0 -46 9 -52 39 -72v-5h-155v5c31 20 39 26 39 72v190c0 41 -18 52 -45 70v5h119l3 -86c20 58 61 93 118 93c61 0 93 -37 101 -95z" />
    <glyph glyph-name="n.ord" horiz-adv-x="452" 
d="M384 511v-150c0 -46 9 -52 39 -72v-5h-155v5c31 20 39 26 39 72v139c0 43 -17 81 -67 81c-48 0 -89 -40 -89 -116v-104c0 -46 9 -52 39 -72v-5h-155v5c31 20 39 26 39 72v190c0 41 -18 52 -45 70v5h119l3 -86c21 60 65 93 122 93c74 0 111 -49 111 -122z" />
    <glyph glyph-name="o.ord" horiz-adv-x="419" 
d="M386 455c0 -105 -76 -178 -176 -178s-177 73 -177 178s77 178 177 178s176 -73 176 -178zM303 455c0 95 -30 149 -93 149s-94 -54 -94 -149s31 -149 94 -149s93 54 93 149z" />
    <glyph glyph-name="p.ord" horiz-adv-x="458" 
d="M147 468v-47c0 -70 50 -107 96 -107c61 0 99 52 99 147c0 79 -36 130 -97 130c-59 0 -98 -57 -98 -123zM147 344v-133c0 -47 9 -52 39 -72v-5h-155v5c30 20 39 25 39 72v340c0 41 -18 52 -46 70v5h120l3 -83c16 50 61 90 127 90c84 0 151 -60 151 -172
c0 -114 -73 -184 -160 -184c-63 0 -101 31 -118 67z" />
    <glyph glyph-name="q.ord" horiz-adv-x="451" 
d="M322 564c13 33 39 58 67 69h8c-9 -42 -9 -94 -9 -155v-267c0 -47 9 -52 39 -72v-5h-155v5c30 20 39 25 39 72v156c-16 -50 -61 -90 -127 -90c-84 0 -151 60 -151 174c0 112 74 182 164 182c62 0 107 -33 125 -69zM311 442v47c0 70 -50 108 -96 108
c-60 0 -99 -53 -99 -145c0 -82 36 -132 98 -132c59 0 97 56 97 122z" />
    <glyph glyph-name="r.ord" horiz-adv-x="341" 
d="M151 445v-87c0 -42 18 -52 67 -67v-7h-183v5c31 20 39 26 39 72v190c0 41 -18 52 -45 70v5h119l3 -100c17 56 50 107 111 107c38 0 60 -23 60 -55c0 -34 -23 -53 -48 -55c1 29 -12 49 -42 49c-45 0 -81 -55 -81 -127z" />
    <glyph glyph-name="s.ord" horiz-adv-x="360" 
d="M169 603c-37 0 -59 -17 -59 -46c0 -31 24 -48 81 -60c92 -21 129 -51 129 -112c0 -66 -57 -108 -136 -108c-45 0 -80 16 -102 30l-26 -30h-6l-8 130h10c39 -65 79 -99 132 -99c39 0 72 17 72 55c0 36 -31 49 -84 60c-93 19 -125 53 -125 110c0 61 52 100 121 100
c42 0 69 -13 94 -27l28 27h6v-118h-9c-35 54 -69 88 -118 88z" />
    <glyph glyph-name="t.ord" horiz-adv-x="305" 
d="M14 592v20c59 12 98 58 111 128h20v-117h120l-4 -31h-116v-206c0 -42 18 -62 54 -62c35 0 58 22 68 72l15 -3c-6 -67 -42 -116 -112 -116c-61 0 -103 34 -102 99v216h-54z" />
    <glyph glyph-name="u.ord" horiz-adv-x="443" 
d="M144 626v-216c0 -43 17 -82 67 -82c48 0 86 41 86 117v106c0 41 -18 52 -46 70v5h123v-265c0 -46 9 -52 39 -72v-5h-116v87c-20 -61 -61 -94 -120 -94c-72 0 -110 48 -110 121v153c0 41 -18 52 -45 70v5h122z" />
    <glyph glyph-name="v.ord" horiz-adv-x="387" 
d="M217 386l76 165c9 18 14 31 14 41c0 13 -14 20 -33 29v5h108v-5c-23 -19 -37 -36 -57 -77l-129 -267h-5l-129 267c-21 41 -35 58 -58 77v5h146v-5c-17 -10 -24 -16 -24 -28c0 -11 5 -24 13 -42z" />
    <glyph glyph-name="w.ord" horiz-adv-x="539" 
d="M362 277l-92 247l-98 -247h-5l-108 267c-18 45 -30 57 -55 77v5h142v-5c-17 -9 -22 -16 -22 -28c0 -11 4 -24 11 -42l59 -153l62 164c-12 29 -21 42 -46 59v5h136v-5c-17 -9 -22 -16 -22 -28c0 -11 4 -24 11 -42l53 -155l62 155c7 18 12 31 12 41c0 13 -12 21 -33 29v5
h105v-5c-24 -20 -35 -32 -54 -77l-113 -267h-5z" />
    <glyph glyph-name="x.ord" horiz-adv-x="399" 
d="M120 289v-5h-114v5c37 16 63 42 91 78l66 85l-63 90c-33 47 -48 59 -83 79v5h154v-5c-11 -5 -15 -10 -15 -20c0 -12 9 -26 26 -51l36 -51l36 48c16 22 25 36 25 51c0 9 -4 18 -14 23v5h112v-5c-37 -16 -63 -42 -91 -77l-52 -68l76 -108c29 -42 44 -61 83 -79v-5h-154v5
c10 5 15 10 15 20c0 12 -9 26 -27 51l-48 69l-48 -66c-17 -23 -25 -36 -25 -51c0 -9 5 -18 14 -23z" />
    <glyph glyph-name="y.ord" horiz-adv-x="384" 
d="M181 282l-119 262c-20 41 -35 57 -58 77v5h146v-5c-17 -10 -24 -16 -24 -28c0 -11 5 -23 14 -42l78 -184l74 184c8 19 12 31 12 41c0 13 -13 20 -32 29v5h107v-5c-23 -20 -37 -35 -55 -77l-138 -325c-24 -56 -45 -92 -97 -92c-36 0 -62 21 -62 54c0 27 23 47 49 50
c-2 -5 -3 -14 -3 -19c0 -19 12 -33 31 -33c25 0 40 20 56 56z" />
    <glyph glyph-name="z.ord" horiz-adv-x="386" 
d="M33 288l208 310h-76c-54 0 -70 -19 -111 -87l-6 1l10 120c11 -4 24 -6 48 -6h237v-4l-207 -310h88c54 0 73 17 121 92l5 -1l-20 -119h-297v4z" />
    <glyph glyph-name="zero.st" 
d="M562 297c0 -180 -96 -307 -242 -307s-241 127 -241 307s95 307 241 307s242 -127 242 -307zM461 297c0 159 -44 269 -141 269s-140 -110 -140 -269s43 -269 140 -269s141 110 141 269z" />
    <glyph glyph-name="one.st" 
d="M123 594h240v-500c0 -43 20 -47 156 -76v-18h-396v18c136 29 156 33 156 76v406c0 43 -20 47 -156 76v18z" />
    <glyph glyph-name="two.st" 
d="M172 73l200 3c86 1 108 7 152 78h10l-19 -154h-444v5l119 127c88 93 196 201 196 314c0 74 -37 121 -108 121c-66 0 -97 -46 -97 -106c0 -38 11 -66 30 -84c-7 -4 -22 -6 -34 -6c-46 0 -82 34 -82 88c0 78 73 145 183 145c117 0 204 -63 204 -171
c0 -120 -111 -200 -310 -360z" />
    <glyph glyph-name="three.st" 
d="M305 -10c-112 0 -203 55 -203 138c0 52 36 83 83 83c15 0 27 -4 36 -8c-18 -20 -27 -39 -27 -71c0 -68 44 -106 111 -106c74 0 125 47 125 137c0 91 -53 145 -152 145v25c94 2 136 50 136 123c0 68 -39 111 -104 111c-64 0 -98 -39 -98 -96c0 -37 10 -57 29 -73
c-7 -5 -20 -7 -31 -7c-46 0 -80 29 -80 82c0 70 70 131 180 131c108 0 194 -49 194 -148c0 -81 -72 -128 -149 -133v-2c107 -6 172 -73 172 -158c0 -115 -98 -173 -222 -173z" />
    <glyph glyph-name="four.st" 
d="M357 206v305l-232 -305h232zM475 166h-30v-60c0 -64 13 -72 55 -99v-7h-198v7c42 27 55 35 55 99v60h-307l-1 4l320 424h76v-388h30c62 0 68 12 95 54h7v-149h-7c-27 42 -33 55 -95 55z" />
    <glyph glyph-name="five.st" 
d="M289 26c82 0 131 64 131 159c0 90 -42 148 -127 148c-55 0 -102 -24 -133 -53h-4l38 315c61 -9 124 -15 174 -15c60 0 97 4 132 37h3c0 -79 -31 -127 -123 -127c-58 0 -125 12 -160 22l-20 -171c26 20 72 36 123 36c103 0 196 -59 196 -186c0 -129 -112 -201 -230 -201
c-113 0 -194 58 -194 137c0 50 35 80 79 80c17 0 30 -3 37 -8c-15 -16 -28 -35 -28 -69c0 -65 42 -104 106 -104z" />
    <glyph glyph-name="six.st" 
d="M357 568c-112 0 -160 -131 -160 -296c17 55 74 100 149 100c103 0 189 -65 189 -186c0 -118 -91 -196 -208 -196c-145 0 -221 123 -221 285c0 179 88 329 251 329c100 0 166 -45 166 -113c0 -46 -32 -67 -69 -67c-12 0 -24 4 -31 9c13 12 22 33 22 57c1 45 -31 78 -88 78
zM211 179c0 -95 43 -152 115 -152c73 0 116 57 116 152c0 94 -43 151 -116 151c-72 0 -115 -57 -115 -151z" />
    <glyph glyph-name="seven.st" 
d="M93 432v162h458v-3l-79 -121c-89 -135 -132 -291 -134 -462l-100 -16c24 193 98 336 200 479l29 41h-253c-64 0 -89 -21 -112 -80h-9z" />
    <glyph glyph-name="eight.st" 
d="M381 333c102 -38 154 -89 154 -174c0 -99 -90 -169 -212 -169c-125 0 -220 57 -220 157c0 73 64 128 138 147c-58 26 -105 73 -105 149c0 98 80 161 183 161c101 0 180 -55 180 -140c0 -80 -63 -117 -118 -131zM215 470c0 -56 36 -86 93 -108l55 -23c35 24 63 64 63 123
c0 63 -42 104 -106 104s-105 -36 -105 -96zM349 251l-91 35c-42 -25 -76 -68 -76 -131c0 -81 60 -128 140 -128c71 0 129 37 129 106c0 57 -42 94 -102 118z" />
    <glyph glyph-name="nine.st" 
d="M429 416c0 95 -43 152 -115 152c-73 0 -116 -57 -116 -152c0 -94 43 -151 116 -151c72 0 115 57 115 151zM283 27c112 0 160 131 160 296c-17 -55 -74 -100 -149 -100c-103 0 -189 65 -189 186c0 118 91 196 208 196c145 0 221 -123 221 -285c0 -179 -88 -329 -251 -329
c-100 0 -166 45 -166 113c0 46 32 67 69 67c12 0 24 -4 31 -9c-13 -12 -22 -33 -22 -57c-1 -45 31 -78 88 -78z" />
    <glyph glyph-name="dollar.st" 
d="M293 361l5 -1v207c-68 -5 -113 -41 -113 -99c0 -61 38 -87 108 -107zM355 251l-22 6v-231c70 8 121 47 121 119c0 55 -30 86 -99 106zM333 -102h-35v94c-127 2 -204 54 -204 119c0 42 31 63 63 63c15 0 26 -4 32 -9c-8 -11 -13 -23 -13 -40c0 -57 44 -97 122 -100v241
l-24 7c-94 28 -161 70 -161 165c0 94 74 159 185 165v90h35v-90c105 -5 174 -50 174 -108c0 -41 -30 -58 -62 -58c-13 0 -24 3 -29 6c8 11 13 21 13 41c0 44 -33 78 -96 83v-217l34 -10c93 -27 159 -70 159 -169c0 -102 -88 -168 -193 -178v-95z" />
    <glyph glyph-name="sterling.st" 
d="M456 -24c-84 0 -141 50 -200 88c-33 -49 -77 -72 -120 -72c-45 0 -77 29 -77 69c0 45 36 76 88 76c26 0 52 -7 79 -17c4 20 7 43 7 69c0 28 -2 58 -5 88h-94v32h90c-3 34 -6 68 -6 101c0 116 74 193 192 193c99 0 151 -48 151 -106c0 -48 -31 -73 -68 -73
c-11 0 -23 3 -34 7c13 12 26 28 26 66c0 43 -22 74 -75 74c-63 0 -92 -54 -92 -134v-115v-13h131v-32h-132c-4 -75 -19 -134 -41 -178c50 -21 106 -42 176 -42c50 0 90 22 96 88c18 -13 31 -31 31 -61c0 -68 -54 -108 -123 -108zM136 24c33 0 62 22 79 63
c-21 10 -44 17 -68 17c-32 0 -50 -15 -50 -42c0 -25 17 -38 39 -38z" />
    <glyph glyph-name="yen.st" 
d="M423 7v-7h-206v7c45 24 58 33 58 89v87h-169v31h169v35l-24 41h-145v32h126l-104 176c-25 43 -45 63 -80 89v7h192v-7c-24 -15 -30 -25 -30 -41c0 -12 5 -24 12 -37l126 -215l124 215c7 12 12 25 12 37c0 16 -6 26 -29 41v7h137v-7c-35 -26 -53 -44 -80 -89l-104 -176
h126v-32h-145l-24 -41v-35h169v-31h-169v-87c0 -56 13 -65 58 -89z" />
    <glyph glyph-name="Euro.st" 
d="M573 178c-22 -129 -106 -186 -209 -186c-112 0 -211 80 -231 239h-65v31h63c-1 9 -1 18 -1 27c0 14 1 28 2 41h-64v31h67c24 159 126 242 256 242c94 0 174 -48 174 -123c0 -48 -31 -72 -67 -72c-13 0 -25 3 -36 9c14 10 26 27 26 64c0 51 -32 89 -94 89
c-88 0 -147 -75 -162 -209h174l-8 -31h-169c-1 -13 -1 -27 -1 -41c0 -9 0 -18 1 -27h152l-8 -31h-142c16 -127 83 -182 164 -182c74 0 127 32 161 133z" />
    <glyph glyph-name="uni0192.st" 
d="M179 -164c-66 0 -107 29 -107 71c0 41 36 62 68 62c13 0 21 -3 27 -5c-15 -14 -22 -32 -22 -56c0 -26 11 -42 40 -42c38 0 54 34 60 87l46 347h-86l5 30h85l15 116c14 100 70 157 161 157c66 0 107 -29 107 -71s-36 -62 -68 -62c-13 0 -21 2 -27 5c15 13 23 32 23 55
c0 27 -12 43 -41 43c-38 0 -54 -34 -62 -88l-20 -155h103l-5 -30h-102l-38 -290c-15 -116 -72 -174 -162 -174z" />
    <glyph glyph-name="A.sc" horiz-adv-x="697" 
d="M322 467l-116 -245h232zM193 8v-8h-167v8c39 27 51 39 76 90l244 508h4l245 -508c25 -51 37 -63 74 -90v-8h-204v8c34 16 48 26 48 44c0 11 -3 19 -11 35l-46 97h-268l-42 -90c-7 -16 -10 -26 -10 -36c0 -16 19 -29 57 -50z" />
    <glyph glyph-name="Agrave.sc" horiz-adv-x="697" 
d="M186 851h111l67 -188h-19zM322 467l-116 -245h232zM193 8v-8h-167v8c39 27 51 39 76 90l244 508h4l245 -508c25 -51 37 -63 74 -90v-8h-204v8c34 16 48 26 48 44c0 11 -3 19 -11 35l-46 97h-268l-42 -90c-7 -16 -10 -26 -10 -36c0 -16 19 -29 57 -50z" />
    <glyph glyph-name="Aacute.sc" horiz-adv-x="697" 
d="M397 851h111l-159 -188h-19zM322 467l-116 -245h232zM193 8v-8h-167v8c39 27 51 39 76 90l244 508h4l245 -508c25 -51 37 -63 74 -90v-8h-204v8c34 16 48 26 48 44c0 11 -3 19 -11 35l-46 97h-268l-42 -90c-7 -16 -10 -26 -10 -36c0 -16 19 -29 57 -50z" />
    <glyph glyph-name="Acircumflex.sc" horiz-adv-x="697" 
d="M356 848c29 -57 93 -149 148 -204h-28c-51 29 -90 66 -128 103c-38 -37 -77 -74 -128 -103h-28c55 55 119 147 148 204h16zM322 467l-116 -245h232zM193 8v-8h-167v8c39 27 51 39 76 90l244 508h4l245 -508c25 -51 37 -63 74 -90v-8h-204v8c34 16 48 26 48 44
c0 11 -3 19 -11 35l-46 97h-268l-42 -90c-7 -16 -10 -26 -10 -36c0 -16 19 -29 57 -50z" />
    <glyph glyph-name="Atilde.sc" horiz-adv-x="697" 
d="M195 670h-25c25 87 61 136 109 136c53 0 103 -64 146 -64c40 0 57 27 76 68h25c-25 -87 -61 -136 -109 -136c-53 0 -103 64 -146 64c-40 0 -57 -27 -76 -68zM322 467l-116 -245h232zM193 8v-8h-167v8c39 27 51 39 76 90l244 508h4l245 -508c25 -51 37 -63 74 -90v-8h-204
v8c34 16 48 26 48 44c0 11 -3 19 -11 35l-46 97h-268l-42 -90c-7 -16 -10 -26 -10 -36c0 -16 19 -29 57 -50z" />
    <glyph glyph-name="Adieresis.sc" horiz-adv-x="697" 
d="M258 672c-34 0 -59 27 -59 60c0 32 25 59 59 59c33 0 59 -27 59 -59c0 -33 -26 -60 -59 -60zM438 672c-33 0 -60 27 -60 60c0 32 27 59 60 59s59 -27 59 -59c0 -33 -26 -60 -59 -60zM322 467l-116 -245h232zM193 8v-8h-167v8c39 27 51 39 76 90l244 508h4l245 -508
c25 -51 37 -63 74 -90v-8h-204v8c34 16 48 26 48 44c0 11 -3 19 -11 35l-46 97h-268l-42 -90c-7 -16 -10 -26 -10 -36c0 -16 19 -29 57 -50z" />
    <glyph glyph-name="Aring.sc" horiz-adv-x="697" 
d="M241 765c0 57 49 105 107 105s107 -48 107 -105c0 -59 -49 -106 -107 -106s-107 47 -107 106zM410 765c0 36 -25 63 -62 63s-62 -27 -62 -63c0 -37 25 -62 62 -62s62 25 62 62zM322 467l-116 -245h232zM193 8v-8h-167v8c39 27 51 39 76 90l244 508h4l245 -508
c25 -51 37 -63 74 -90v-8h-204v8c34 16 48 26 48 44c0 11 -3 19 -11 35l-46 97h-268l-42 -90c-7 -16 -10 -26 -10 -36c0 -16 19 -29 57 -50z" />
    <glyph glyph-name="Amacron.sc" horiz-adv-x="697" 
d="M486 682h-276v55h276v-55zM322 467l-116 -245h232zM193 8v-8h-167v8c39 27 51 39 76 90l244 508h4l245 -508c25 -51 37 -63 74 -90v-8h-204v8c34 16 48 26 48 44c0 11 -3 19 -11 35l-46 97h-268l-42 -90c-7 -16 -10 -26 -10 -36c0 -16 19 -29 57 -50z" />
    <glyph glyph-name="Abreve.sc" horiz-adv-x="697" 
d="M232 834c6 -71 58 -104 116 -104s110 33 116 104h26c-1 -106 -61 -174 -142 -174s-141 68 -142 174h26zM322 467l-116 -245h232zM193 8v-8h-167v8c39 27 51 39 76 90l244 508h4l245 -508c25 -51 37 -63 74 -90v-8h-204v8c34 16 48 26 48 44c0 11 -3 19 -11 35l-46 97
h-268l-42 -90c-7 -16 -10 -26 -10 -36c0 -16 19 -29 57 -50z" />
    <glyph glyph-name="Aogonek.sc" horiz-adv-x="697" 
d="M559 -144c-23 -47 -69 -93 -141 -93c-48 0 -93 32 -93 87c0 77 81 123 162 169c16 9 26 20 26 33c0 11 -3 19 -11 35l-46 97h-267l-43 -90c-7 -16 -10 -26 -10 -36c0 -16 19 -29 57 -50v-8h-167v8c39 27 51 39 76 90l244 508h4l245 -508c25 -51 37 -63 74 -90v-8h-174
c-65 -47 -101 -84 -101 -130c0 -40 26 -57 55 -57c38 0 69 22 97 55zM322 467l-115 -245h231z" />
    <glyph glyph-name="B.sc" horiz-adv-x="616" 
d="M334 0h-277v8c42 23 59 34 59 90v398c0 56 -17 67 -59 90v8h257c127 0 223 -40 223 -149c0 -80 -77 -133 -162 -137v-2c99 -3 187 -49 187 -145c0 -113 -93 -161 -228 -161zM206 558v-235h90c82 0 147 29 147 119c0 82 -56 116 -145 116h-92zM304 288h-98v-252h108
c92 0 155 35 155 126c0 89 -64 126 -165 126z" />
    <glyph glyph-name="C.sc" horiz-adv-x="658" 
d="M159 304c0 -168 101 -258 226 -258c83 0 153 35 199 131l17 -4c-29 -110 -115 -182 -242 -182c-176 0 -300 125 -300 305c0 181 130 308 305 308c69 0 121 -22 155 -47l44 47h9v-186h-9c-47 81 -102 145 -193 145c-122 0 -211 -101 -211 -259z" />
    <glyph glyph-name="Ccedilla.sc" horiz-adv-x="658" 
d="M341 -222c-51 0 -92 22 -109 53l15 20c22 -24 48 -36 79 -36s55 15 55 47c0 37 -33 56 -96 58l34 73c-154 18 -260 137 -260 303c0 181 130 308 305 308c69 0 121 -22 155 -47l44 47h9v-186h-9c-47 81 -102 145 -193 145c-122 0 -211 -101 -211 -259
c0 -168 101 -258 226 -258c83 0 153 35 199 131l17 -4c-29 -110 -115 -182 -242 -182h-3l-22 -48c70 -2 121 -31 121 -81c0 -53 -51 -84 -114 -84z" />
    <glyph glyph-name="Cacute.sc" horiz-adv-x="658" 
d="M416 851h111l-159 -188h-19zM159 304c0 -168 101 -258 226 -258c83 0 153 35 199 131l17 -4c-29 -110 -115 -182 -242 -182c-176 0 -300 125 -300 305c0 181 130 308 305 308c69 0 121 -22 155 -47l44 47h9v-186h-9c-47 81 -102 145 -193 145c-122 0 -211 -101 -211 -259
z" />
    <glyph glyph-name="Ccircumflex.sc" horiz-adv-x="658" 
d="M375 858c29 -57 93 -149 148 -204h-28c-51 29 -90 66 -128 103c-38 -37 -77 -74 -128 -103h-28c55 55 119 147 148 204h16zM159 304c0 -168 101 -258 226 -258c83 0 153 35 199 131l17 -4c-29 -110 -115 -182 -242 -182c-176 0 -300 125 -300 305c0 181 130 308 305 308
c69 0 121 -22 155 -47l44 47h9v-186h-9c-47 81 -102 145 -193 145c-122 0 -211 -101 -211 -259z" />
    <glyph glyph-name="Cdotaccent.sc" horiz-adv-x="658" 
d="M367 682c-35 0 -63 28 -63 62c0 35 28 63 63 63s63 -28 63 -63c0 -34 -28 -62 -63 -62zM159 304c0 -168 101 -258 226 -258c83 0 153 35 199 131l17 -4c-29 -110 -115 -182 -242 -182c-176 0 -300 125 -300 305c0 181 130 308 305 308c69 0 121 -22 155 -47l44 47h9v-186
h-9c-47 81 -102 145 -193 145c-122 0 -211 -101 -211 -259z" />
    <glyph glyph-name="Ccaron.sc" horiz-adv-x="658" 
d="M523 858c-55 -54 -119 -146 -148 -203h-16c-29 57 -93 149 -148 203h28c51 -29 90 -65 128 -102c38 37 77 73 128 102h28zM159 304c0 -168 101 -258 226 -258c83 0 153 35 199 131l17 -4c-29 -110 -115 -182 -242 -182c-176 0 -300 125 -300 305c0 181 130 308 305 308
c69 0 121 -22 155 -47l44 47h9v-186h-9c-47 81 -102 145 -193 145c-122 0 -211 -101 -211 -259z" />
    <glyph glyph-name="D.sc" horiz-adv-x="705" 
d="M57 594h237c216 0 351 -113 351 -295c0 -187 -137 -299 -345 -299h-243v8c42 23 59 34 59 90v398c0 56 -17 67 -59 90v8zM546 299c0 159 -90 258 -256 258h-84v-520h88c162 0 252 93 252 262z" />
    <glyph glyph-name="Dcaron.sc" horiz-adv-x="705" 
d="M488 858c-55 -54 -119 -146 -148 -203h-16c-29 57 -93 149 -148 203h28c51 -29 90 -65 128 -102c38 37 77 73 128 102h28zM57 594h237c216 0 351 -113 351 -295c0 -187 -137 -299 -345 -299h-243v8c42 23 59 34 59 90v398c0 56 -17 67 -59 90v8zM546 299
c0 159 -90 258 -256 258h-84v-520h88c162 0 252 93 252 262z" />
    <glyph glyph-name="E.sc" horiz-adv-x="622" 
d="M452 404v-200h-8c-31 74 -43 81 -116 81h-122v-248h171c98 0 131 30 189 112h7l-28 -149h-488v8c42 23 59 34 59 90v398c0 56 -17 67 -59 90v8h407c26 0 40 3 53 5l30 -140h-8c-57 65 -81 98 -182 98h-151v-235h122c73 0 85 6 116 82h8z" />
    <glyph glyph-name="Egrave.sc" horiz-adv-x="622" 
d="M162 851h111l67 -188h-19zM452 404v-200h-8c-31 74 -43 81 -116 81h-122v-248h171c98 0 131 30 189 112h7l-28 -149h-488v8c42 23 59 34 59 90v398c0 56 -17 67 -59 90v8h407c26 0 40 3 53 5l30 -140h-8c-57 65 -81 98 -182 98h-151v-235h122c73 0 85 6 116 82h8z" />
    <glyph glyph-name="Eacute.sc" horiz-adv-x="622" 
d="M373 851h111l-159 -188h-19zM452 404v-200h-8c-31 74 -43 81 -116 81h-122v-248h171c98 0 131 30 189 112h7l-28 -149h-488v8c42 23 59 34 59 90v398c0 56 -17 67 -59 90v8h407c26 0 40 3 53 5l30 -140h-8c-57 65 -81 98 -182 98h-151v-235h122c73 0 85 6 116 82h8z" />
    <glyph glyph-name="Ecircumflex.sc" horiz-adv-x="622" 
d="M332 858c29 -57 93 -149 148 -204h-28c-51 29 -90 66 -128 103c-38 -37 -77 -74 -128 -103h-28c55 55 119 147 148 204h16zM452 404v-200h-8c-31 74 -43 81 -116 81h-122v-248h171c98 0 131 30 189 112h7l-28 -149h-488v8c42 23 59 34 59 90v398c0 56 -17 67 -59 90v8
h407c26 0 40 3 53 5l30 -140h-8c-57 65 -81 98 -182 98h-151v-235h122c73 0 85 6 116 82h8z" />
    <glyph glyph-name="Edieresis.sc" horiz-adv-x="622" 
d="M234 682c-34 0 -59 27 -59 60c0 32 25 59 59 59c33 0 59 -27 59 -59c0 -33 -26 -60 -59 -60zM414 682c-33 0 -60 27 -60 60c0 32 27 59 60 59s59 -27 59 -59c0 -33 -26 -60 -59 -60zM452 404v-200h-8c-31 74 -43 81 -116 81h-122v-248h171c98 0 131 30 189 112h7
l-28 -149h-488v8c42 23 59 34 59 90v398c0 56 -17 67 -59 90v8h407c26 0 40 3 53 5l30 -140h-8c-57 65 -81 98 -182 98h-151v-235h122c73 0 85 6 116 82h8z" />
    <glyph glyph-name="Emacron.sc" horiz-adv-x="622" 
d="M462 692h-276v55h276v-55zM452 404v-200h-8c-31 74 -43 81 -116 81h-122v-248h171c98 0 131 30 189 112h7l-28 -149h-488v8c42 23 59 34 59 90v398c0 56 -17 67 -59 90v8h407c26 0 40 3 53 5l30 -140h-8c-57 65 -81 98 -182 98h-151v-235h122c73 0 85 6 116 82h8z" />
    <glyph glyph-name="Ebreve.sc" horiz-adv-x="622" 
d="M208 844c6 -71 58 -104 116 -104s110 33 116 104h26c-1 -106 -61 -174 -142 -174s-141 68 -142 174h26zM452 404v-200h-8c-31 74 -43 81 -116 81h-122v-248h171c98 0 131 30 189 112h7l-28 -149h-488v8c42 23 59 34 59 90v398c0 56 -17 67 -59 90v8h407c26 0 40 3 53 5
l30 -140h-8c-57 65 -81 98 -182 98h-151v-235h122c73 0 85 6 116 82h8z" />
    <glyph glyph-name="Edotaccent.sc" horiz-adv-x="622" 
d="M324 682c-35 0 -63 28 -63 62c0 35 28 63 63 63s63 -28 63 -63c0 -34 -28 -62 -63 -62zM452 404v-200h-8c-31 74 -43 81 -116 81h-122v-248h171c98 0 131 30 189 112h7l-28 -149h-488v8c42 23 59 34 59 90v398c0 56 -17 67 -59 90v8h407c26 0 40 3 53 5l30 -140h-8
c-57 65 -81 98 -182 98h-151v-235h122c73 0 85 6 116 82h8z" />
    <glyph glyph-name="Eogonek.sc" horiz-adv-x="622" 
d="M531 -144c-23 -47 -70 -93 -141 -93c-48 0 -93 32 -93 87c0 66 60 110 129 150h-369v8c42 23 59 34 59 90v398c0 56 -17 67 -59 90v8h407c26 0 40 3 53 5l30 -140h-8c-57 65 -81 98 -182 98h-151v-235h122c73 0 85 6 116 82h8v-200h-8c-31 74 -43 81 -116 81h-122v-248
h171c98 0 131 30 189 112h7l-28 -149h-78c-65 -47 -101 -84 -101 -130c0 -40 25 -57 55 -57c38 0 69 22 96 55z" />
    <glyph glyph-name="Ecaron.sc" horiz-adv-x="622" 
d="M480 858c-55 -54 -119 -146 -148 -203h-16c-29 57 -93 149 -148 203h28c51 -29 90 -65 128 -102c38 37 77 73 128 102h28zM452 404v-200h-8c-31 74 -43 81 -116 81h-122v-248h171c98 0 131 30 189 112h7l-28 -149h-488v8c42 23 59 34 59 90v398c0 56 -17 67 -59 90v8h407
c26 0 40 3 53 5l30 -140h-8c-57 65 -81 98 -182 98h-151v-235h122c73 0 85 6 116 82h8z" />
    <glyph glyph-name="F.sc" horiz-adv-x="592" 
d="M283 0h-226v8c42 23 59 34 59 90v399c0 56 -17 66 -59 90v7h406c27 0 41 3 54 5l30 -139h-8c-57 64 -81 97 -183 97h-150v-245h122c72 0 85 7 116 82h8v-200h-8c-31 75 -44 82 -116 82h-122v-180c0 -55 24 -64 77 -88v-8z" />
    <glyph glyph-name="G.sc" horiz-adv-x="709" 
d="M530 107v86c0 56 -11 61 -52 84v8h188v-8c-42 -23 -52 -33 -52 -89v-196h-20l-50 83c-34 -48 -100 -85 -186 -85c-170 0 -298 125 -298 306s134 308 312 308c73 0 127 -22 162 -47l47 47h6v-186h-7c-51 81 -106 145 -203 145c-128 0 -216 -108 -216 -264
c0 -160 93 -260 224 -260c60 0 109 20 145 68z" />
    <glyph glyph-name="Gcircumflex.sc" horiz-adv-x="709" 
d="M381 858c29 -57 93 -149 148 -204h-28c-51 29 -90 66 -128 103c-38 -37 -77 -74 -128 -103h-28c55 55 119 147 148 204h16zM530 107v86c0 56 -11 61 -52 84v8h188v-8c-42 -23 -52 -33 -52 -89v-196h-20l-50 83c-34 -48 -100 -85 -186 -85c-170 0 -298 125 -298 306
s134 308 312 308c73 0 127 -22 162 -47l47 47h6v-186h-7c-51 81 -106 145 -203 145c-128 0 -216 -108 -216 -264c0 -160 93 -260 224 -260c60 0 109 20 145 68z" />
    <glyph glyph-name="Gbreve.sc" horiz-adv-x="709" 
d="M257 844c6 -71 58 -104 116 -104s110 33 116 104h26c-1 -106 -61 -174 -142 -174s-141 68 -142 174h26zM530 107v86c0 56 -11 61 -52 84v8h188v-8c-42 -23 -52 -33 -52 -89v-196h-20l-50 83c-34 -48 -100 -85 -186 -85c-170 0 -298 125 -298 306s134 308 312 308
c73 0 127 -22 162 -47l47 47h6v-186h-7c-51 81 -106 145 -203 145c-128 0 -216 -108 -216 -264c0 -160 93 -260 224 -260c60 0 109 20 145 68z" />
    <glyph glyph-name="Gdotaccent.sc" horiz-adv-x="709" 
d="M373 682c-35 0 -63 28 -63 62c0 35 28 63 63 63s63 -28 63 -63c0 -34 -28 -62 -63 -62zM530 107v86c0 56 -11 61 -52 84v8h188v-8c-42 -23 -52 -33 -52 -89v-196h-20l-50 83c-34 -48 -100 -85 -186 -85c-170 0 -298 125 -298 306s134 308 312 308c73 0 127 -22 162 -47
l47 47h6v-186h-7c-51 81 -106 145 -203 145c-128 0 -216 -108 -216 -264c0 -160 93 -260 224 -260c60 0 109 20 145 68z" />
    <glyph glyph-name="uni0122.sc" horiz-adv-x="709" 
d="M530 107v86c0 56 -11 61 -52 84v8h188v-8c-42 -23 -52 -33 -52 -89v-196h-20l-50 83c-34 -48 -100 -85 -186 -85c-170 0 -298 125 -298 306s134 308 312 308c73 0 127 -22 162 -47l47 47h6v-186h-7c-51 81 -106 145 -203 145c-128 0 -216 -108 -216 -264
c0 -160 93 -260 224 -260c60 0 109 20 145 68zM396 -151c-9 -7 -19 -10 -33 -10c-29 0 -51 23 -51 49c0 32 24 55 58 55c42 0 73 -32 73 -84c0 -57 -46 -110 -140 -113v26c51 5 93 27 93 77z" />
    <glyph glyph-name="H.sc" horiz-adv-x="763" 
d="M265 8v-8h-208v8c42 23 59 34 59 90v398c0 56 -17 67 -59 90v8h208v-8c-42 -23 -59 -34 -59 -90v-170h351v170c0 56 -17 67 -59 90v8h208v-8c-42 -23 -59 -34 -59 -90v-398c0 -56 17 -67 59 -90v-8h-208v8c42 23 59 34 59 90v191h-351v-191c0 -56 17 -67 59 -90z" />
    <glyph glyph-name="Hcircumflex.sc" horiz-adv-x="763" 
d="M389 858c29 -57 93 -149 148 -204h-28c-51 29 -90 66 -128 103c-38 -37 -77 -74 -128 -103h-28c55 55 119 147 148 204h16zM265 8v-8h-208v8c42 23 59 34 59 90v398c0 56 -17 67 -59 90v8h208v-8c-42 -23 -59 -34 -59 -90v-170h351v170c0 56 -17 67 -59 90v8h208v-8
c-42 -23 -59 -34 -59 -90v-398c0 -56 17 -67 59 -90v-8h-208v8c42 23 59 34 59 90v191h-351v-191c0 -56 17 -67 59 -90z" />
    <glyph glyph-name="I.sc" horiz-adv-x="322" 
d="M116 98v398c0 56 -17 67 -59 90v8h208v-8c-43 -23 -59 -34 -59 -90v-398c0 -56 16 -67 59 -90v-8h-208v8c42 23 59 34 59 90z" />
    <glyph glyph-name="Igrave.sc" horiz-adv-x="322" 
d="M-1 851h111l67 -188h-19zM116 98v398c0 56 -17 67 -59 90v8h208v-8c-43 -23 -59 -34 -59 -90v-398c0 -56 16 -67 59 -90v-8h-208v8c42 23 59 34 59 90z" />
    <glyph glyph-name="Iacute.sc" horiz-adv-x="322" 
d="M210 851h111l-159 -188h-19zM116 98v398c0 56 -17 67 -59 90v8h208v-8c-43 -23 -59 -34 -59 -90v-398c0 -56 16 -67 59 -90v-8h-208v8c42 23 59 34 59 90z" />
    <glyph glyph-name="Icircumflex.sc" horiz-adv-x="322" 
d="M169 858c29 -57 93 -149 148 -204h-28c-51 29 -90 66 -128 103c-38 -37 -77 -74 -128 -103h-28c55 55 119 147 148 204h16zM116 98v398c0 56 -17 67 -59 90v8h208v-8c-43 -23 -59 -34 -59 -90v-398c0 -56 16 -67 59 -90v-8h-208v8c42 23 59 34 59 90z" />
    <glyph glyph-name="Idieresis.sc" horiz-adv-x="322" 
d="M71 682c-34 0 -59 27 -59 60c0 32 25 59 59 59c33 0 59 -27 59 -59c0 -33 -26 -60 -59 -60zM251 682c-33 0 -60 27 -60 60c0 32 27 59 60 59s59 -27 59 -59c0 -33 -26 -60 -59 -60zM116 98v398c0 56 -17 67 -59 90v8h208v-8c-43 -23 -59 -34 -59 -90v-398
c0 -56 16 -67 59 -90v-8h-208v8c42 23 59 34 59 90z" />
    <glyph glyph-name="Itilde.sc" horiz-adv-x="322" 
d="M8 678h-25c25 87 61 136 109 136c53 0 103 -64 146 -64c40 0 57 27 76 68h25c-25 -87 -61 -136 -109 -136c-53 0 -103 64 -146 64c-40 0 -57 -27 -76 -68zM116 98v398c0 56 -17 67 -59 90v8h208v-8c-43 -23 -59 -34 -59 -90v-398c0 -56 16 -67 59 -90v-8h-208v8
c42 23 59 34 59 90z" />
    <glyph glyph-name="Imacron.sc" horiz-adv-x="322" 
d="M299 692h-276v55h276v-55zM116 98v398c0 56 -17 67 -59 90v8h208v-8c-43 -23 -59 -34 -59 -90v-398c0 -56 16 -67 59 -90v-8h-208v8c42 23 59 34 59 90z" />
    <glyph glyph-name="Ibreve.sc" horiz-adv-x="322" 
d="M45 844c6 -71 58 -104 116 -104s110 33 116 104h26c-1 -106 -61 -174 -142 -174s-141 68 -142 174h26zM116 98v398c0 56 -17 67 -59 90v8h208v-8c-43 -23 -59 -34 -59 -90v-398c0 -56 16 -67 59 -90v-8h-208v8c42 23 59 34 59 90z" />
    <glyph glyph-name="Iogonek.sc" horiz-adv-x="322" 
d="M278 -144c-23 -47 -70 -93 -141 -93c-48 0 -93 32 -93 87c0 66 60 110 129 150h-116v8c42 23 59 34 59 90v398c0 56 -17 67 -59 90v8h208v-8c-43 -23 -59 -34 -59 -90v-398c0 -56 16 -67 59 -90v-8h-51c-65 -47 -101 -84 -101 -130c0 -40 25 -57 55 -57c38 0 69 22 96 55
z" />
    <glyph glyph-name="Idotaccent.sc" horiz-adv-x="322" 
d="M161 682c-35 0 -63 28 -63 62c0 35 28 63 63 63s63 -28 63 -63c0 -34 -28 -62 -63 -62zM116 98v398c0 56 -17 67 -59 90v8h208v-8c-43 -23 -59 -34 -59 -90v-398c0 -56 16 -67 59 -90v-8h-208v8c42 23 59 34 59 90z" />
    <glyph glyph-name="J.sc" horiz-adv-x="534" 
d="M345 180v313c0 56 -17 67 -59 90v8h207v-8c-42 -23 -58 -34 -58 -90v-317c0 -113 -87 -186 -206 -186c-116 0 -198 60 -198 142c0 55 38 88 85 88c16 0 33 -5 42 -11c-22 -16 -38 -39 -38 -76c0 -61 45 -106 109 -106c80 0 116 58 116 153z" />
    <glyph glyph-name="Jcircumflex.sc" horiz-adv-x="534" 
d="M395 858c29 -57 93 -149 148 -204h-28c-51 29 -90 66 -128 103c-38 -37 -77 -74 -128 -103h-28c55 55 119 147 148 204h16zM345 180v313c0 56 -17 67 -59 90v8h207v-8c-42 -23 -58 -34 -58 -90v-317c0 -113 -87 -186 -206 -186c-116 0 -198 60 -198 142c0 55 38 88 85 88
c16 0 33 -5 42 -11c-22 -16 -38 -39 -38 -76c0 -61 45 -106 109 -106c80 0 116 58 116 153z" />
    <glyph glyph-name="K.sc" horiz-adv-x="686" 
d="M265 0h-208v8c42 23 59 34 59 90v398c0 56 -17 67 -59 90v8h208v-8c-43 -23 -59 -34 -59 -90v-211l261 233c14 13 15 19 15 27c0 14 -14 24 -41 42v7h195v-7c-58 -26 -93 -51 -135 -88l-160 -143l216 -260c36 -42 70 -71 109 -88v-8h-205v8c15 14 21 21 21 32
s-3 17 -19 36l-189 224l-68 -59v-143c0 -56 16 -67 59 -90v-8z" />
    <glyph glyph-name="uni0136.sc" horiz-adv-x="686" 
d="M265 0h-208v8c42 23 59 34 59 90v398c0 56 -17 67 -59 90v8h208v-8c-43 -23 -59 -34 -59 -90v-211l261 233c14 13 15 19 15 27c0 14 -14 24 -41 42v7h195v-7c-58 -26 -93 -51 -135 -88l-160 -143l216 -260c36 -42 70 -71 109 -88v-8h-205v8c15 14 21 21 21 32
s-3 17 -19 36l-189 224l-68 -59v-143c0 -56 16 -67 59 -90v-8zM369 -151c-9 -7 -19 -10 -33 -10c-29 0 -51 23 -51 49c0 32 24 55 58 55c42 0 73 -32 73 -84c0 -57 -46 -110 -140 -113v26c51 5 93 27 93 77z" />
    <glyph glyph-name="L.sc" horiz-adv-x="596" 
d="M206 496v-460h147c95 0 127 32 195 136h7l-32 -172h-466v8c42 23 59 34 59 90v398c0 56 -17 67 -59 90v8h208v-8c-43 -23 -59 -34 -59 -90z" />
    <glyph glyph-name="Lacute.sc" horiz-adv-x="596" 
d="M227 851h111l-159 -188h-19zM206 496v-460h147c95 0 127 32 195 136h7l-32 -172h-466v8c42 23 59 34 59 90v398c0 56 -17 67 -59 90v8h208v-8c-43 -23 -59 -34 -59 -90z" />
    <glyph glyph-name="uni013B.sc" horiz-adv-x="596" 
d="M206 496v-460h147c95 0 127 32 195 136h7l-32 -172h-466v8c42 23 59 34 59 90v398c0 56 -17 67 -59 90v8h208v-8c-43 -23 -59 -34 -59 -90zM331 -151c-9 -7 -19 -10 -33 -10c-29 0 -51 23 -51 49c0 32 24 55 58 55c42 0 73 -32 73 -84c0 -57 -46 -110 -140 -113v26
c51 5 93 27 93 77z" />
    <glyph glyph-name="Lcaron.sc" horiz-adv-x="596" 
d="M519 594l-97 -205h-18l18 205h97zM206 496v-460h147c95 0 127 32 195 136h7l-32 -172h-466v8c42 23 59 34 59 90v398c0 56 -17 67 -59 90v8h208v-8c-43 -23 -59 -34 -59 -90z" />
    <glyph glyph-name="M.sc" horiz-adv-x="845" 
d="M430 144l189 450h169v-8c-42 -23 -59 -33 -59 -89v-399c0 -56 17 -67 59 -90v-8h-206v8c42 23 58 34 58 90v444l-235 -551h-4l-239 551v-443c0 -56 27 -65 70 -91v-8h-186v8c42 26 70 35 70 91v398c0 56 -17 66 -59 89v8h181z" />
    <glyph glyph-name="N.sc" horiz-adv-x="711" 
d="M556 168v327c0 56 -29 64 -72 91v8h186v-8c-42 -27 -69 -35 -69 -91v-501h-16l-423 524v-420c0 -55 28 -63 70 -90v-8h-186v8c42 27 70 35 70 91v397c0 56 -17 67 -59 90v8h159z" />
    <glyph glyph-name="Ntilde.sc" horiz-adv-x="711" 
d="M215 678h-25c25 87 61 136 109 136c53 0 103 -64 146 -64c40 0 57 27 76 68h25c-25 -87 -61 -136 -109 -136c-53 0 -103 64 -146 64c-40 0 -57 -27 -76 -68zM556 168v327c0 56 -29 64 -72 91v8h186v-8c-42 -27 -69 -35 -69 -91v-501h-16l-423 524v-420
c0 -55 28 -63 70 -90v-8h-186v8c42 27 70 35 70 91v397c0 56 -17 67 -59 90v8h159z" />
    <glyph glyph-name="Nacute.sc" horiz-adv-x="711" 
d="M417 851h111l-159 -188h-19zM556 168v327c0 56 -29 64 -72 91v8h186v-8c-42 -27 -69 -35 -69 -91v-501h-16l-423 524v-420c0 -55 28 -63 70 -90v-8h-186v8c42 27 70 35 70 91v397c0 56 -17 67 -59 90v8h159z" />
    <glyph glyph-name="uni0145.sc" horiz-adv-x="711" 
d="M556 168v327c0 56 -29 64 -72 91v8h186v-8c-42 -27 -69 -35 -69 -91v-501h-16l-423 524v-420c0 -55 28 -63 70 -90v-8h-186v8c42 27 70 35 70 91v397c0 56 -17 67 -59 90v8h159zM391 -151c-9 -7 -19 -10 -33 -10c-29 0 -51 23 -51 49c0 32 24 55 58 55
c42 0 73 -32 73 -84c0 -57 -46 -110 -140 -113v26c51 5 93 27 93 77z" />
    <glyph glyph-name="Ncaron.sc" horiz-adv-x="711" 
d="M524 858c-55 -54 -119 -146 -148 -203h-16c-29 57 -93 149 -148 203h28c51 -29 90 -65 128 -102c38 37 77 73 128 102h28zM556 168v327c0 56 -29 64 -72 91v8h186v-8c-42 -27 -69 -35 -69 -91v-501h-16l-423 524v-420c0 -55 28 -63 70 -90v-8h-186v8c42 27 70 35 70 91
v397c0 56 -17 67 -59 90v8h159z" />
    <glyph glyph-name="O.sc" horiz-adv-x="724" 
d="M665 297c0 -178 -129 -307 -303 -307s-302 129 -302 307s128 307 302 307s303 -129 303 -307zM162 297c0 -157 74 -266 200 -266c127 0 200 109 200 266s-73 266 -200 266c-126 0 -200 -109 -200 -266z" />
    <glyph glyph-name="Ograve.sc" horiz-adv-x="724" 
d="M200 851h111l67 -188h-19zM665 297c0 -178 -129 -307 -303 -307s-302 129 -302 307s128 307 302 307s303 -129 303 -307zM162 297c0 -157 74 -266 200 -266c127 0 200 109 200 266s-73 266 -200 266c-126 0 -200 -109 -200 -266z" />
    <glyph glyph-name="Oacute.sc" horiz-adv-x="724" 
d="M411 851h111l-159 -188h-19zM665 297c0 -178 -129 -307 -303 -307s-302 129 -302 307s128 307 302 307s303 -129 303 -307zM162 297c0 -157 74 -266 200 -266c127 0 200 109 200 266s-73 266 -200 266c-126 0 -200 -109 -200 -266z" />
    <glyph glyph-name="Ocircumflex.sc" horiz-adv-x="724" 
d="M370 858c29 -57 93 -149 148 -204h-28c-51 29 -90 66 -128 103c-38 -37 -77 -74 -128 -103h-28c55 55 119 147 148 204h16zM665 297c0 -178 -129 -307 -303 -307s-302 129 -302 307s128 307 302 307s303 -129 303 -307zM162 297c0 -157 74 -266 200 -266
c127 0 200 109 200 266s-73 266 -200 266c-126 0 -200 -109 -200 -266z" />
    <glyph glyph-name="Otilde.sc" horiz-adv-x="724" 
d="M209 678h-25c25 87 61 136 109 136c53 0 103 -64 146 -64c40 0 57 27 76 68h25c-25 -87 -61 -136 -109 -136c-53 0 -103 64 -146 64c-40 0 -57 -27 -76 -68zM665 297c0 -178 -129 -307 -303 -307s-302 129 -302 307s128 307 302 307s303 -129 303 -307zM162 297
c0 -157 74 -266 200 -266c127 0 200 109 200 266s-73 266 -200 266c-126 0 -200 -109 -200 -266z" />
    <glyph glyph-name="Odieresis.sc" horiz-adv-x="724" 
d="M272 682c-34 0 -59 27 -59 60c0 32 25 59 59 59c33 0 59 -27 59 -59c0 -33 -26 -60 -59 -60zM452 682c-33 0 -60 27 -60 60c0 32 27 59 60 59s59 -27 59 -59c0 -33 -26 -60 -59 -60zM665 297c0 -178 -129 -307 -303 -307s-302 129 -302 307s128 307 302 307
s303 -129 303 -307zM162 297c0 -157 74 -266 200 -266c127 0 200 109 200 266s-73 266 -200 266c-126 0 -200 -109 -200 -266z" />
    <glyph glyph-name="Omacron.sc" horiz-adv-x="724" 
d="M500 692h-276v55h276v-55zM665 297c0 -178 -129 -307 -303 -307s-302 129 -302 307s128 307 302 307s303 -129 303 -307zM162 297c0 -157 74 -266 200 -266c127 0 200 109 200 266s-73 266 -200 266c-126 0 -200 -109 -200 -266z" />
    <glyph glyph-name="Obreve.sc" horiz-adv-x="724" 
d="M246 844c6 -71 58 -104 116 -104s110 33 116 104h26c-1 -106 -61 -174 -142 -174s-141 68 -142 174h26zM665 297c0 -178 -129 -307 -303 -307s-302 129 -302 307s128 307 302 307s303 -129 303 -307zM162 297c0 -157 74 -266 200 -266c127 0 200 109 200 266
s-73 266 -200 266c-126 0 -200 -109 -200 -266z" />
    <glyph glyph-name="Ohungarumlaut.sc" horiz-adv-x="724" 
d="M322 851h110l-155 -188h-20zM481 851h110l-156 -188h-19zM665 297c0 -178 -129 -307 -303 -307s-302 129 -302 307s128 307 302 307s303 -129 303 -307zM162 297c0 -157 74 -266 200 -266c127 0 200 109 200 266s-73 266 -200 266c-126 0 -200 -109 -200 -266z" />
    <glyph glyph-name="P.sc" horiz-adv-x="615" 
d="M335 245h-129v-149c0 -55 24 -64 77 -88v-8h-226v8c42 23 59 34 59 90v398c0 56 -17 67 -59 90v8h278c145 0 237 -57 237 -174c0 -118 -95 -175 -237 -175zM206 282h110c109 0 163 41 163 138c0 96 -54 137 -163 137h-110v-275z" />
    <glyph glyph-name="Q.sc" horiz-adv-x="724" 
d="M585 -117c-65 0 -100 58 -130 120c-29 -8 -60 -13 -93 -13c-174 0 -302 129 -302 307s128 307 302 307s303 -129 303 -307c0 -117 -56 -213 -144 -265c26 -50 53 -92 97 -92c25 0 43 9 59 39h10c-10 -65 -48 -96 -102 -96zM162 297c0 -92 26 -168 72 -215
c10 63 56 118 128 118c65 0 101 -55 132 -114c44 47 68 121 68 211c0 157 -73 266 -200 266c-126 0 -200 -109 -200 -266zM362 31c27 0 52 5 74 15c-26 59 -52 111 -97 111c-39 0 -76 -38 -81 -95c29 -20 64 -31 104 -31z" />
    <glyph glyph-name="R.sc" horiz-adv-x="674" 
d="M206 558v-252h116c85 0 153 29 153 129c0 88 -61 123 -153 123h-116zM206 269v-171c0 -56 16 -67 59 -90v-8h-208v8c42 23 59 34 59 90v398c0 56 -17 67 -59 90v8h283c128 0 232 -42 232 -158c0 -105 -91 -150 -186 -150v-3c79 -8 118 -42 141 -105l26 -72
c22 -60 47 -77 98 -98v-8h-148c-17 34 -24 52 -39 92l-30 84c-23 63 -47 93 -128 93h-100z" />
    <glyph glyph-name="Racute.sc" horiz-adv-x="674" 
d="M373 851h111l-159 -188h-19zM206 558v-252h116c85 0 153 29 153 129c0 88 -61 123 -153 123h-116zM206 269v-171c0 -56 16 -67 59 -90v-8h-208v8c42 23 59 34 59 90v398c0 56 -17 67 -59 90v8h283c128 0 232 -42 232 -158c0 -105 -91 -150 -186 -150v-3
c79 -8 118 -42 141 -105l26 -72c22 -60 47 -77 98 -98v-8h-148c-17 34 -24 52 -39 92l-30 84c-23 63 -47 93 -128 93h-100z" />
    <glyph glyph-name="uni0156.sc" horiz-adv-x="674" 
d="M206 558v-252h116c85 0 153 29 153 129c0 88 -61 123 -153 123h-116zM206 269v-171c0 -56 16 -67 59 -90v-8h-208v8c42 23 59 34 59 90v398c0 56 -17 67 -59 90v8h283c128 0 232 -42 232 -158c0 -105 -91 -150 -186 -150v-3c79 -8 118 -42 141 -105l26 -72
c22 -60 47 -77 98 -98v-8h-148c-17 34 -24 52 -39 92l-30 84c-23 63 -47 93 -128 93h-100zM348 -151c-9 -7 -19 -10 -33 -10c-29 0 -51 23 -51 49c0 32 24 55 58 55c42 0 73 -32 73 -84c0 -57 -46 -110 -140 -113v26c51 5 93 27 93 77z" />
    <glyph glyph-name="Rcaron.sc" horiz-adv-x="674" 
d="M481 858c-55 -54 -119 -146 -148 -203h-16c-29 57 -93 149 -148 203h28c51 -29 90 -65 128 -102c38 37 77 73 128 102h28zM206 558v-252h116c85 0 153 29 153 129c0 88 -61 123 -153 123h-116zM206 269v-171c0 -56 16 -67 59 -90v-8h-208v8c42 23 59 34 59 90v398
c0 56 -17 67 -59 90v8h283c128 0 232 -42 232 -158c0 -105 -91 -150 -186 -150v-3c79 -8 118 -42 141 -105l26 -72c22 -60 47 -77 98 -98v-8h-148c-17 34 -24 52 -39 92l-30 84c-23 63 -47 93 -128 93h-100z" />
    <glyph glyph-name="S.sc" horiz-adv-x="574" 
d="M273 563c-66 0 -115 -39 -115 -99c0 -63 41 -89 117 -108l76 -20c97 -25 155 -71 155 -171c0 -115 -102 -175 -210 -175c-73 0 -139 30 -169 59l-41 -58h-10l-12 210h12c58 -104 126 -169 219 -169c78 0 130 42 130 114c0 58 -38 90 -104 108l-82 21
c-104 27 -165 74 -165 166c0 100 85 163 197 163c71 0 121 -24 151 -45l42 45h9l3 -184h-10c-46 81 -102 143 -193 143z" />
    <glyph glyph-name="Sacute.sc" horiz-adv-x="574" 
d="M334 851h111l-159 -188h-19zM273 563c-66 0 -115 -39 -115 -99c0 -63 41 -89 117 -108l76 -20c97 -25 155 -71 155 -171c0 -115 -102 -175 -210 -175c-73 0 -139 30 -169 59l-41 -58h-10l-12 210h12c58 -104 126 -169 219 -169c78 0 130 42 130 114c0 58 -38 90 -104 108
l-82 21c-104 27 -165 74 -165 166c0 100 85 163 197 163c71 0 121 -24 151 -45l42 45h9l3 -184h-10c-46 81 -102 143 -193 143z" />
    <glyph glyph-name="Scircumflex.sc" horiz-adv-x="574" 
d="M293 858c29 -57 93 -149 148 -204h-28c-51 29 -90 66 -128 103c-38 -37 -77 -74 -128 -103h-28c55 55 119 147 148 204h16zM273 563c-66 0 -115 -39 -115 -99c0 -63 41 -89 117 -108l76 -20c97 -25 155 -71 155 -171c0 -115 -102 -175 -210 -175c-73 0 -139 30 -169 59
l-41 -58h-10l-12 210h12c58 -104 126 -169 219 -169c78 0 130 42 130 114c0 58 -38 90 -104 108l-82 21c-104 27 -165 74 -165 166c0 100 85 163 197 163c71 0 121 -24 151 -45l42 45h9l3 -184h-10c-46 81 -102 143 -193 143z" />
    <glyph glyph-name="uni015E.sc" horiz-adv-x="574" 
d="M260 -222c-51 0 -92 22 -109 53l15 20c22 -24 48 -36 79 -36s55 15 55 47c0 37 -33 56 -96 58l36 76c-50 10 -91 32 -113 53l-41 -58h-10l-12 210h12c58 -104 126 -169 219 -169c78 0 130 42 130 114c0 58 -38 90 -104 108l-82 21c-104 27 -165 74 -165 166
c0 100 85 163 197 163c71 0 121 -24 151 -45l42 45h9l3 -184h-10c-46 81 -102 143 -193 143c-66 0 -115 -39 -115 -99c0 -63 41 -89 117 -108l76 -20c97 -25 155 -71 155 -171c0 -115 -102 -175 -210 -175c-7 0 -14 0 -21 1l-22 -48c70 -2 121 -31 121 -81
c0 -53 -51 -84 -114 -84z" />
    <glyph glyph-name="Scaron.sc" horiz-adv-x="574" 
d="M441 858c-55 -54 -119 -146 -148 -203h-16c-29 57 -93 149 -148 203h28c51 -29 90 -65 128 -102c38 37 77 73 128 102h28zM273 563c-66 0 -115 -39 -115 -99c0 -63 41 -89 117 -108l76 -20c97 -25 155 -71 155 -171c0 -115 -102 -175 -210 -175c-73 0 -139 30 -169 59
l-41 -58h-10l-12 210h12c58 -104 126 -169 219 -169c78 0 130 42 130 114c0 58 -38 90 -104 108l-82 21c-104 27 -165 74 -165 166c0 100 85 163 197 163c71 0 121 -24 151 -45l42 45h9l3 -184h-10c-46 81 -102 143 -193 143z" />
    <glyph glyph-name="uni0218.sc" horiz-adv-x="574" 
d="M273 563c-66 0 -115 -39 -115 -99c0 -63 41 -89 117 -108l76 -20c97 -25 155 -71 155 -171c0 -115 -102 -175 -210 -175c-73 0 -139 30 -169 59l-41 -58h-10l-12 210h12c58 -104 126 -169 219 -169c78 0 130 42 130 114c0 58 -38 90 -104 108l-82 21
c-104 27 -165 74 -165 166c0 100 85 163 197 163c71 0 121 -24 151 -45l42 45h9l3 -184h-10c-46 81 -102 143 -193 143zM308 -151c-9 -7 -19 -10 -33 -10c-29 0 -51 23 -51 49c0 32 24 55 58 55c42 0 73 -32 73 -84c0 -57 -46 -110 -140 -113v26c51 5 93 27 93 77z" />
    <glyph glyph-name="T.sc" horiz-adv-x="678" 
d="M118 594h442c27 0 40 3 53 5l30 -168h-8c-53 74 -83 127 -166 127h-84v-461c0 -56 16 -66 64 -90v-7h-219v7c47 24 65 34 65 90v461h-84c-85 0 -115 -53 -166 -127h-9l29 168c13 -2 27 -5 53 -5z" />
    <glyph glyph-name="uni0162.sc" horiz-adv-x="678" 
d="M335 -222c-51 0 -92 22 -109 53l15 20c22 -24 48 -36 79 -36s55 15 55 47c0 37 -33 56 -96 58l38 80h-87v7c47 24 65 34 65 90v461h-84c-85 0 -115 -53 -166 -127h-9l29 168c13 -2 27 -5 53 -5h442c27 0 40 3 53 5l30 -168h-8c-53 74 -83 127 -166 127h-84v-461
c0 -56 16 -66 64 -90v-7h-95l-26 -57c70 -2 121 -31 121 -81c0 -53 -51 -84 -114 -84z" />
    <glyph glyph-name="Tcaron.sc" horiz-adv-x="678" 
d="M495 858c-55 -54 -119 -146 -148 -203h-16c-29 57 -93 149 -148 203h28c51 -29 90 -65 128 -102c38 37 77 73 128 102h28zM118 594h442c27 0 40 3 53 5l30 -168h-8c-53 74 -83 127 -166 127h-84v-461c0 -56 16 -66 64 -90v-7h-219v7c47 24 65 34 65 90v461h-84
c-85 0 -115 -53 -166 -127h-9l29 168c13 -2 27 -5 53 -5z" />
    <glyph glyph-name="uni021A.sc" horiz-adv-x="678" 
d="M118 594h442c27 0 40 3 53 5l30 -168h-8c-53 74 -83 127 -166 127h-84v-461c0 -56 16 -66 64 -90v-7h-219v7c47 24 65 34 65 90v461h-84c-85 0 -115 -53 -166 -127h-9l29 168c13 -2 27 -5 53 -5zM362 -151c-9 -7 -19 -10 -33 -10c-29 0 -51 23 -51 49c0 32 24 55 58 55
c42 0 73 -32 73 -84c0 -57 -46 -110 -140 -113v26c51 5 93 27 93 77z" />
    <glyph glyph-name="U.sc" horiz-adv-x="686" 
d="M543 495c-1 56 -30 64 -72 91v8h186v-8c-42 -27 -69 -35 -70 -91v-262c0 -156 -95 -242 -238 -242c-174 0 -250 96 -250 242v263c0 56 -17 67 -59 90v8h207v-8c-43 -23 -59 -34 -59 -90v-253c0 -132 59 -202 171 -202s184 61 184 201v253z" />
    <glyph glyph-name="Ugrave.sc" horiz-adv-x="686" 
d="M190 851h111l67 -188h-19zM543 495c-1 56 -30 64 -72 91v8h186v-8c-42 -27 -69 -35 -70 -91v-262c0 -156 -95 -242 -238 -242c-174 0 -250 96 -250 242v263c0 56 -17 67 -59 90v8h207v-8c-43 -23 -59 -34 -59 -90v-253c0 -132 59 -202 171 -202s184 61 184 201v253z" />
    <glyph glyph-name="Uacute.sc" horiz-adv-x="686" 
d="M400 851h111l-159 -188h-19zM543 495c-1 56 -30 64 -72 91v8h186v-8c-42 -27 -69 -35 -70 -91v-262c0 -156 -95 -242 -238 -242c-174 0 -250 96 -250 242v263c0 56 -17 67 -59 90v8h207v-8c-43 -23 -59 -34 -59 -90v-253c0 -132 59 -202 171 -202s184 61 184 201v253z
" />
    <glyph glyph-name="Ucircumflex.sc" horiz-adv-x="686" 
d="M360 858c29 -57 93 -149 148 -204h-28c-51 29 -90 66 -128 103c-38 -37 -77 -74 -128 -103h-28c55 55 119 147 148 204h16zM543 495c-1 56 -30 64 -72 91v8h186v-8c-42 -27 -69 -35 -70 -91v-262c0 -156 -95 -242 -238 -242c-174 0 -250 96 -250 242v263
c0 56 -17 67 -59 90v8h207v-8c-43 -23 -59 -34 -59 -90v-253c0 -132 59 -202 171 -202s184 61 184 201v253z" />
    <glyph glyph-name="Udieresis.sc" horiz-adv-x="686" 
d="M262 682c-34 0 -59 27 -59 60c0 32 25 59 59 59c33 0 59 -27 59 -59c0 -33 -26 -60 -59 -60zM442 682c-33 0 -60 27 -60 60c0 32 27 59 60 59s59 -27 59 -59c0 -33 -26 -60 -59 -60zM543 495c-1 56 -30 64 -72 91v8h186v-8c-42 -27 -69 -35 -70 -91v-262
c0 -156 -95 -242 -238 -242c-174 0 -250 96 -250 242v263c0 56 -17 67 -59 90v8h207v-8c-43 -23 -59 -34 -59 -90v-253c0 -132 59 -202 171 -202s184 61 184 201v253z" />
    </font>
</defs>
</svg>
